<svg xmlns="http://www.w3.org/2000/svg" width="2560" height="1440" viewBox="0 0 2560 1440" role="img" aria-label="Desert Sun">
<defs>
<g id="i-cactus"><rect x="20" y="12" width="8" height="30" rx="4" fill="#588157"/>
<path d="M20 26 L 15 26 C 10 26 9 16 14 16 C 16 16 16 18 16 20 L 16 22 L 20 22 Z" fill="#588157"/>
<path d="M28 32 L 33 32 C 38 32 39 22 34 22 C 32 22 32 24 32 26 L 32 28 L 28 28 Z" fill="#588157"/>
<circle cx="24" cy="9" r="2" fill="#E9C46A"/>
<circle cx="21" cy="10" r="2.5" fill="#F4A6A4"/>
<circle cx="27" cy="10" r="2.5" fill="#F4A6A4"/>
<circle cx="24" cy="12.5" r="2.5" fill="#F4A6A4"/>
<circle cx="23" cy="20" r="1.3" fill="#2A2A2A"/>
<circle cx="26" cy="20" r="1.3" fill="#2A2A2A"/>
<path d="M23 23 Q 24.5 24.5 26 23" stroke="#2A2A2A" fill="none" stroke-width="1.5"/>
<path d="M14 44 L34 44" stroke="#8B5E3C" stroke-width="3"/></g>
<g id="i-star"><path d="M24 6 L29 18 L42 19 L32 28 L35 41 L24 34 L13 41 L16 28 L6 19 L19 18 Z" fill="#E9C46A"/>
<circle cx="20" cy="22" r="1.3" fill="#2A2A2A"/>
<circle cx="28" cy="22" r="1.3" fill="#2A2A2A"/></g>
<g id="i-sun"><circle cx="24" cy="24" r="10" fill="#E9C46A"/>
<path d="M24 4 L24 10" stroke="#2A2A2A"/>
<path d="M24 38 L24 44" stroke="#2A2A2A"/>
<path d="M4 24 L10 24" stroke="#2A2A2A"/>
<path d="M38 24 L44 24" stroke="#2A2A2A"/>
<path d="M10 10 L14 14" stroke="#2A2A2A"/>
<path d="M34 34 L38 38" stroke="#2A2A2A"/>
<path d="M10 38 L14 34" stroke="#2A2A2A"/>
<path d="M34 14 L38 10" stroke="#2A2A2A"/></g>
<pattern id="dots" width="127.5" height="127.5" patternUnits="userSpaceOnUse"><circle cx="63.8" cy="63.8" r="5" fill="#E9C99B" opacity="0.27"/></pattern>
</defs>
<rect width="2560" height="1440" fill="#F6E1C0"/>
<rect width="2560" height="1440" fill="url(#dots)"/>
<g>
<use href="#i-cactus" transform="translate(-510.0 -510.0) rotate(-5.0) scale(3.1875) translate(-24 -24)"/>
<use href="#i-sun" transform="translate(-382.5 -382.5) rotate(-5.0) scale(3.1875) translate(-24 -24)"/>
<use href="#i-star" transform="translate(-382.5 -510.0) rotate(0.0) scale(0.7917) translate(-24 -24)" opacity="0.5"/>
<use href="#i-star" transform="translate(-510.0 -382.5) rotate(5.0) scale(0.7917) translate(-24 -24)" opacity="0.5"/>
<use href="#i-cactus" transform="translate(-255.0 -510.0) rotate(10.0) scale(3.1875) translate(-24 -24)"/>
<use href="#i-sun" transform="translate(-127.5 -382.5) rotate(5.0) scale(3.1875) translate(-24 -24)"/>
<use href="#i-star" transform="translate(-127.5 -510.0) rotate(5.0) scale(0.7917) translate(-24 -24)" opacity="0.5"/>
<use href="#i-star" transform="translate(-255.0 -382.5) rotate(-5.0) scale(0.7917) translate(-24 -24)" opacity="0.5"/>
<use href="#i-cactus" transform="translate(0.0 -510.0) rotate(0.0) scale(3.1875) translate(-24 -24)"/>
<use href="#i-sun" transform="translate(127.5 -382.5) rotate(5.0) scale(3.1875) translate(-24 -24)"/>
<use href="#i-star" transform="translate(127.5 -510.0) rotate(-15.0) scale(0.7917) translate(-24 -24)" opacity="0.5"/>
<use href="#i-star" transform="translate(0.0 -382.5) rotate(-10.0) scale(0.7917) translate(-24 -24)" opacity="0.5"/>
<use href="#i-cactus" transform="translate(255.0 -510.0) rotate(-5.0) scale(3.1875) translate(-24 -24)"/>
<use href="#i-sun" transform="translate(382.5 -382.5) rotate(-5.0) scale(3.1875) translate(-24 -24)"/>
<use href="#i-star" transform="translate(382.5 -510.0) rotate(-25.0) scale(0.7917) translate(-24 -24)" opacity="0.5"/>
<use href="#i-star" transform="translate(255.0 -382.5) rotate(-20.0) scale(0.7917) translate(-24 -24)" opacity="0.5"/>
<use href="#i-cactus" transform="translate(510.0 -510.0) rotate(-5.0) scale(3.1875) translate(-24 -24)"/>
<use href="#i-sun" transform="translate(637.5 -382.5) rotate(0.0) scale(3.1875) translate(-24 -24)"/>
<use href="#i-star" transform="translate(637.5 -510.0) rotate(-10.0) scale(0.7917) translate(-24 -24)" opacity="0.5"/>
<use href="#i-star" transform="translate(510.0 -382.5) rotate(5.0) scale(0.7917) translate(-24 -24)" opacity="0.5"/>
<use href="#i-cactus" transform="translate(765.0 -510.0) rotate(10.0) scale(3.1875) translate(-24 -24)"/>
<use href="#i-sun" transform="translate(892.5 -382.5) rotate(-5.0) scale(3.1875) translate(-24 -24)"/>
<use href="#i-star" transform="translate(892.5 -510.0) rotate(5.0) scale(0.7917) translate(-24 -24)" opacity="0.5"/>
<use href="#i-star" transform="translate(765.0 -382.5) rotate(10.0) scale(0.7917) translate(-24 -24)" opacity="0.5"/>
<use href="#i-cactus" transform="translate(1020.0 -510.0) rotate(-10.0) scale(3.1875) translate(-24 -24)"/>
<use href="#i-sun" transform="translate(1147.5 -382.5) rotate(0.0) scale(3.1875) translate(-24 -24)"/>
<use href="#i-star" transform="translate(1147.5 -510.0) rotate(-15.0) scale(0.7917) translate(-24 -24)" opacity="0.5"/>
<use href="#i-star" transform="translate(1020.0 -382.5) rotate(5.0) scale(0.7917) translate(-24 -24)" opacity="0.5"/>
<use href="#i-cactus" transform="translate(1275.0 -510.0) rotate(5.0) scale(3.1875) translate(-24 -24)"/>
<use href="#i-sun" transform="translate(1402.5 -382.5) rotate(-10.0) scale(3.1875) translate(-24 -24)"/>
<use href="#i-star" transform="translate(1402.5 -510.0) rotate(-15.0) scale(0.7917) translate(-24 -24)" opacity="0.5"/>
<use href="#i-star" transform="translate(1275.0 -382.5) rotate(20.0) scale(0.7917) translate(-24 -24)" opacity="0.5"/>
<use href="#i-cactus" transform="translate(1530.0 -510.0) rotate(0.0) scale(3.1875) translate(-24 -24)"/>
<use href="#i-sun" transform="translate(1657.5 -382.5) rotate(5.0) scale(3.1875) translate(-24 -24)"/>
<use href="#i-star" transform="translate(1657.5 -510.0) rotate(10.0) scale(0.7917) translate(-24 -24)" opacity="0.5"/>
<use href="#i-star" transform="translate(1530.0 -382.5) rotate(20.0) scale(0.7917) translate(-24 -24)" opacity="0.5"/>
<use href="#i-cactus" transform="translate(1785.0 -510.0) rotate(-10.0) scale(3.1875) translate(-24 -24)"/>
<use href="#i-sun" transform="translate(1912.5 -382.5) rotate(0.0) scale(3.1875) translate(-24 -24)"/>
<use href="#i-star" transform="translate(1912.5 -510.0) rotate(10.0) scale(0.7917) translate(-24 -24)" opacity="0.5"/>
<use href="#i-star" transform="translate(1785.0 -382.5) rotate(-10.0) scale(0.7917) translate(-24 -24)" opacity="0.5"/>
<use href="#i-cactus" transform="translate(2040.0 -510.0) rotate(0.0) scale(3.1875) translate(-24 -24)"/>
<use href="#i-sun" transform="translate(2167.5 -382.5) rotate(-5.0) scale(3.1875) translate(-24 -24)"/>
<use href="#i-star" transform="translate(2167.5 -510.0) rotate(20.0) scale(0.7917) translate(-24 -24)" opacity="0.5"/>
<use href="#i-star" transform="translate(2040.0 -382.5) rotate(-25.0) scale(0.7917) translate(-24 -24)" opacity="0.5"/>
<use href="#i-cactus" transform="translate(2295.0 -510.0) rotate(5.0) scale(3.1875) translate(-24 -24)"/>
<use href="#i-sun" transform="translate(2422.5 -382.5) rotate(0.0) scale(3.1875) translate(-24 -24)"/>
<use href="#i-star" transform="translate(2422.5 -510.0) rotate(-10.0) scale(0.7917) translate(-24 -24)" opacity="0.5"/>
<use href="#i-star" transform="translate(2295.0 -382.5) rotate(20.0) scale(0.7917) translate(-24 -24)" opacity="0.5"/>
<use href="#i-cactus" transform="translate(2550.0 -510.0) rotate(0.0) scale(3.1875) translate(-24 -24)"/>
<use href="#i-sun" transform="translate(2677.5 -382.5) rotate(-5.0) scale(3.1875) translate(-24 -24)"/>
<use href="#i-star" transform="translate(2677.5 -510.0) rotate(0.0) scale(0.7917) translate(-24 -24)" opacity="0.5"/>
<use href="#i-star" transform="translate(2550.0 -382.5) rotate(-10.0) scale(0.7917) translate(-24 -24)" opacity="0.5"/>
<use href="#i-cactus" transform="translate(2805.0 -510.0) rotate(-5.0) scale(3.1875) translate(-24 -24)"/>
<use href="#i-sun" transform="translate(2932.5 -382.5) rotate(5.0) scale(3.1875) translate(-24 -24)"/>
<use href="#i-star" transform="translate(2932.5 -510.0) rotate(15.0) scale(0.7917) translate(-24 -24)" opacity="0.5"/>
<use href="#i-star" transform="translate(2805.0 -382.5) rotate(-20.0) scale(0.7917) translate(-24 -24)" opacity="0.5"/>
<use href="#i-cactus" transform="translate(3060.0 -510.0) rotate(0.0) scale(3.1875) translate(-24 -24)"/>
<use href="#i-sun" transform="translate(3187.5 -382.5) rotate(10.0) scale(3.1875) translate(-24 -24)"/>
<use href="#i-star" transform="translate(3187.5 -510.0) rotate(-10.0) scale(0.7917) translate(-24 -24)" opacity="0.5"/>
<use href="#i-star" transform="translate(3060.0 -382.5) rotate(20.0) scale(0.7917) translate(-24 -24)" opacity="0.5"/>
<use href="#i-cactus" transform="translate(3315.0 -510.0) rotate(5.0) scale(3.1875) translate(-24 -24)"/>
<use href="#i-sun" transform="translate(3442.5 -382.5) rotate(0.0) scale(3.1875) translate(-24 -24)"/>
<use href="#i-star" transform="translate(3442.5 -510.0) rotate(-5.0) scale(0.7917) translate(-24 -24)" opacity="0.5"/>
<use href="#i-star" transform="translate(3315.0 -382.5) rotate(-15.0) scale(0.7917) translate(-24 -24)" opacity="0.5"/>
<use href="#i-cactus" transform="translate(3570.0 -510.0) rotate(-5.0) scale(3.1875) translate(-24 -24)"/>
<use href="#i-sun" transform="translate(3697.5 -382.5) rotate(0.0) scale(3.1875) translate(-24 -24)"/>
<use href="#i-star" transform="translate(3697.5 -510.0) rotate(0.0) scale(0.7917) translate(-24 -24)" opacity="0.5"/>
<use href="#i-star" transform="translate(3570.0 -382.5) rotate(20.0) scale(0.7917) translate(-24 -24)" opacity="0.5"/>
<use href="#i-cactus" transform="translate(-510.0 -255.0) rotate(5.0) scale(3.1875) translate(-24 -24)"/>
<use href="#i-sun" transform="translate(-382.5 -127.5) rotate(0.0) scale(3.1875) translate(-24 -24)"/>
<use href="#i-star" transform="translate(-382.5 -255.0) rotate(-15.0) scale(0.7917) translate(-24 -24)" opacity="0.5"/>
<use href="#i-star" transform="translate(-510.0 -127.5) rotate(-20.0) scale(0.7917) translate(-24 -24)" opacity="0.5"/>
<use href="#i-cactus" transform="translate(-255.0 -255.0) rotate(10.0) scale(3.1875) translate(-24 -24)"/>
<use href="#i-sun" transform="translate(-127.5 -127.5) rotate(0.0) scale(3.1875) translate(-24 -24)"/>
<use href="#i-star" transform="translate(-127.5 -255.0) rotate(-10.0) scale(0.7917) translate(-24 -24)" opacity="0.5"/>
<use href="#i-star" transform="translate(-255.0 -127.5) rotate(-5.0) scale(0.7917) translate(-24 -24)" opacity="0.5"/>
<use href="#i-cactus" transform="translate(0.0 -255.0) rotate(10.0) scale(3.1875) translate(-24 -24)"/>
<use href="#i-sun" transform="translate(127.5 -127.5) rotate(-5.0) scale(3.1875) translate(-24 -24)"/>
<use href="#i-star" transform="translate(127.5 -255.0) rotate(-10.0) scale(0.7917) translate(-24 -24)" opacity="0.5"/>
<use href="#i-star" transform="translate(0.0 -127.5) rotate(15.0) scale(0.7917) translate(-24 -24)" opacity="0.5"/>
<use href="#i-cactus" transform="translate(255.0 -255.0) rotate(-5.0) scale(3.1875) translate(-24 -24)"/>
<use href="#i-sun" transform="translate(382.5 -127.5) rotate(0.0) scale(3.1875) translate(-24 -24)"/>
<use href="#i-star" transform="translate(382.5 -255.0) rotate(-20.0) scale(0.7917) translate(-24 -24)" opacity="0.5"/>
<use href="#i-star" transform="translate(255.0 -127.5) rotate(-5.0) scale(0.7917) translate(-24 -24)" opacity="0.5"/>
<use href="#i-cactus" transform="translate(510.0 -255.0) rotate(5.0) scale(3.1875) translate(-24 -24)"/>
<use href="#i-sun" transform="translate(637.5 -127.5) rotate(0.0) scale(3.1875) translate(-24 -24)"/>
<use href="#i-star" transform="translate(637.5 -255.0) rotate(-25.0) scale(0.7917) translate(-24 -24)" opacity="0.5"/>
<use href="#i-star" transform="translate(510.0 -127.5) rotate(-10.0) scale(0.7917) translate(-24 -24)" opacity="0.5"/>
<use href="#i-cactus" transform="translate(765.0 -255.0) rotate(0.0) scale(3.1875) translate(-24 -24)"/>
<use href="#i-sun" transform="translate(892.5 -127.5) rotate(-5.0) scale(3.1875) translate(-24 -24)"/>
<use href="#i-star" transform="translate(892.5 -255.0) rotate(25.0) scale(0.7917) translate(-24 -24)" opacity="0.5"/>
<use href="#i-star" transform="translate(765.0 -127.5) rotate(0.0) scale(0.7917) translate(-24 -24)" opacity="0.5"/>
<use href="#i-cactus" transform="translate(1020.0 -255.0) rotate(0.0) scale(3.1875) translate(-24 -24)"/>
<use href="#i-sun" transform="translate(1147.5 -127.5) rotate(0.0) scale(3.1875) translate(-24 -24)"/>
<use href="#i-star" transform="translate(1147.5 -255.0) rotate(15.0) scale(0.7917) translate(-24 -24)" opacity="0.5"/>
<use href="#i-star" transform="translate(1020.0 -127.5) rotate(-5.0) scale(0.7917) translate(-24 -24)" opacity="0.5"/>
<use href="#i-cactus" transform="translate(1275.0 -255.0) rotate(5.0) scale(3.1875) translate(-24 -24)"/>
<use href="#i-sun" transform="translate(1402.5 -127.5) rotate(0.0) scale(3.1875) translate(-24 -24)"/>
<use href="#i-star" transform="translate(1402.5 -255.0) rotate(0.0) scale(0.7917) translate(-24 -24)" opacity="0.5"/>
<use href="#i-star" transform="translate(1275.0 -127.5) rotate(-25.0) scale(0.7917) translate(-24 -24)" opacity="0.5"/>
<use href="#i-cactus" transform="translate(1530.0 -255.0) rotate(0.0) scale(3.1875) translate(-24 -24)"/>
<use href="#i-sun" transform="translate(1657.5 -127.5) rotate(-5.0) scale(3.1875) translate(-24 -24)"/>
<use href="#i-star" transform="translate(1657.5 -255.0) rotate(0.0) scale(0.7917) translate(-24 -24)" opacity="0.5"/>
<use href="#i-star" transform="translate(1530.0 -127.5) rotate(15.0) scale(0.7917) translate(-24 -24)" opacity="0.5"/>
<use href="#i-cactus" transform="translate(1785.0 -255.0) rotate(0.0) scale(3.1875) translate(-24 -24)"/>
<use href="#i-sun" transform="translate(1912.5 -127.5) rotate(-5.0) scale(3.1875) translate(-24 -24)"/>
<use href="#i-star" transform="translate(1912.5 -255.0) rotate(20.0) scale(0.7917) translate(-24 -24)" opacity="0.5"/>
<use href="#i-star" transform="translate(1785.0 -127.5) rotate(-20.0) scale(0.7917) translate(-24 -24)" opacity="0.5"/>
<use href="#i-cactus" transform="translate(2040.0 -255.0) rotate(-5.0) scale(3.1875) translate(-24 -24)"/>
<use href="#i-sun" transform="translate(2167.5 -127.5) rotate(-5.0) scale(3.1875) translate(-24 -24)"/>
<use href="#i-star" transform="translate(2167.5 -255.0) rotate(-20.0) scale(0.7917) translate(-24 -24)" opacity="0.5"/>
<use href="#i-star" transform="translate(2040.0 -127.5) rotate(-15.0) scale(0.7917) translate(-24 -24)" opacity="0.5"/>
<use href="#i-cactus" transform="translate(2295.0 -255.0) rotate(0.0) scale(3.1875) translate(-24 -24)"/>
<use href="#i-sun" transform="translate(2422.5 -127.5) rotate(0.0) scale(3.1875) translate(-24 -24)"/>
<use href="#i-star" transform="translate(2422.5 -255.0) rotate(-10.0) scale(0.7917) translate(-24 -24)" opacity="0.5"/>
<use href="#i-star" transform="translate(2295.0 -127.5) rotate(-5.0) scale(0.7917) translate(-24 -24)" opacity="0.5"/>
<use href="#i-cactus" transform="translate(2550.0 -255.0) rotate(-5.0) scale(3.1875) translate(-24 -24)"/>
<use href="#i-sun" transform="translate(2677.5 -127.5) rotate(0.0) scale(3.1875) translate(-24 -24)"/>
<use href="#i-star" transform="translate(2677.5 -255.0) rotate(-25.0) scale(0.7917) translate(-24 -24)" opacity="0.5"/>
<use href="#i-star" transform="translate(2550.0 -127.5) rotate(-25.0) scale(0.7917) translate(-24 -24)" opacity="0.5"/>
<use href="#i-cactus" transform="translate(2805.0 -255.0) rotate(-5.0) scale(3.1875) translate(-24 -24)"/>
<use href="#i-sun" transform="translate(2932.5 -127.5) rotate(-5.0) scale(3.1875) translate(-24 -24)"/>
<use href="#i-star" transform="translate(2932.5 -255.0) rotate(-10.0) scale(0.7917) translate(-24 -24)" opacity="0.5"/>
<use href="#i-star" transform="translate(2805.0 -127.5) rotate(20.0) scale(0.7917) translate(-24 -24)" opacity="0.5"/>
<use href="#i-cactus" transform="translate(3060.0 -255.0) rotate(0.0) scale(3.1875) translate(-24 -24)"/>
<use href="#i-sun" transform="translate(3187.5 -127.5) rotate(0.0) scale(3.1875) translate(-24 -24)"/>
<use href="#i-star" transform="translate(3187.5 -255.0) rotate(10.0) scale(0.7917) translate(-24 -24)" opacity="0.5"/>
<use href="#i-star" transform="translate(3060.0 -127.5) rotate(20.0) scale(0.7917) translate(-24 -24)" opacity="0.5"/>
<use href="#i-cactus" transform="translate(3315.0 -255.0) rotate(-5.0) scale(3.1875) translate(-24 -24)"/>
<use href="#i-sun" transform="translate(3442.5 -127.5) rotate(0.0) scale(3.1875) translate(-24 -24)"/>
<use href="#i-star" transform="translate(3442.5 -255.0) rotate(25.0) scale(0.7917) translate(-24 -24)" opacity="0.5"/>
<use href="#i-star" transform="translate(3315.0 -127.5) rotate(20.0) scale(0.7917) translate(-24 -24)" opacity="0.5"/>
<use href="#i-cactus" transform="translate(3570.0 -255.0) rotate(-5.0) scale(3.1875) translate(-24 -24)"/>
<use href="#i-sun" transform="translate(3697.5 -127.5) rotate(0.0) scale(3.1875) translate(-24 -24)"/>
<use href="#i-star" transform="translate(3697.5 -255.0) rotate(-20.0) scale(0.7917) translate(-24 -24)" opacity="0.5"/>
<use href="#i-star" transform="translate(3570.0 -127.5) rotate(0.0) scale(0.7917) translate(-24 -24)" opacity="0.5"/>
<use href="#i-cactus" transform="translate(-510.0 0.0) rotate(-5.0) scale(3.1875) translate(-24 -24)"/>
<use href="#i-sun" transform="translate(-382.5 127.5) rotate(-5.0) scale(3.1875) translate(-24 -24)"/>
<use href="#i-star" transform="translate(-382.5 0.0) rotate(-15.0) scale(0.7917) translate(-24 -24)" opacity="0.5"/>
<use href="#i-star" transform="translate(-510.0 127.5) rotate(5.0) scale(0.7917) translate(-24 -24)" opacity="0.5"/>
<use href="#i-cactus" transform="translate(-255.0 0.0) rotate(5.0) scale(3.1875) translate(-24 -24)"/>
<use href="#i-sun" transform="translate(-127.5 127.5) rotate(5.0) scale(3.1875) translate(-24 -24)"/>
<use href="#i-star" transform="translate(-127.5 0.0) rotate(-25.0) scale(0.7917) translate(-24 -24)" opacity="0.5"/>
<use href="#i-star" transform="translate(-255.0 127.5) rotate(-5.0) scale(0.7917) translate(-24 -24)" opacity="0.5"/>
<use href="#i-cactus" transform="translate(0.0 0.0) rotate(5.0) scale(3.1875) translate(-24 -24)"/>
<use href="#i-sun" transform="translate(127.5 127.5) rotate(5.0) scale(3.1875) translate(-24 -24)"/>
<use href="#i-star" transform="translate(127.5 0.0) rotate(-5.0) scale(0.7917) translate(-24 -24)" opacity="0.5"/>
<use href="#i-star" transform="translate(0.0 127.5) rotate(-5.0) scale(0.7917) translate(-24 -24)" opacity="0.5"/>
<use href="#i-cactus" transform="translate(255.0 0.0) rotate(-5.0) scale(3.1875) translate(-24 -24)"/>
<use href="#i-sun" transform="translate(382.5 127.5) rotate(5.0) scale(3.1875) translate(-24 -24)"/>
<use href="#i-star" transform="translate(382.5 0.0) rotate(25.0) scale(0.7917) translate(-24 -24)" opacity="0.5"/>
<use href="#i-star" transform="translate(255.0 127.5) rotate(5.0) scale(0.7917) translate(-24 -24)" opacity="0.5"/>
<use href="#i-cactus" transform="translate(510.0 0.0) rotate(-10.0) scale(3.1875) translate(-24 -24)"/>
<use href="#i-sun" transform="translate(637.5 127.5) rotate(10.0) scale(3.1875) translate(-24 -24)"/>
<use href="#i-star" transform="translate(637.5 0.0) rotate(-10.0) scale(0.7917) translate(-24 -24)" opacity="0.5"/>
<use href="#i-star" transform="translate(510.0 127.5) rotate(-15.0) scale(0.7917) translate(-24 -24)" opacity="0.5"/>
<use href="#i-cactus" transform="translate(765.0 0.0) rotate(0.0) scale(3.1875) translate(-24 -24)"/>
<use href="#i-sun" transform="translate(892.5 127.5) rotate(0.0) scale(3.1875) translate(-24 -24)"/>
<use href="#i-star" transform="translate(892.5 0.0) rotate(5.0) scale(0.7917) translate(-24 -24)" opacity="0.5"/>
<use href="#i-star" transform="translate(765.0 127.5) rotate(-15.0) scale(0.7917) translate(-24 -24)" opacity="0.5"/>
<use href="#i-cactus" transform="translate(1020.0 0.0) rotate(5.0) scale(3.1875) translate(-24 -24)"/>
<use href="#i-sun" transform="translate(1147.5 127.5) rotate(0.0) scale(3.1875) translate(-24 -24)"/>
<use href="#i-star" transform="translate(1147.5 0.0) rotate(20.0) scale(0.7917) translate(-24 -24)" opacity="0.5"/>
<use href="#i-star" transform="translate(1020.0 127.5) rotate(15.0) scale(0.7917) translate(-24 -24)" opacity="0.5"/>
<use href="#i-cactus" transform="translate(1275.0 0.0) rotate(0.0) scale(3.1875) translate(-24 -24)"/>
<use href="#i-sun" transform="translate(1402.5 127.5) rotate(5.0) scale(3.1875) translate(-24 -24)"/>
<use href="#i-star" transform="translate(1402.5 0.0) rotate(5.0) scale(0.7917) translate(-24 -24)" opacity="0.5"/>
<use href="#i-star" transform="translate(1275.0 127.5) rotate(0.0) scale(0.7917) translate(-24 -24)" opacity="0.5"/>
<use href="#i-cactus" transform="translate(1530.0 0.0) rotate(-5.0) scale(3.1875) translate(-24 -24)"/>
<use href="#i-sun" transform="translate(1657.5 127.5) rotate(0.0) scale(3.1875) translate(-24 -24)"/>
<use href="#i-star" transform="translate(1657.5 0.0) rotate(15.0) scale(0.7917) translate(-24 -24)" opacity="0.5"/>
<use href="#i-star" transform="translate(1530.0 127.5) rotate(-15.0) scale(0.7917) translate(-24 -24)" opacity="0.5"/>
<use href="#i-cactus" transform="translate(1785.0 0.0) rotate(5.0) scale(3.1875) translate(-24 -24)"/>
<use href="#i-sun" transform="translate(1912.5 127.5) rotate(0.0) scale(3.1875) translate(-24 -24)"/>
<use href="#i-star" transform="translate(1912.5 0.0) rotate(25.0) scale(0.7917) translate(-24 -24)" opacity="0.5"/>
<use href="#i-star" transform="translate(1785.0 127.5) rotate(0.0) scale(0.7917) translate(-24 -24)" opacity="0.5"/>
<use href="#i-cactus" transform="translate(2040.0 0.0) rotate(-10.0) scale(3.1875) translate(-24 -24)"/>
<use href="#i-sun" transform="translate(2167.5 127.5) rotate(0.0) scale(3.1875) translate(-24 -24)"/>
<use href="#i-star" transform="translate(2167.5 0.0) rotate(-5.0) scale(0.7917) translate(-24 -24)" opacity="0.5"/>
<use href="#i-star" transform="translate(2040.0 127.5) rotate(-5.0) scale(0.7917) translate(-24 -24)" opacity="0.5"/>
<use href="#i-cactus" transform="translate(2295.0 0.0) rotate(-5.0) scale(3.1875) translate(-24 -24)"/>
<use href="#i-sun" transform="translate(2422.5 127.5) rotate(-5.0) scale(3.1875) translate(-24 -24)"/>
<use href="#i-star" transform="translate(2422.5 0.0) rotate(0.0) scale(0.7917) translate(-24 -24)" opacity="0.5"/>
<use href="#i-star" transform="translate(2295.0 127.5) rotate(25.0) scale(0.7917) translate(-24 -24)" opacity="0.5"/>
<use href="#i-cactus" transform="translate(2550.0 0.0) rotate(-10.0) scale(3.1875) translate(-24 -24)"/>
<use href="#i-sun" transform="translate(2677.5 127.5) rotate(5.0) scale(3.1875) translate(-24 -24)"/>
<use href="#i-star" transform="translate(2677.5 0.0) rotate(10.0) scale(0.7917) translate(-24 -24)" opacity="0.5"/>
<use href="#i-star" transform="translate(2550.0 127.5) rotate(10.0) scale(0.7917) translate(-24 -24)" opacity="0.5"/>
<use href="#i-cactus" transform="translate(2805.0 0.0) rotate(-10.0) scale(3.1875) translate(-24 -24)"/>
<use href="#i-sun" transform="translate(2932.5 127.5) rotate(-5.0) scale(3.1875) translate(-24 -24)"/>
<use href="#i-star" transform="translate(2932.5 0.0) rotate(0.0) scale(0.7917) translate(-24 -24)" opacity="0.5"/>
<use href="#i-star" transform="translate(2805.0 127.5) rotate(-10.0) scale(0.7917) translate(-24 -24)" opacity="0.5"/>
<use href="#i-cactus" transform="translate(3060.0 0.0) rotate(5.0) scale(3.1875) translate(-24 -24)"/>
<use href="#i-sun" transform="translate(3187.5 127.5) rotate(-5.0) scale(3.1875) translate(-24 -24)"/>
<use href="#i-star" transform="translate(3187.5 0.0) rotate(-20.0) scale(0.7917) translate(-24 -24)" opacity="0.5"/>
<use href="#i-star" transform="translate(3060.0 127.5) rotate(10.0) scale(0.7917) translate(-24 -24)" opacity="0.5"/>
<use href="#i-cactus" transform="translate(3315.0 0.0) rotate(-10.0) scale(3.1875) translate(-24 -24)"/>
<use href="#i-sun" transform="translate(3442.5 127.5) rotate(0.0) scale(3.1875) translate(-24 -24)"/>
<use href="#i-star" transform="translate(3442.5 0.0) rotate(5.0) scale(0.7917) translate(-24 -24)" opacity="0.5"/>
<use href="#i-star" transform="translate(3315.0 127.5) rotate(20.0) scale(0.7917) translate(-24 -24)" opacity="0.5"/>
<use href="#i-cactus" transform="translate(3570.0 0.0) rotate(5.0) scale(3.1875) translate(-24 -24)"/>
<use href="#i-sun" transform="translate(3697.5 127.5) rotate(5.0) scale(3.1875) translate(-24 -24)"/>
<use href="#i-star" transform="translate(3697.5 0.0) rotate(-5.0) scale(0.7917) translate(-24 -24)" opacity="0.5"/>
<use href="#i-star" transform="translate(3570.0 127.5) rotate(-20.0) scale(0.7917) translate(-24 -24)" opacity="0.5"/>
<use href="#i-cactus" transform="translate(-510.0 255.0) rotate(10.0) scale(3.1875) translate(-24 -24)"/>
<use href="#i-sun" transform="translate(-382.5 382.5) rotate(0.0) scale(3.1875) translate(-24 -24)"/>
<use href="#i-star" transform="translate(-382.5 255.0) rotate(-5.0) scale(0.7917) translate(-24 -24)" opacity="0.5"/>
<use href="#i-star" transform="translate(-510.0 382.5) rotate(-5.0) scale(0.7917) translate(-24 -24)" opacity="0.5"/>
<use href="#i-cactus" transform="translate(-255.0 255.0) rotate(0.0) scale(3.1875) translate(-24 -24)"/>
<use href="#i-sun" transform="translate(-127.5 382.5) rotate(-5.0) scale(3.1875) translate(-24 -24)"/>
<use href="#i-star" transform="translate(-127.5 255.0) rotate(-5.0) scale(0.7917) translate(-24 -24)" opacity="0.5"/>
<use href="#i-star" transform="translate(-255.0 382.5) rotate(5.0) scale(0.7917) translate(-24 -24)" opacity="0.5"/>
<use href="#i-cactus" transform="translate(0.0 255.0) rotate(0.0) scale(3.1875) translate(-24 -24)"/>
<use href="#i-sun" transform="translate(127.5 382.5) rotate(-10.0) scale(3.1875) translate(-24 -24)"/>
<use href="#i-star" transform="translate(127.5 255.0) rotate(5.0) scale(0.7917) translate(-24 -24)" opacity="0.5"/>
<use href="#i-star" transform="translate(0.0 382.5) rotate(10.0) scale(0.7917) translate(-24 -24)" opacity="0.5"/>
<use href="#i-cactus" transform="translate(255.0 255.0) rotate(5.0) scale(3.1875) translate(-24 -24)"/>
<use href="#i-sun" transform="translate(382.5 382.5) rotate(-10.0) scale(3.1875) translate(-24 -24)"/>
<use href="#i-star" transform="translate(382.5 255.0) rotate(-15.0) scale(0.7917) translate(-24 -24)" opacity="0.5"/>
<use href="#i-star" transform="translate(255.0 382.5) rotate(-15.0) scale(0.7917) translate(-24 -24)" opacity="0.5"/>
<use href="#i-cactus" transform="translate(510.0 255.0) rotate(0.0) scale(3.1875) translate(-24 -24)"/>
<use href="#i-sun" transform="translate(637.5 382.5) rotate(5.0) scale(3.1875) translate(-24 -24)"/>
<use href="#i-star" transform="translate(637.5 255.0) rotate(-5.0) scale(0.7917) translate(-24 -24)" opacity="0.5"/>
<use href="#i-star" transform="translate(510.0 382.5) rotate(-15.0) scale(0.7917) translate(-24 -24)" opacity="0.5"/>
<use href="#i-cactus" transform="translate(765.0 255.0) rotate(5.0) scale(3.1875) translate(-24 -24)"/>
<use href="#i-sun" transform="translate(892.5 382.5) rotate(5.0) scale(3.1875) translate(-24 -24)"/>
<use href="#i-star" transform="translate(892.5 255.0) rotate(20.0) scale(0.7917) translate(-24 -24)" opacity="0.5"/>
<use href="#i-star" transform="translate(765.0 382.5) rotate(20.0) scale(0.7917) translate(-24 -24)" opacity="0.5"/>
<use href="#i-cactus" transform="translate(1020.0 255.0) rotate(0.0) scale(3.1875) translate(-24 -24)"/>
<use href="#i-sun" transform="translate(1147.5 382.5) rotate(0.0) scale(3.1875) translate(-24 -24)"/>
<use href="#i-star" transform="translate(1147.5 255.0) rotate(-25.0) scale(0.7917) translate(-24 -24)" opacity="0.5"/>
<use href="#i-star" transform="translate(1020.0 382.5) rotate(-10.0) scale(0.7917) translate(-24 -24)" opacity="0.5"/>
<use href="#i-cactus" transform="translate(1275.0 255.0) rotate(5.0) scale(3.1875) translate(-24 -24)"/>
<use href="#i-sun" transform="translate(1402.5 382.5) rotate(0.0) scale(3.1875) translate(-24 -24)"/>
<use href="#i-star" transform="translate(1402.5 255.0) rotate(20.0) scale(0.7917) translate(-24 -24)" opacity="0.5"/>
<use href="#i-star" transform="translate(1275.0 382.5) rotate(-15.0) scale(0.7917) translate(-24 -24)" opacity="0.5"/>
<use href="#i-cactus" transform="translate(1530.0 255.0) rotate(5.0) scale(3.1875) translate(-24 -24)"/>
<use href="#i-sun" transform="translate(1657.5 382.5) rotate(5.0) scale(3.1875) translate(-24 -24)"/>
<use href="#i-star" transform="translate(1657.5 255.0) rotate(25.0) scale(0.7917) translate(-24 -24)" opacity="0.5"/>
<use href="#i-star" transform="translate(1530.0 382.5) rotate(5.0) scale(0.7917) translate(-24 -24)" opacity="0.5"/>
<use href="#i-cactus" transform="translate(1785.0 255.0) rotate(0.0) scale(3.1875) translate(-24 -24)"/>
<use href="#i-sun" transform="translate(1912.5 382.5) rotate(-5.0) scale(3.1875) translate(-24 -24)"/>
<use href="#i-star" transform="translate(1912.5 255.0) rotate(20.0) scale(0.7917) translate(-24 -24)" opacity="0.5"/>
<use href="#i-star" transform="translate(1785.0 382.5) rotate(-15.0) scale(0.7917) translate(-24 -24)" opacity="0.5"/>
<use href="#i-cactus" transform="translate(2040.0 255.0) rotate(0.0) scale(3.1875) translate(-24 -24)"/>
<use href="#i-sun" transform="translate(2167.5 382.5) rotate(0.0) scale(3.1875) translate(-24 -24)"/>
<use href="#i-star" transform="translate(2167.5 255.0) rotate(-15.0) scale(0.7917) translate(-24 -24)" opacity="0.5"/>
<use href="#i-star" transform="translate(2040.0 382.5) rotate(-20.0) scale(0.7917) translate(-24 -24)" opacity="0.5"/>
<use href="#i-cactus" transform="translate(2295.0 255.0) rotate(10.0) scale(3.1875) translate(-24 -24)"/>
<use href="#i-sun" transform="translate(2422.5 382.5) rotate(0.0) scale(3.1875) translate(-24 -24)"/>
<use href="#i-star" transform="translate(2422.5 255.0) rotate(20.0) scale(0.7917) translate(-24 -24)" opacity="0.5"/>
<use href="#i-star" transform="translate(2295.0 382.5) rotate(5.0) scale(0.7917) translate(-24 -24)" opacity="0.5"/>
<use href="#i-cactus" transform="translate(2550.0 255.0) rotate(0.0) scale(3.1875) translate(-24 -24)"/>
<use href="#i-sun" transform="translate(2677.5 382.5) rotate(-5.0) scale(3.1875) translate(-24 -24)"/>
<use href="#i-star" transform="translate(2677.5 255.0) rotate(-15.0) scale(0.7917) translate(-24 -24)" opacity="0.5"/>
<use href="#i-star" transform="translate(2550.0 382.5) rotate(15.0) scale(0.7917) translate(-24 -24)" opacity="0.5"/>
<use href="#i-cactus" transform="translate(2805.0 255.0) rotate(10.0) scale(3.1875) translate(-24 -24)"/>
<use href="#i-sun" transform="translate(2932.5 382.5) rotate(-10.0) scale(3.1875) translate(-24 -24)"/>
<use href="#i-star" transform="translate(2932.5 255.0) rotate(-10.0) scale(0.7917) translate(-24 -24)" opacity="0.5"/>
<use href="#i-star" transform="translate(2805.0 382.5) rotate(10.0) scale(0.7917) translate(-24 -24)" opacity="0.5"/>
<use href="#i-cactus" transform="translate(3060.0 255.0) rotate(0.0) scale(3.1875) translate(-24 -24)"/>
<use href="#i-sun" transform="translate(3187.5 382.5) rotate(-5.0) scale(3.1875) translate(-24 -24)"/>
<use href="#i-star" transform="translate(3187.5 255.0) rotate(15.0) scale(0.7917) translate(-24 -24)" opacity="0.5"/>
<use href="#i-star" transform="translate(3060.0 382.5) rotate(15.0) scale(0.7917) translate(-24 -24)" opacity="0.5"/>
<use href="#i-cactus" transform="translate(3315.0 255.0) rotate(-5.0) scale(3.1875) translate(-24 -24)"/>
<use href="#i-sun" transform="translate(3442.5 382.5) rotate(0.0) scale(3.1875) translate(-24 -24)"/>
<use href="#i-star" transform="translate(3442.5 255.0) rotate(-25.0) scale(0.7917) translate(-24 -24)" opacity="0.5"/>
<use href="#i-star" transform="translate(3315.0 382.5) rotate(15.0) scale(0.7917) translate(-24 -24)" opacity="0.5"/>
<use href="#i-cactus" transform="translate(3570.0 255.0) rotate(-10.0) scale(3.1875) translate(-24 -24)"/>
<use href="#i-sun" transform="translate(3697.5 382.5) rotate(0.0) scale(3.1875) translate(-24 -24)"/>
<use href="#i-star" transform="translate(3697.5 255.0) rotate(-10.0) scale(0.7917) translate(-24 -24)" opacity="0.5"/>
<use href="#i-star" transform="translate(3570.0 382.5) rotate(-25.0) scale(0.7917) translate(-24 -24)" opacity="0.5"/>
<use href="#i-cactus" transform="translate(-510.0 510.0) rotate(-10.0) scale(3.1875) translate(-24 -24)"/>
<use href="#i-sun" transform="translate(-382.5 637.5) rotate(-5.0) scale(3.1875) translate(-24 -24)"/>
<use href="#i-star" transform="translate(-382.5 510.0) rotate(0.0) scale(0.7917) translate(-24 -24)" opacity="0.5"/>
<use href="#i-star" transform="translate(-510.0 637.5) rotate(-20.0) scale(0.7917) translate(-24 -24)" opacity="0.5"/>
<use href="#i-cactus" transform="translate(-255.0 510.0) rotate(5.0) scale(3.1875) translate(-24 -24)"/>
<use href="#i-sun" transform="translate(-127.5 637.5) rotate(5.0) scale(3.1875) translate(-24 -24)"/>
<use href="#i-star" transform="translate(-127.5 510.0) rotate(-25.0) scale(0.7917) translate(-24 -24)" opacity="0.5"/>
<use href="#i-star" transform="translate(-255.0 637.5) rotate(20.0) scale(0.7917) translate(-24 -24)" opacity="0.5"/>
<use href="#i-cactus" transform="translate(0.0 510.0) rotate(-5.0) scale(3.1875) translate(-24 -24)"/>
<use href="#i-sun" transform="translate(127.5 637.5) rotate(0.0) scale(3.1875) translate(-24 -24)"/>
<use href="#i-star" transform="translate(127.5 510.0) rotate(-20.0) scale(0.7917) translate(-24 -24)" opacity="0.5"/>
<use href="#i-star" transform="translate(0.0 637.5) rotate(-15.0) scale(0.7917) translate(-24 -24)" opacity="0.5"/>
<use href="#i-cactus" transform="translate(255.0 510.0) rotate(0.0) scale(3.1875) translate(-24 -24)"/>
<use href="#i-sun" transform="translate(382.5 637.5) rotate(5.0) scale(3.1875) translate(-24 -24)"/>
<use href="#i-star" transform="translate(382.5 510.0) rotate(-5.0) scale(0.7917) translate(-24 -24)" opacity="0.5"/>
<use href="#i-star" transform="translate(255.0 637.5) rotate(25.0) scale(0.7917) translate(-24 -24)" opacity="0.5"/>
<use href="#i-cactus" transform="translate(510.0 510.0) rotate(-5.0) scale(3.1875) translate(-24 -24)"/>
<use href="#i-sun" transform="translate(637.5 637.5) rotate(0.0) scale(3.1875) translate(-24 -24)"/>
<use href="#i-star" transform="translate(637.5 510.0) rotate(15.0) scale(0.7917) translate(-24 -24)" opacity="0.5"/>
<use href="#i-star" transform="translate(510.0 637.5) rotate(-15.0) scale(0.7917) translate(-24 -24)" opacity="0.5"/>
<use href="#i-cactus" transform="translate(765.0 510.0) rotate(5.0) scale(3.1875) translate(-24 -24)"/>
<use href="#i-sun" transform="translate(892.5 637.5) rotate(5.0) scale(3.1875) translate(-24 -24)"/>
<use href="#i-star" transform="translate(892.5 510.0) rotate(-10.0) scale(0.7917) translate(-24 -24)" opacity="0.5"/>
<use href="#i-star" transform="translate(765.0 637.5) rotate(20.0) scale(0.7917) translate(-24 -24)" opacity="0.5"/>
<use href="#i-cactus" transform="translate(1020.0 510.0) rotate(5.0) scale(3.1875) translate(-24 -24)"/>
<use href="#i-sun" transform="translate(1147.5 637.5) rotate(5.0) scale(3.1875) translate(-24 -24)"/>
<use href="#i-star" transform="translate(1147.5 510.0) rotate(-10.0) scale(0.7917) translate(-24 -24)" opacity="0.5"/>
<use href="#i-star" transform="translate(1020.0 637.5) rotate(5.0) scale(0.7917) translate(-24 -24)" opacity="0.5"/>
<use href="#i-cactus" transform="translate(1275.0 510.0) rotate(-10.0) scale(3.1875) translate(-24 -24)"/>
<use href="#i-sun" transform="translate(1402.5 637.5) rotate(-5.0) scale(3.1875) translate(-24 -24)"/>
<use href="#i-star" transform="translate(1402.5 510.0) rotate(20.0) scale(0.7917) translate(-24 -24)" opacity="0.5"/>
<use href="#i-star" transform="translate(1275.0 637.5) rotate(-5.0) scale(0.7917) translate(-24 -24)" opacity="0.5"/>
<use href="#i-cactus" transform="translate(1530.0 510.0) rotate(-5.0) scale(3.1875) translate(-24 -24)"/>
<use href="#i-sun" transform="translate(1657.5 637.5) rotate(-10.0) scale(3.1875) translate(-24 -24)"/>
<use href="#i-star" transform="translate(1657.5 510.0) rotate(-10.0) scale(0.7917) translate(-24 -24)" opacity="0.5"/>
<use href="#i-star" transform="translate(1530.0 637.5) rotate(-20.0) scale(0.7917) translate(-24 -24)" opacity="0.5"/>
<use href="#i-cactus" transform="translate(1785.0 510.0) rotate(0.0) scale(3.1875) translate(-24 -24)"/>
<use href="#i-sun" transform="translate(1912.5 637.5) rotate(-5.0) scale(3.1875) translate(-24 -24)"/>
<use href="#i-star" transform="translate(1912.5 510.0) rotate(15.0) scale(0.7917) translate(-24 -24)" opacity="0.5"/>
<use href="#i-star" transform="translate(1785.0 637.5) rotate(25.0) scale(0.7917) translate(-24 -24)" opacity="0.5"/>
<use href="#i-cactus" transform="translate(2040.0 510.0) rotate(0.0) scale(3.1875) translate(-24 -24)"/>
<use href="#i-sun" transform="translate(2167.5 637.5) rotate(5.0) scale(3.1875) translate(-24 -24)"/>
<use href="#i-star" transform="translate(2167.5 510.0) rotate(10.0) scale(0.7917) translate(-24 -24)" opacity="0.5"/>
<use href="#i-star" transform="translate(2040.0 637.5) rotate(5.0) scale(0.7917) translate(-24 -24)" opacity="0.5"/>
<use href="#i-cactus" transform="translate(2295.0 510.0) rotate(0.0) scale(3.1875) translate(-24 -24)"/>
<use href="#i-sun" transform="translate(2422.5 637.5) rotate(5.0) scale(3.1875) translate(-24 -24)"/>
<use href="#i-star" transform="translate(2422.5 510.0) rotate(-5.0) scale(0.7917) translate(-24 -24)" opacity="0.5"/>
<use href="#i-star" transform="translate(2295.0 637.5) rotate(5.0) scale(0.7917) translate(-24 -24)" opacity="0.5"/>
<use href="#i-cactus" transform="translate(2550.0 510.0) rotate(5.0) scale(3.1875) translate(-24 -24)"/>
<use href="#i-sun" transform="translate(2677.5 637.5) rotate(5.0) scale(3.1875) translate(-24 -24)"/>
<use href="#i-star" transform="translate(2677.5 510.0) rotate(20.0) scale(0.7917) translate(-24 -24)" opacity="0.5"/>
<use href="#i-star" transform="translate(2550.0 637.5) rotate(-20.0) scale(0.7917) translate(-24 -24)" opacity="0.5"/>
<use href="#i-cactus" transform="translate(2805.0 510.0) rotate(0.0) scale(3.1875) translate(-24 -24)"/>
<use href="#i-sun" transform="translate(2932.5 637.5) rotate(-5.0) scale(3.1875) translate(-24 -24)"/>
<use href="#i-star" transform="translate(2932.5 510.0) rotate(25.0) scale(0.7917) translate(-24 -24)" opacity="0.5"/>
<use href="#i-star" transform="translate(2805.0 637.5) rotate(-15.0) scale(0.7917) translate(-24 -24)" opacity="0.5"/>
<use href="#i-cactus" transform="translate(3060.0 510.0) rotate(5.0) scale(3.1875) translate(-24 -24)"/>
<use href="#i-sun" transform="translate(3187.5 637.5) rotate(-10.0) scale(3.1875) translate(-24 -24)"/>
<use href="#i-star" transform="translate(3187.5 510.0) rotate(-10.0) scale(0.7917) translate(-24 -24)" opacity="0.5"/>
<use href="#i-star" transform="translate(3060.0 637.5) rotate(-25.0) scale(0.7917) translate(-24 -24)" opacity="0.5"/>
<use href="#i-cactus" transform="translate(3315.0 510.0) rotate(5.0) scale(3.1875) translate(-24 -24)"/>
<use href="#i-sun" transform="translate(3442.5 637.5) rotate(5.0) scale(3.1875) translate(-24 -24)"/>
<use href="#i-star" transform="translate(3442.5 510.0) rotate(20.0) scale(0.7917) translate(-24 -24)" opacity="0.5"/>
<use href="#i-star" transform="translate(3315.0 637.5) rotate(20.0) scale(0.7917) translate(-24 -24)" opacity="0.5"/>
<use href="#i-cactus" transform="translate(3570.0 510.0) rotate(-5.0) scale(3.1875) translate(-24 -24)"/>
<use href="#i-sun" transform="translate(3697.5 637.5) rotate(5.0) scale(3.1875) translate(-24 -24)"/>
<use href="#i-star" transform="translate(3697.5 510.0) rotate(-5.0) scale(0.7917) translate(-24 -24)" opacity="0.5"/>
<use href="#i-star" transform="translate(3570.0 637.5) rotate(-10.0) scale(0.7917) translate(-24 -24)" opacity="0.5"/>
<use href="#i-cactus" transform="translate(-510.0 765.0) rotate(-10.0) scale(3.1875) translate(-24 -24)"/>
<use href="#i-sun" transform="translate(-382.5 892.5) rotate(-10.0) scale(3.1875) translate(-24 -24)"/>
<use href="#i-star" transform="translate(-382.5 765.0) rotate(0.0) scale(0.7917) translate(-24 -24)" opacity="0.5"/>
<use href="#i-star" transform="translate(-510.0 892.5) rotate(10.0) scale(0.7917) translate(-24 -24)" opacity="0.5"/>
<use href="#i-cactus" transform="translate(-255.0 765.0) rotate(10.0) scale(3.1875) translate(-24 -24)"/>
<use href="#i-sun" transform="translate(-127.5 892.5) rotate(0.0) scale(3.1875) translate(-24 -24)"/>
<use href="#i-star" transform="translate(-127.5 765.0) rotate(0.0) scale(0.7917) translate(-24 -24)" opacity="0.5"/>
<use href="#i-star" transform="translate(-255.0 892.5) rotate(20.0) scale(0.7917) translate(-24 -24)" opacity="0.5"/>
<use href="#i-cactus" transform="translate(0.0 765.0) rotate(0.0) scale(3.1875) translate(-24 -24)"/>
<use href="#i-sun" transform="translate(127.5 892.5) rotate(-10.0) scale(3.1875) translate(-24 -24)"/>
<use href="#i-star" transform="translate(127.5 765.0) rotate(20.0) scale(0.7917) translate(-24 -24)" opacity="0.5"/>
<use href="#i-star" transform="translate(0.0 892.5) rotate(10.0) scale(0.7917) translate(-24 -24)" opacity="0.5"/>
<use href="#i-cactus" transform="translate(255.0 765.0) rotate(0.0) scale(3.1875) translate(-24 -24)"/>
<use href="#i-sun" transform="translate(382.5 892.5) rotate(-5.0) scale(3.1875) translate(-24 -24)"/>
<use href="#i-star" transform="translate(382.5 765.0) rotate(-25.0) scale(0.7917) translate(-24 -24)" opacity="0.5"/>
<use href="#i-star" transform="translate(255.0 892.5) rotate(5.0) scale(0.7917) translate(-24 -24)" opacity="0.5"/>
<use href="#i-cactus" transform="translate(510.0 765.0) rotate(0.0) scale(3.1875) translate(-24 -24)"/>
<use href="#i-sun" transform="translate(637.5 892.5) rotate(0.0) scale(3.1875) translate(-24 -24)"/>
<use href="#i-star" transform="translate(637.5 765.0) rotate(20.0) scale(0.7917) translate(-24 -24)" opacity="0.5"/>
<use href="#i-star" transform="translate(510.0 892.5) rotate(0.0) scale(0.7917) translate(-24 -24)" opacity="0.5"/>
<use href="#i-cactus" transform="translate(765.0 765.0) rotate(5.0) scale(3.1875) translate(-24 -24)"/>
<use href="#i-sun" transform="translate(892.5 892.5) rotate(-5.0) scale(3.1875) translate(-24 -24)"/>
<use href="#i-star" transform="translate(892.5 765.0) rotate(-15.0) scale(0.7917) translate(-24 -24)" opacity="0.5"/>
<use href="#i-star" transform="translate(765.0 892.5) rotate(0.0) scale(0.7917) translate(-24 -24)" opacity="0.5"/>
<use href="#i-cactus" transform="translate(1020.0 765.0) rotate(-5.0) scale(3.1875) translate(-24 -24)"/>
<use href="#i-sun" transform="translate(1147.5 892.5) rotate(-10.0) scale(3.1875) translate(-24 -24)"/>
<use href="#i-star" transform="translate(1147.5 765.0) rotate(-10.0) scale(0.7917) translate(-24 -24)" opacity="0.5"/>
<use href="#i-star" transform="translate(1020.0 892.5) rotate(5.0) scale(0.7917) translate(-24 -24)" opacity="0.5"/>
<use href="#i-cactus" transform="translate(1275.0 765.0) rotate(10.0) scale(3.1875) translate(-24 -24)"/>
<use href="#i-sun" transform="translate(1402.5 892.5) rotate(-5.0) scale(3.1875) translate(-24 -24)"/>
<use href="#i-star" transform="translate(1402.5 765.0) rotate(-20.0) scale(0.7917) translate(-24 -24)" opacity="0.5"/>
<use href="#i-star" transform="translate(1275.0 892.5) rotate(20.0) scale(0.7917) translate(-24 -24)" opacity="0.5"/>
<use href="#i-cactus" transform="translate(1530.0 765.0) rotate(-5.0) scale(3.1875) translate(-24 -24)"/>
<use href="#i-sun" transform="translate(1657.5 892.5) rotate(10.0) scale(3.1875) translate(-24 -24)"/>
<use href="#i-star" transform="translate(1657.5 765.0) rotate(5.0) scale(0.7917) translate(-24 -24)" opacity="0.5"/>
<use href="#i-star" transform="translate(1530.0 892.5) rotate(-5.0) scale(0.7917) translate(-24 -24)" opacity="0.5"/>
<use href="#i-cactus" transform="translate(1785.0 765.0) rotate(-10.0) scale(3.1875) translate(-24 -24)"/>
<use href="#i-sun" transform="translate(1912.5 892.5) rotate(0.0) scale(3.1875) translate(-24 -24)"/>
<use href="#i-star" transform="translate(1912.5 765.0) rotate(-10.0) scale(0.7917) translate(-24 -24)" opacity="0.5"/>
<use href="#i-star" transform="translate(1785.0 892.5) rotate(10.0) scale(0.7917) translate(-24 -24)" opacity="0.5"/>
<use href="#i-cactus" transform="translate(2040.0 765.0) rotate(0.0) scale(3.1875) translate(-24 -24)"/>
<use href="#i-sun" transform="translate(2167.5 892.5) rotate(5.0) scale(3.1875) translate(-24 -24)"/>
<use href="#i-star" transform="translate(2167.5 765.0) rotate(15.0) scale(0.7917) translate(-24 -24)" opacity="0.5"/>
<use href="#i-star" transform="translate(2040.0 892.5) rotate(-15.0) scale(0.7917) translate(-24 -24)" opacity="0.5"/>
<use href="#i-cactus" transform="translate(2295.0 765.0) rotate(-10.0) scale(3.1875) translate(-24 -24)"/>
<use href="#i-sun" transform="translate(2422.5 892.5) rotate(-5.0) scale(3.1875) translate(-24 -24)"/>
<use href="#i-star" transform="translate(2422.5 765.0) rotate(20.0) scale(0.7917) translate(-24 -24)" opacity="0.5"/>
<use href="#i-star" transform="translate(2295.0 892.5) rotate(15.0) scale(0.7917) translate(-24 -24)" opacity="0.5"/>
<use href="#i-cactus" transform="translate(2550.0 765.0) rotate(0.0) scale(3.1875) translate(-24 -24)"/>
<use href="#i-sun" transform="translate(2677.5 892.5) rotate(0.0) scale(3.1875) translate(-24 -24)"/>
<use href="#i-star" transform="translate(2677.5 765.0) rotate(-10.0) scale(0.7917) translate(-24 -24)" opacity="0.5"/>
<use href="#i-star" transform="translate(2550.0 892.5) rotate(15.0) scale(0.7917) translate(-24 -24)" opacity="0.5"/>
<use href="#i-cactus" transform="translate(2805.0 765.0) rotate(-5.0) scale(3.1875) translate(-24 -24)"/>
<use href="#i-sun" transform="translate(2932.5 892.5) rotate(-10.0) scale(3.1875) translate(-24 -24)"/>
<use href="#i-star" transform="translate(2932.5 765.0) rotate(20.0) scale(0.7917) translate(-24 -24)" opacity="0.5"/>
<use href="#i-star" transform="translate(2805.0 892.5) rotate(-20.0) scale(0.7917) translate(-24 -24)" opacity="0.5"/>
<use href="#i-cactus" transform="translate(3060.0 765.0) rotate(5.0) scale(3.1875) translate(-24 -24)"/>
<use href="#i-sun" transform="translate(3187.5 892.5) rotate(0.0) scale(3.1875) translate(-24 -24)"/>
<use href="#i-star" transform="translate(3187.5 765.0) rotate(-10.0) scale(0.7917) translate(-24 -24)" opacity="0.5"/>
<use href="#i-star" transform="translate(3060.0 892.5) rotate(-20.0) scale(0.7917) translate(-24 -24)" opacity="0.5"/>
<use href="#i-cactus" transform="translate(3315.0 765.0) rotate(0.0) scale(3.1875) translate(-24 -24)"/>
<use href="#i-sun" transform="translate(3442.5 892.5) rotate(5.0) scale(3.1875) translate(-24 -24)"/>
<use href="#i-star" transform="translate(3442.5 765.0) rotate(15.0) scale(0.7917) translate(-24 -24)" opacity="0.5"/>
<use href="#i-star" transform="translate(3315.0 892.5) rotate(-10.0) scale(0.7917) translate(-24 -24)" opacity="0.5"/>
<use href="#i-cactus" transform="translate(3570.0 765.0) rotate(-10.0) scale(3.1875) translate(-24 -24)"/>
<use href="#i-sun" transform="translate(3697.5 892.5) rotate(5.0) scale(3.1875) translate(-24 -24)"/>
<use href="#i-star" transform="translate(3697.5 765.0) rotate(0.0) scale(0.7917) translate(-24 -24)" opacity="0.5"/>
<use href="#i-star" transform="translate(3570.0 892.5) rotate(20.0) scale(0.7917) translate(-24 -24)" opacity="0.5"/>
<use href="#i-cactus" transform="translate(-510.0 1020.0) rotate(5.0) scale(3.1875) translate(-24 -24)"/>
<use href="#i-sun" transform="translate(-382.5 1147.5) rotate(5.0) scale(3.1875) translate(-24 -24)"/>
<use href="#i-star" transform="translate(-382.5 1020.0) rotate(20.0) scale(0.7917) translate(-24 -24)" opacity="0.5"/>
<use href="#i-star" transform="translate(-510.0 1147.5) rotate(0.0) scale(0.7917) translate(-24 -24)" opacity="0.5"/>
<use href="#i-cactus" transform="translate(-255.0 1020.0) rotate(5.0) scale(3.1875) translate(-24 -24)"/>
<use href="#i-sun" transform="translate(-127.5 1147.5) rotate(10.0) scale(3.1875) translate(-24 -24)"/>
<use href="#i-star" transform="translate(-127.5 1020.0) rotate(-15.0) scale(0.7917) translate(-24 -24)" opacity="0.5"/>
<use href="#i-star" transform="translate(-255.0 1147.5) rotate(-5.0) scale(0.7917) translate(-24 -24)" opacity="0.5"/>
<use href="#i-cactus" transform="translate(0.0 1020.0) rotate(-5.0) scale(3.1875) translate(-24 -24)"/>
<use href="#i-sun" transform="translate(127.5 1147.5) rotate(-5.0) scale(3.1875) translate(-24 -24)"/>
<use href="#i-star" transform="translate(127.5 1020.0) rotate(15.0) scale(0.7917) translate(-24 -24)" opacity="0.5"/>
<use href="#i-star" transform="translate(0.0 1147.5) rotate(0.0) scale(0.7917) translate(-24 -24)" opacity="0.5"/>
<use href="#i-cactus" transform="translate(255.0 1020.0) rotate(-10.0) scale(3.1875) translate(-24 -24)"/>
<use href="#i-sun" transform="translate(382.5 1147.5) rotate(-5.0) scale(3.1875) translate(-24 -24)"/>
<use href="#i-star" transform="translate(382.5 1020.0) rotate(-20.0) scale(0.7917) translate(-24 -24)" opacity="0.5"/>
<use href="#i-star" transform="translate(255.0 1147.5) rotate(0.0) scale(0.7917) translate(-24 -24)" opacity="0.5"/>
<use href="#i-cactus" transform="translate(510.0 1020.0) rotate(5.0) scale(3.1875) translate(-24 -24)"/>
<use href="#i-sun" transform="translate(637.5 1147.5) rotate(5.0) scale(3.1875) translate(-24 -24)"/>
<use href="#i-star" transform="translate(637.5 1020.0) rotate(20.0) scale(0.7917) translate(-24 -24)" opacity="0.5"/>
<use href="#i-star" transform="translate(510.0 1147.5) rotate(-20.0) scale(0.7917) translate(-24 -24)" opacity="0.5"/>
<use href="#i-cactus" transform="translate(765.0 1020.0) rotate(-5.0) scale(3.1875) translate(-24 -24)"/>
<use href="#i-sun" transform="translate(892.5 1147.5) rotate(-5.0) scale(3.1875) translate(-24 -24)"/>
<use href="#i-star" transform="translate(892.5 1020.0) rotate(25.0) scale(0.7917) translate(-24 -24)" opacity="0.5"/>
<use href="#i-star" transform="translate(765.0 1147.5) rotate(20.0) scale(0.7917) translate(-24 -24)" opacity="0.5"/>
<use href="#i-cactus" transform="translate(1020.0 1020.0) rotate(-5.0) scale(3.1875) translate(-24 -24)"/>
<use href="#i-sun" transform="translate(1147.5 1147.5) rotate(0.0) scale(3.1875) translate(-24 -24)"/>
<use href="#i-star" transform="translate(1147.5 1020.0) rotate(20.0) scale(0.7917) translate(-24 -24)" opacity="0.5"/>
<use href="#i-star" transform="translate(1020.0 1147.5) rotate(20.0) scale(0.7917) translate(-24 -24)" opacity="0.5"/>
<use href="#i-cactus" transform="translate(1275.0 1020.0) rotate(10.0) scale(3.1875) translate(-24 -24)"/>
<use href="#i-sun" transform="translate(1402.5 1147.5) rotate(0.0) scale(3.1875) translate(-24 -24)"/>
<use href="#i-star" transform="translate(1402.5 1020.0) rotate(5.0) scale(0.7917) translate(-24 -24)" opacity="0.5"/>
<use href="#i-star" transform="translate(1275.0 1147.5) rotate(-15.0) scale(0.7917) translate(-24 -24)" opacity="0.5"/>
<use href="#i-cactus" transform="translate(1530.0 1020.0) rotate(0.0) scale(3.1875) translate(-24 -24)"/>
<use href="#i-sun" transform="translate(1657.5 1147.5) rotate(5.0) scale(3.1875) translate(-24 -24)"/>
<use href="#i-star" transform="translate(1657.5 1020.0) rotate(-5.0) scale(0.7917) translate(-24 -24)" opacity="0.5"/>
<use href="#i-star" transform="translate(1530.0 1147.5) rotate(20.0) scale(0.7917) translate(-24 -24)" opacity="0.5"/>
<use href="#i-cactus" transform="translate(1785.0 1020.0) rotate(10.0) scale(3.1875) translate(-24 -24)"/>
<use href="#i-sun" transform="translate(1912.5 1147.5) rotate(-5.0) scale(3.1875) translate(-24 -24)"/>
<use href="#i-star" transform="translate(1912.5 1020.0) rotate(15.0) scale(0.7917) translate(-24 -24)" opacity="0.5"/>
<use href="#i-star" transform="translate(1785.0 1147.5) rotate(-5.0) scale(0.7917) translate(-24 -24)" opacity="0.5"/>
<use href="#i-cactus" transform="translate(2040.0 1020.0) rotate(5.0) scale(3.1875) translate(-24 -24)"/>
<use href="#i-sun" transform="translate(2167.5 1147.5) rotate(5.0) scale(3.1875) translate(-24 -24)"/>
<use href="#i-star" transform="translate(2167.5 1020.0) rotate(0.0) scale(0.7917) translate(-24 -24)" opacity="0.5"/>
<use href="#i-star" transform="translate(2040.0 1147.5) rotate(-20.0) scale(0.7917) translate(-24 -24)" opacity="0.5"/>
<use href="#i-cactus" transform="translate(2295.0 1020.0) rotate(0.0) scale(3.1875) translate(-24 -24)"/>
<use href="#i-sun" transform="translate(2422.5 1147.5) rotate(5.0) scale(3.1875) translate(-24 -24)"/>
<use href="#i-star" transform="translate(2422.5 1020.0) rotate(-15.0) scale(0.7917) translate(-24 -24)" opacity="0.5"/>
<use href="#i-star" transform="translate(2295.0 1147.5) rotate(0.0) scale(0.7917) translate(-24 -24)" opacity="0.5"/>
<use href="#i-cactus" transform="translate(2550.0 1020.0) rotate(0.0) scale(3.1875) translate(-24 -24)"/>
<use href="#i-sun" transform="translate(2677.5 1147.5) rotate(5.0) scale(3.1875) translate(-24 -24)"/>
<use href="#i-star" transform="translate(2677.5 1020.0) rotate(25.0) scale(0.7917) translate(-24 -24)" opacity="0.5"/>
<use href="#i-star" transform="translate(2550.0 1147.5) rotate(15.0) scale(0.7917) translate(-24 -24)" opacity="0.5"/>
<use href="#i-cactus" transform="translate(2805.0 1020.0) rotate(5.0) scale(3.1875) translate(-24 -24)"/>
<use href="#i-sun" transform="translate(2932.5 1147.5) rotate(0.0) scale(3.1875) translate(-24 -24)"/>
<use href="#i-star" transform="translate(2932.5 1020.0) rotate(-10.0) scale(0.7917) translate(-24 -24)" opacity="0.5"/>
<use href="#i-star" transform="translate(2805.0 1147.5) rotate(5.0) scale(0.7917) translate(-24 -24)" opacity="0.5"/>
<use href="#i-cactus" transform="translate(3060.0 1020.0) rotate(-10.0) scale(3.1875) translate(-24 -24)"/>
<use href="#i-sun" transform="translate(3187.5 1147.5) rotate(10.0) scale(3.1875) translate(-24 -24)"/>
<use href="#i-star" transform="translate(3187.5 1020.0) rotate(-5.0) scale(0.7917) translate(-24 -24)" opacity="0.5"/>
<use href="#i-star" transform="translate(3060.0 1147.5) rotate(-25.0) scale(0.7917) translate(-24 -24)" opacity="0.5"/>
<use href="#i-cactus" transform="translate(3315.0 1020.0) rotate(-10.0) scale(3.1875) translate(-24 -24)"/>
<use href="#i-sun" transform="translate(3442.5 1147.5) rotate(0.0) scale(3.1875) translate(-24 -24)"/>
<use href="#i-star" transform="translate(3442.5 1020.0) rotate(15.0) scale(0.7917) translate(-24 -24)" opacity="0.5"/>
<use href="#i-star" transform="translate(3315.0 1147.5) rotate(0.0) scale(0.7917) translate(-24 -24)" opacity="0.5"/>
<use href="#i-cactus" transform="translate(3570.0 1020.0) rotate(-10.0) scale(3.1875) translate(-24 -24)"/>
<use href="#i-sun" transform="translate(3697.5 1147.5) rotate(10.0) scale(3.1875) translate(-24 -24)"/>
<use href="#i-star" transform="translate(3697.5 1020.0) rotate(20.0) scale(0.7917) translate(-24 -24)" opacity="0.5"/>
<use href="#i-star" transform="translate(3570.0 1147.5) rotate(10.0) scale(0.7917) translate(-24 -24)" opacity="0.5"/>
<use href="#i-cactus" transform="translate(-510.0 1275.0) rotate(5.0) scale(3.1875) translate(-24 -24)"/>
<use href="#i-sun" transform="translate(-382.5 1402.5) rotate(-10.0) scale(3.1875) translate(-24 -24)"/>
<use href="#i-star" transform="translate(-382.5 1275.0) rotate(-15.0) scale(0.7917) translate(-24 -24)" opacity="0.5"/>
<use href="#i-star" transform="translate(-510.0 1402.5) rotate(-15.0) scale(0.7917) translate(-24 -24)" opacity="0.5"/>
<use href="#i-cactus" transform="translate(-255.0 1275.0) rotate(-10.0) scale(3.1875) translate(-24 -24)"/>
<use href="#i-sun" transform="translate(-127.5 1402.5) rotate(0.0) scale(3.1875) translate(-24 -24)"/>
<use href="#i-star" transform="translate(-127.5 1275.0) rotate(20.0) scale(0.7917) translate(-24 -24)" opacity="0.5"/>
<use href="#i-star" transform="translate(-255.0 1402.5) rotate(-10.0) scale(0.7917) translate(-24 -24)" opacity="0.5"/>
<use href="#i-cactus" transform="translate(0.0 1275.0) rotate(-5.0) scale(3.1875) translate(-24 -24)"/>
<use href="#i-sun" transform="translate(127.5 1402.5) rotate(0.0) scale(3.1875) translate(-24 -24)"/>
<use href="#i-star" transform="translate(127.5 1275.0) rotate(5.0) scale(0.7917) translate(-24 -24)" opacity="0.5"/>
<use href="#i-star" transform="translate(0.0 1402.5) rotate(-10.0) scale(0.7917) translate(-24 -24)" opacity="0.5"/>
<use href="#i-cactus" transform="translate(255.0 1275.0) rotate(5.0) scale(3.1875) translate(-24 -24)"/>
<use href="#i-sun" transform="translate(382.5 1402.5) rotate(-5.0) scale(3.1875) translate(-24 -24)"/>
<use href="#i-star" transform="translate(382.5 1275.0) rotate(15.0) scale(0.7917) translate(-24 -24)" opacity="0.5"/>
<use href="#i-star" transform="translate(255.0 1402.5) rotate(20.0) scale(0.7917) translate(-24 -24)" opacity="0.5"/>
<use href="#i-cactus" transform="translate(510.0 1275.0) rotate(0.0) scale(3.1875) translate(-24 -24)"/>
<use href="#i-sun" transform="translate(637.5 1402.5) rotate(5.0) scale(3.1875) translate(-24 -24)"/>
<use href="#i-star" transform="translate(637.5 1275.0) rotate(-25.0) scale(0.7917) translate(-24 -24)" opacity="0.5"/>
<use href="#i-star" transform="translate(510.0 1402.5) rotate(-25.0) scale(0.7917) translate(-24 -24)" opacity="0.5"/>
<use href="#i-cactus" transform="translate(765.0 1275.0) rotate(0.0) scale(3.1875) translate(-24 -24)"/>
<use href="#i-sun" transform="translate(892.5 1402.5) rotate(10.0) scale(3.1875) translate(-24 -24)"/>
<use href="#i-star" transform="translate(892.5 1275.0) rotate(0.0) scale(0.7917) translate(-24 -24)" opacity="0.5"/>
<use href="#i-star" transform="translate(765.0 1402.5) rotate(25.0) scale(0.7917) translate(-24 -24)" opacity="0.5"/>
<use href="#i-cactus" transform="translate(1020.0 1275.0) rotate(-10.0) scale(3.1875) translate(-24 -24)"/>
<use href="#i-sun" transform="translate(1147.5 1402.5) rotate(0.0) scale(3.1875) translate(-24 -24)"/>
<use href="#i-star" transform="translate(1147.5 1275.0) rotate(-5.0) scale(0.7917) translate(-24 -24)" opacity="0.5"/>
<use href="#i-star" transform="translate(1020.0 1402.5) rotate(-15.0) scale(0.7917) translate(-24 -24)" opacity="0.5"/>
<use href="#i-cactus" transform="translate(1275.0 1275.0) rotate(5.0) scale(3.1875) translate(-24 -24)"/>
<use href="#i-sun" transform="translate(1402.5 1402.5) rotate(0.0) scale(3.1875) translate(-24 -24)"/>
<use href="#i-star" transform="translate(1402.5 1275.0) rotate(-25.0) scale(0.7917) translate(-24 -24)" opacity="0.5"/>
<use href="#i-star" transform="translate(1275.0 1402.5) rotate(10.0) scale(0.7917) translate(-24 -24)" opacity="0.5"/>
<use href="#i-cactus" transform="translate(1530.0 1275.0) rotate(-10.0) scale(3.1875) translate(-24 -24)"/>
<use href="#i-sun" transform="translate(1657.5 1402.5) rotate(-10.0) scale(3.1875) translate(-24 -24)"/>
<use href="#i-star" transform="translate(1657.5 1275.0) rotate(15.0) scale(0.7917) translate(-24 -24)" opacity="0.5"/>
<use href="#i-star" transform="translate(1530.0 1402.5) rotate(20.0) scale(0.7917) translate(-24 -24)" opacity="0.5"/>
<use href="#i-cactus" transform="translate(1785.0 1275.0) rotate(-10.0) scale(3.1875) translate(-24 -24)"/>
<use href="#i-sun" transform="translate(1912.5 1402.5) rotate(0.0) scale(3.1875) translate(-24 -24)"/>
<use href="#i-star" transform="translate(1912.5 1275.0) rotate(20.0) scale(0.7917) translate(-24 -24)" opacity="0.5"/>
<use href="#i-star" transform="translate(1785.0 1402.5) rotate(0.0) scale(0.7917) translate(-24 -24)" opacity="0.5"/>
<use href="#i-cactus" transform="translate(2040.0 1275.0) rotate(0.0) scale(3.1875) translate(-24 -24)"/>
<use href="#i-sun" transform="translate(2167.5 1402.5) rotate(5.0) scale(3.1875) translate(-24 -24)"/>
<use href="#i-star" transform="translate(2167.5 1275.0) rotate(-10.0) scale(0.7917) translate(-24 -24)" opacity="0.5"/>
<use href="#i-star" transform="translate(2040.0 1402.5) rotate(20.0) scale(0.7917) translate(-24 -24)" opacity="0.5"/>
<use href="#i-cactus" transform="translate(2295.0 1275.0) rotate(5.0) scale(3.1875) translate(-24 -24)"/>
<use href="#i-sun" transform="translate(2422.5 1402.5) rotate(10.0) scale(3.1875) translate(-24 -24)"/>
<use href="#i-star" transform="translate(2422.5 1275.0) rotate(-20.0) scale(0.7917) translate(-24 -24)" opacity="0.5"/>
<use href="#i-star" transform="translate(2295.0 1402.5) rotate(5.0) scale(0.7917) translate(-24 -24)" opacity="0.5"/>
<use href="#i-cactus" transform="translate(2550.0 1275.0) rotate(-5.0) scale(3.1875) translate(-24 -24)"/>
<use href="#i-sun" transform="translate(2677.5 1402.5) rotate(0.0) scale(3.1875) translate(-24 -24)"/>
<use href="#i-star" transform="translate(2677.5 1275.0) rotate(20.0) scale(0.7917) translate(-24 -24)" opacity="0.5"/>
<use href="#i-star" transform="translate(2550.0 1402.5) rotate(-5.0) scale(0.7917) translate(-24 -24)" opacity="0.5"/>
<use href="#i-cactus" transform="translate(2805.0 1275.0) rotate(0.0) scale(3.1875) translate(-24 -24)"/>
<use href="#i-sun" transform="translate(2932.5 1402.5) rotate(0.0) scale(3.1875) translate(-24 -24)"/>
<use href="#i-star" transform="translate(2932.5 1275.0) rotate(-15.0) scale(0.7917) translate(-24 -24)" opacity="0.5"/>
<use href="#i-star" transform="translate(2805.0 1402.5) rotate(-5.0) scale(0.7917) translate(-24 -24)" opacity="0.5"/>
<use href="#i-cactus" transform="translate(3060.0 1275.0) rotate(-10.0) scale(3.1875) translate(-24 -24)"/>
<use href="#i-sun" transform="translate(3187.5 1402.5) rotate(-5.0) scale(3.1875) translate(-24 -24)"/>
<use href="#i-star" transform="translate(3187.5 1275.0) rotate(-10.0) scale(0.7917) translate(-24 -24)" opacity="0.5"/>
<use href="#i-star" transform="translate(3060.0 1402.5) rotate(-5.0) scale(0.7917) translate(-24 -24)" opacity="0.5"/>
<use href="#i-cactus" transform="translate(3315.0 1275.0) rotate(-10.0) scale(3.1875) translate(-24 -24)"/>
<use href="#i-sun" transform="translate(3442.5 1402.5) rotate(-10.0) scale(3.1875) translate(-24 -24)"/>
<use href="#i-star" transform="translate(3442.5 1275.0) rotate(20.0) scale(0.7917) translate(-24 -24)" opacity="0.5"/>
<use href="#i-star" transform="translate(3315.0 1402.5) rotate(-15.0) scale(0.7917) translate(-24 -24)" opacity="0.5"/>
<use href="#i-cactus" transform="translate(3570.0 1275.0) rotate(0.0) scale(3.1875) translate(-24 -24)"/>
<use href="#i-sun" transform="translate(3697.5 1402.5) rotate(5.0) scale(3.1875) translate(-24 -24)"/>
<use href="#i-star" transform="translate(3697.5 1275.0) rotate(5.0) scale(0.7917) translate(-24 -24)" opacity="0.5"/>
<use href="#i-star" transform="translate(3570.0 1402.5) rotate(-5.0) scale(0.7917) translate(-24 -24)" opacity="0.5"/>
<use href="#i-cactus" transform="translate(-510.0 1530.0) rotate(5.0) scale(3.1875) translate(-24 -24)"/>
<use href="#i-sun" transform="translate(-382.5 1657.5) rotate(-5.0) scale(3.1875) translate(-24 -24)"/>
<use href="#i-star" transform="translate(-382.5 1530.0) rotate(20.0) scale(0.7917) translate(-24 -24)" opacity="0.5"/>
<use href="#i-star" transform="translate(-510.0 1657.5) rotate(20.0) scale(0.7917) translate(-24 -24)" opacity="0.5"/>
<use href="#i-cactus" transform="translate(-255.0 1530.0) rotate(5.0) scale(3.1875) translate(-24 -24)"/>
<use href="#i-sun" transform="translate(-127.5 1657.5) rotate(5.0) scale(3.1875) translate(-24 -24)"/>
<use href="#i-star" transform="translate(-127.5 1530.0) rotate(25.0) scale(0.7917) translate(-24 -24)" opacity="0.5"/>
<use href="#i-star" transform="translate(-255.0 1657.5) rotate(-20.0) scale(0.7917) translate(-24 -24)" opacity="0.5"/>
<use href="#i-cactus" transform="translate(0.0 1530.0) rotate(-10.0) scale(3.1875) translate(-24 -24)"/>
<use href="#i-sun" transform="translate(127.5 1657.5) rotate(-10.0) scale(3.1875) translate(-24 -24)"/>
<use href="#i-star" transform="translate(127.5 1530.0) rotate(0.0) scale(0.7917) translate(-24 -24)" opacity="0.5"/>
<use href="#i-star" transform="translate(0.0 1657.5) rotate(20.0) scale(0.7917) translate(-24 -24)" opacity="0.5"/>
<use href="#i-cactus" transform="translate(255.0 1530.0) rotate(10.0) scale(3.1875) translate(-24 -24)"/>
<use href="#i-sun" transform="translate(382.5 1657.5) rotate(0.0) scale(3.1875) translate(-24 -24)"/>
<use href="#i-star" transform="translate(382.5 1530.0) rotate(-15.0) scale(0.7917) translate(-24 -24)" opacity="0.5"/>
<use href="#i-star" transform="translate(255.0 1657.5) rotate(25.0) scale(0.7917) translate(-24 -24)" opacity="0.5"/>
<use href="#i-cactus" transform="translate(510.0 1530.0) rotate(0.0) scale(3.1875) translate(-24 -24)"/>
<use href="#i-sun" transform="translate(637.5 1657.5) rotate(-5.0) scale(3.1875) translate(-24 -24)"/>
<use href="#i-star" transform="translate(637.5 1530.0) rotate(-10.0) scale(0.7917) translate(-24 -24)" opacity="0.5"/>
<use href="#i-star" transform="translate(510.0 1657.5) rotate(10.0) scale(0.7917) translate(-24 -24)" opacity="0.5"/>
<use href="#i-cactus" transform="translate(765.0 1530.0) rotate(-5.0) scale(3.1875) translate(-24 -24)"/>
<use href="#i-sun" transform="translate(892.5 1657.5) rotate(0.0) scale(3.1875) translate(-24 -24)"/>
<use href="#i-star" transform="translate(892.5 1530.0) rotate(10.0) scale(0.7917) translate(-24 -24)" opacity="0.5"/>
<use href="#i-star" transform="translate(765.0 1657.5) rotate(-15.0) scale(0.7917) translate(-24 -24)" opacity="0.5"/>
<use href="#i-cactus" transform="translate(1020.0 1530.0) rotate(-5.0) scale(3.1875) translate(-24 -24)"/>
<use href="#i-sun" transform="translate(1147.5 1657.5) rotate(-5.0) scale(3.1875) translate(-24 -24)"/>
<use href="#i-star" transform="translate(1147.5 1530.0) rotate(-5.0) scale(0.7917) translate(-24 -24)" opacity="0.5"/>
<use href="#i-star" transform="translate(1020.0 1657.5) rotate(-20.0) scale(0.7917) translate(-24 -24)" opacity="0.5"/>
<use href="#i-cactus" transform="translate(1275.0 1530.0) rotate(10.0) scale(3.1875) translate(-24 -24)"/>
<use href="#i-sun" transform="translate(1402.5 1657.5) rotate(10.0) scale(3.1875) translate(-24 -24)"/>
<use href="#i-star" transform="translate(1402.5 1530.0) rotate(20.0) scale(0.7917) translate(-24 -24)" opacity="0.5"/>
<use href="#i-star" transform="translate(1275.0 1657.5) rotate(10.0) scale(0.7917) translate(-24 -24)" opacity="0.5"/>
<use href="#i-cactus" transform="translate(1530.0 1530.0) rotate(5.0) scale(3.1875) translate(-24 -24)"/>
<use href="#i-sun" transform="translate(1657.5 1657.5) rotate(0.0) scale(3.1875) translate(-24 -24)"/>
<use href="#i-star" transform="translate(1657.5 1530.0) rotate(-20.0) scale(0.7917) translate(-24 -24)" opacity="0.5"/>
<use href="#i-star" transform="translate(1530.0 1657.5) rotate(0.0) scale(0.7917) translate(-24 -24)" opacity="0.5"/>
<use href="#i-cactus" transform="translate(1785.0 1530.0) rotate(-10.0) scale(3.1875) translate(-24 -24)"/>
<use href="#i-sun" transform="translate(1912.5 1657.5) rotate(-10.0) scale(3.1875) translate(-24 -24)"/>
<use href="#i-star" transform="translate(1912.5 1530.0) rotate(10.0) scale(0.7917) translate(-24 -24)" opacity="0.5"/>
<use href="#i-star" transform="translate(1785.0 1657.5) rotate(0.0) scale(0.7917) translate(-24 -24)" opacity="0.5"/>
<use href="#i-cactus" transform="translate(2040.0 1530.0) rotate(0.0) scale(3.1875) translate(-24 -24)"/>
<use href="#i-sun" transform="translate(2167.5 1657.5) rotate(-10.0) scale(3.1875) translate(-24 -24)"/>
<use href="#i-star" transform="translate(2167.5 1530.0) rotate(5.0) scale(0.7917) translate(-24 -24)" opacity="0.5"/>
<use href="#i-star" transform="translate(2040.0 1657.5) rotate(5.0) scale(0.7917) translate(-24 -24)" opacity="0.5"/>
<use href="#i-cactus" transform="translate(2295.0 1530.0) rotate(0.0) scale(3.1875) translate(-24 -24)"/>
<use href="#i-sun" transform="translate(2422.5 1657.5) rotate(0.0) scale(3.1875) translate(-24 -24)"/>
<use href="#i-star" transform="translate(2422.5 1530.0) rotate(-15.0) scale(0.7917) translate(-24 -24)" opacity="0.5"/>
<use href="#i-star" transform="translate(2295.0 1657.5) rotate(-25.0) scale(0.7917) translate(-24 -24)" opacity="0.5"/>
<use href="#i-cactus" transform="translate(2550.0 1530.0) rotate(-5.0) scale(3.1875) translate(-24 -24)"/>
<use href="#i-sun" transform="translate(2677.5 1657.5) rotate(-5.0) scale(3.1875) translate(-24 -24)"/>
<use href="#i-star" transform="translate(2677.5 1530.0) rotate(15.0) scale(0.7917) translate(-24 -24)" opacity="0.5"/>
<use href="#i-star" transform="translate(2550.0 1657.5) rotate(5.0) scale(0.7917) translate(-24 -24)" opacity="0.5"/>
<use href="#i-cactus" transform="translate(2805.0 1530.0) rotate(5.0) scale(3.1875) translate(-24 -24)"/>
<use href="#i-sun" transform="translate(2932.5 1657.5) rotate(0.0) scale(3.1875) translate(-24 -24)"/>
<use href="#i-star" transform="translate(2932.5 1530.0) rotate(5.0) scale(0.7917) translate(-24 -24)" opacity="0.5"/>
<use href="#i-star" transform="translate(2805.0 1657.5) rotate(15.0) scale(0.7917) translate(-24 -24)" opacity="0.5"/>
<use href="#i-cactus" transform="translate(3060.0 1530.0) rotate(10.0) scale(3.1875) translate(-24 -24)"/>
<use href="#i-sun" transform="translate(3187.5 1657.5) rotate(-5.0) scale(3.1875) translate(-24 -24)"/>
<use href="#i-star" transform="translate(3187.5 1530.0) rotate(-5.0) scale(0.7917) translate(-24 -24)" opacity="0.5"/>
<use href="#i-star" transform="translate(3060.0 1657.5) rotate(20.0) scale(0.7917) translate(-24 -24)" opacity="0.5"/>
<use href="#i-cactus" transform="translate(3315.0 1530.0) rotate(5.0) scale(3.1875) translate(-24 -24)"/>
<use href="#i-sun" transform="translate(3442.5 1657.5) rotate(-10.0) scale(3.1875) translate(-24 -24)"/>
<use href="#i-star" transform="translate(3442.5 1530.0) rotate(-20.0) scale(0.7917) translate(-24 -24)" opacity="0.5"/>
<use href="#i-star" transform="translate(3315.0 1657.5) rotate(-5.0) scale(0.7917) translate(-24 -24)" opacity="0.5"/>
<use href="#i-cactus" transform="translate(3570.0 1530.0) rotate(10.0) scale(3.1875) translate(-24 -24)"/>
<use href="#i-sun" transform="translate(3697.5 1657.5) rotate(-10.0) scale(3.1875) translate(-24 -24)"/>
<use href="#i-star" transform="translate(3697.5 1530.0) rotate(0.0) scale(0.7917) translate(-24 -24)" opacity="0.5"/>
<use href="#i-star" transform="translate(3570.0 1657.5) rotate(10.0) scale(0.7917) translate(-24 -24)" opacity="0.5"/>
<use href="#i-cactus" transform="translate(-510.0 1785.0) rotate(5.0) scale(3.1875) translate(-24 -24)"/>
<use href="#i-sun" transform="translate(-382.5 1912.5) rotate(0.0) scale(3.1875) translate(-24 -24)"/>
<use href="#i-star" transform="translate(-382.5 1785.0) rotate(-5.0) scale(0.7917) translate(-24 -24)" opacity="0.5"/>
<use href="#i-star" transform="translate(-510.0 1912.5) rotate(-15.0) scale(0.7917) translate(-24 -24)" opacity="0.5"/>
<use href="#i-cactus" transform="translate(-255.0 1785.0) rotate(10.0) scale(3.1875) translate(-24 -24)"/>
<use href="#i-sun" transform="translate(-127.5 1912.5) rotate(-5.0) scale(3.1875) translate(-24 -24)"/>
<use href="#i-star" transform="translate(-127.5 1785.0) rotate(15.0) scale(0.7917) translate(-24 -24)" opacity="0.5"/>
<use href="#i-star" transform="translate(-255.0 1912.5) rotate(-15.0) scale(0.7917) translate(-24 -24)" opacity="0.5"/>
<use href="#i-cactus" transform="translate(0.0 1785.0) rotate(-10.0) scale(3.1875) translate(-24 -24)"/>
<use href="#i-sun" transform="translate(127.5 1912.5) rotate(-5.0) scale(3.1875) translate(-24 -24)"/>
<use href="#i-star" transform="translate(127.5 1785.0) rotate(5.0) scale(0.7917) translate(-24 -24)" opacity="0.5"/>
<use href="#i-star" transform="translate(0.0 1912.5) rotate(-25.0) scale(0.7917) translate(-24 -24)" opacity="0.5"/>
<use href="#i-cactus" transform="translate(255.0 1785.0) rotate(-10.0) scale(3.1875) translate(-24 -24)"/>
<use href="#i-sun" transform="translate(382.5 1912.5) rotate(5.0) scale(3.1875) translate(-24 -24)"/>
<use href="#i-star" transform="translate(382.5 1785.0) rotate(-15.0) scale(0.7917) translate(-24 -24)" opacity="0.5"/>
<use href="#i-star" transform="translate(255.0 1912.5) rotate(-15.0) scale(0.7917) translate(-24 -24)" opacity="0.5"/>
<use href="#i-cactus" transform="translate(510.0 1785.0) rotate(-5.0) scale(3.1875) translate(-24 -24)"/>
<use href="#i-sun" transform="translate(637.5 1912.5) rotate(5.0) scale(3.1875) translate(-24 -24)"/>
<use href="#i-star" transform="translate(637.5 1785.0) rotate(5.0) scale(0.7917) translate(-24 -24)" opacity="0.5"/>
<use href="#i-star" transform="translate(510.0 1912.5) rotate(20.0) scale(0.7917) translate(-24 -24)" opacity="0.5"/>
<use href="#i-cactus" transform="translate(765.0 1785.0) rotate(0.0) scale(3.1875) translate(-24 -24)"/>
<use href="#i-sun" transform="translate(892.5 1912.5) rotate(-5.0) scale(3.1875) translate(-24 -24)"/>
<use href="#i-star" transform="translate(892.5 1785.0) rotate(5.0) scale(0.7917) translate(-24 -24)" opacity="0.5"/>
<use href="#i-star" transform="translate(765.0 1912.5) rotate(20.0) scale(0.7917) translate(-24 -24)" opacity="0.5"/>
<use href="#i-cactus" transform="translate(1020.0 1785.0) rotate(-10.0) scale(3.1875) translate(-24 -24)"/>
<use href="#i-sun" transform="translate(1147.5 1912.5) rotate(-10.0) scale(3.1875) translate(-24 -24)"/>
<use href="#i-star" transform="translate(1147.5 1785.0) rotate(25.0) scale(0.7917) translate(-24 -24)" opacity="0.5"/>
<use href="#i-star" transform="translate(1020.0 1912.5) rotate(-5.0) scale(0.7917) translate(-24 -24)" opacity="0.5"/>
<use href="#i-cactus" transform="translate(1275.0 1785.0) rotate(5.0) scale(3.1875) translate(-24 -24)"/>
<use href="#i-sun" transform="translate(1402.5 1912.5) rotate(5.0) scale(3.1875) translate(-24 -24)"/>
<use href="#i-star" transform="translate(1402.5 1785.0) rotate(5.0) scale(0.7917) translate(-24 -24)" opacity="0.5"/>
<use href="#i-star" transform="translate(1275.0 1912.5) rotate(-20.0) scale(0.7917) translate(-24 -24)" opacity="0.5"/>
<use href="#i-cactus" transform="translate(1530.0 1785.0) rotate(0.0) scale(3.1875) translate(-24 -24)"/>
<use href="#i-sun" transform="translate(1657.5 1912.5) rotate(5.0) scale(3.1875) translate(-24 -24)"/>
<use href="#i-star" transform="translate(1657.5 1785.0) rotate(-20.0) scale(0.7917) translate(-24 -24)" opacity="0.5"/>
<use href="#i-star" transform="translate(1530.0 1912.5) rotate(-15.0) scale(0.7917) translate(-24 -24)" opacity="0.5"/>
<use href="#i-cactus" transform="translate(1785.0 1785.0) rotate(-5.0) scale(3.1875) translate(-24 -24)"/>
<use href="#i-sun" transform="translate(1912.5 1912.5) rotate(-10.0) scale(3.1875) translate(-24 -24)"/>
<use href="#i-star" transform="translate(1912.5 1785.0) rotate(15.0) scale(0.7917) translate(-24 -24)" opacity="0.5"/>
<use href="#i-star" transform="translate(1785.0 1912.5) rotate(5.0) scale(0.7917) translate(-24 -24)" opacity="0.5"/>
<use href="#i-cactus" transform="translate(2040.0 1785.0) rotate(5.0) scale(3.1875) translate(-24 -24)"/>
<use href="#i-sun" transform="translate(2167.5 1912.5) rotate(10.0) scale(3.1875) translate(-24 -24)"/>
<use href="#i-star" transform="translate(2167.5 1785.0) rotate(15.0) scale(0.7917) translate(-24 -24)" opacity="0.5"/>
<use href="#i-star" transform="translate(2040.0 1912.5) rotate(-10.0) scale(0.7917) translate(-24 -24)" opacity="0.5"/>
<use href="#i-cactus" transform="translate(2295.0 1785.0) rotate(-5.0) scale(3.1875) translate(-24 -24)"/>
<use href="#i-sun" transform="translate(2422.5 1912.5) rotate(5.0) scale(3.1875) translate(-24 -24)"/>
<use href="#i-star" transform="translate(2422.5 1785.0) rotate(-10.0) scale(0.7917) translate(-24 -24)" opacity="0.5"/>
<use href="#i-star" transform="translate(2295.0 1912.5) rotate(-15.0) scale(0.7917) translate(-24 -24)" opacity="0.5"/>
<use href="#i-cactus" transform="translate(2550.0 1785.0) rotate(-10.0) scale(3.1875) translate(-24 -24)"/>
<use href="#i-sun" transform="translate(2677.5 1912.5) rotate(0.0) scale(3.1875) translate(-24 -24)"/>
<use href="#i-star" transform="translate(2677.5 1785.0) rotate(-5.0) scale(0.7917) translate(-24 -24)" opacity="0.5"/>
<use href="#i-star" transform="translate(2550.0 1912.5) rotate(15.0) scale(0.7917) translate(-24 -24)" opacity="0.5"/>
<use href="#i-cactus" transform="translate(2805.0 1785.0) rotate(0.0) scale(3.1875) translate(-24 -24)"/>
<use href="#i-sun" transform="translate(2932.5 1912.5) rotate(5.0) scale(3.1875) translate(-24 -24)"/>
<use href="#i-star" transform="translate(2932.5 1785.0) rotate(10.0) scale(0.7917) translate(-24 -24)" opacity="0.5"/>
<use href="#i-star" transform="translate(2805.0 1912.5) rotate(20.0) scale(0.7917) translate(-24 -24)" opacity="0.5"/>
<use href="#i-cactus" transform="translate(3060.0 1785.0) rotate(5.0) scale(3.1875) translate(-24 -24)"/>
<use href="#i-sun" transform="translate(3187.5 1912.5) rotate(0.0) scale(3.1875) translate(-24 -24)"/>
<use href="#i-star" transform="translate(3187.5 1785.0) rotate(-5.0) scale(0.7917) translate(-24 -24)" opacity="0.5"/>
<use href="#i-star" transform="translate(3060.0 1912.5) rotate(20.0) scale(0.7917) translate(-24 -24)" opacity="0.5"/>
<use href="#i-cactus" transform="translate(3315.0 1785.0) rotate(5.0) scale(3.1875) translate(-24 -24)"/>
<use href="#i-sun" transform="translate(3442.5 1912.5) rotate(-5.0) scale(3.1875) translate(-24 -24)"/>
<use href="#i-star" transform="translate(3442.5 1785.0) rotate(20.0) scale(0.7917) translate(-24 -24)" opacity="0.5"/>
<use href="#i-star" transform="translate(3315.0 1912.5) rotate(20.0) scale(0.7917) translate(-24 -24)" opacity="0.5"/>
<use href="#i-cactus" transform="translate(3570.0 1785.0) rotate(0.0) scale(3.1875) translate(-24 -24)"/>
<use href="#i-sun" transform="translate(3697.5 1912.5) rotate(5.0) scale(3.1875) translate(-24 -24)"/>
<use href="#i-star" transform="translate(3697.5 1785.0) rotate(20.0) scale(0.7917) translate(-24 -24)" opacity="0.5"/>
<use href="#i-star" transform="translate(3570.0 1912.5) rotate(15.0) scale(0.7917) translate(-24 -24)" opacity="0.5"/>
<use href="#i-cactus" transform="translate(-510.0 2040.0) rotate(0.0) scale(3.1875) translate(-24 -24)"/>
<use href="#i-sun" transform="translate(-382.5 2167.5) rotate(-10.0) scale(3.1875) translate(-24 -24)"/>
<use href="#i-star" transform="translate(-382.5 2040.0) rotate(-20.0) scale(0.7917) translate(-24 -24)" opacity="0.5"/>
<use href="#i-star" transform="translate(-510.0 2167.5) rotate(-15.0) scale(0.7917) translate(-24 -24)" opacity="0.5"/>
<use href="#i-cactus" transform="translate(-255.0 2040.0) rotate(-5.0) scale(3.1875) translate(-24 -24)"/>
<use href="#i-sun" transform="translate(-127.5 2167.5) rotate(-10.0) scale(3.1875) translate(-24 -24)"/>
<use href="#i-star" transform="translate(-127.5 2040.0) rotate(25.0) scale(0.7917) translate(-24 -24)" opacity="0.5"/>
<use href="#i-star" transform="translate(-255.0 2167.5) rotate(15.0) scale(0.7917) translate(-24 -24)" opacity="0.5"/>
<use href="#i-cactus" transform="translate(0.0 2040.0) rotate(10.0) scale(3.1875) translate(-24 -24)"/>
<use href="#i-sun" transform="translate(127.5 2167.5) rotate(-5.0) scale(3.1875) translate(-24 -24)"/>
<use href="#i-star" transform="translate(127.5 2040.0) rotate(20.0) scale(0.7917) translate(-24 -24)" opacity="0.5"/>
<use href="#i-star" transform="translate(0.0 2167.5) rotate(15.0) scale(0.7917) translate(-24 -24)" opacity="0.5"/>
<use href="#i-cactus" transform="translate(255.0 2040.0) rotate(5.0) scale(3.1875) translate(-24 -24)"/>
<use href="#i-sun" transform="translate(382.5 2167.5) rotate(5.0) scale(3.1875) translate(-24 -24)"/>
<use href="#i-star" transform="translate(382.5 2040.0) rotate(-15.0) scale(0.7917) translate(-24 -24)" opacity="0.5"/>
<use href="#i-star" transform="translate(255.0 2167.5) rotate(20.0) scale(0.7917) translate(-24 -24)" opacity="0.5"/>
<use href="#i-cactus" transform="translate(510.0 2040.0) rotate(-5.0) scale(3.1875) translate(-24 -24)"/>
<use href="#i-sun" transform="translate(637.5 2167.5) rotate(-10.0) scale(3.1875) translate(-24 -24)"/>
<use href="#i-star" transform="translate(637.5 2040.0) rotate(10.0) scale(0.7917) translate(-24 -24)" opacity="0.5"/>
<use href="#i-star" transform="translate(510.0 2167.5) rotate(5.0) scale(0.7917) translate(-24 -24)" opacity="0.5"/>
<use href="#i-cactus" transform="translate(765.0 2040.0) rotate(0.0) scale(3.1875) translate(-24 -24)"/>
<use href="#i-sun" transform="translate(892.5 2167.5) rotate(-5.0) scale(3.1875) translate(-24 -24)"/>
<use href="#i-star" transform="translate(892.5 2040.0) rotate(15.0) scale(0.7917) translate(-24 -24)" opacity="0.5"/>
<use href="#i-star" transform="translate(765.0 2167.5) rotate(5.0) scale(0.7917) translate(-24 -24)" opacity="0.5"/>
<use href="#i-cactus" transform="translate(1020.0 2040.0) rotate(5.0) scale(3.1875) translate(-24 -24)"/>
<use href="#i-sun" transform="translate(1147.5 2167.5) rotate(0.0) scale(3.1875) translate(-24 -24)"/>
<use href="#i-star" transform="translate(1147.5 2040.0) rotate(-10.0) scale(0.7917) translate(-24 -24)" opacity="0.5"/>
<use href="#i-star" transform="translate(1020.0 2167.5) rotate(-10.0) scale(0.7917) translate(-24 -24)" opacity="0.5"/>
<use href="#i-cactus" transform="translate(1275.0 2040.0) rotate(5.0) scale(3.1875) translate(-24 -24)"/>
<use href="#i-sun" transform="translate(1402.5 2167.5) rotate(10.0) scale(3.1875) translate(-24 -24)"/>
<use href="#i-star" transform="translate(1402.5 2040.0) rotate(5.0) scale(0.7917) translate(-24 -24)" opacity="0.5"/>
<use href="#i-star" transform="translate(1275.0 2167.5) rotate(10.0) scale(0.7917) translate(-24 -24)" opacity="0.5"/>
<use href="#i-cactus" transform="translate(1530.0 2040.0) rotate(5.0) scale(3.1875) translate(-24 -24)"/>
<use href="#i-sun" transform="translate(1657.5 2167.5) rotate(10.0) scale(3.1875) translate(-24 -24)"/>
<use href="#i-star" transform="translate(1657.5 2040.0) rotate(-20.0) scale(0.7917) translate(-24 -24)" opacity="0.5"/>
<use href="#i-star" transform="translate(1530.0 2167.5) rotate(-5.0) scale(0.7917) translate(-24 -24)" opacity="0.5"/>
<use href="#i-cactus" transform="translate(1785.0 2040.0) rotate(0.0) scale(3.1875) translate(-24 -24)"/>
<use href="#i-sun" transform="translate(1912.5 2167.5) rotate(5.0) scale(3.1875) translate(-24 -24)"/>
<use href="#i-star" transform="translate(1912.5 2040.0) rotate(15.0) scale(0.7917) translate(-24 -24)" opacity="0.5"/>
<use href="#i-star" transform="translate(1785.0 2167.5) rotate(-20.0) scale(0.7917) translate(-24 -24)" opacity="0.5"/>
<use href="#i-cactus" transform="translate(2040.0 2040.0) rotate(5.0) scale(3.1875) translate(-24 -24)"/>
<use href="#i-sun" transform="translate(2167.5 2167.5) rotate(-5.0) scale(3.1875) translate(-24 -24)"/>
<use href="#i-star" transform="translate(2167.5 2040.0) rotate(-5.0) scale(0.7917) translate(-24 -24)" opacity="0.5"/>
<use href="#i-star" transform="translate(2040.0 2167.5) rotate(0.0) scale(0.7917) translate(-24 -24)" opacity="0.5"/>
<use href="#i-cactus" transform="translate(2295.0 2040.0) rotate(5.0) scale(3.1875) translate(-24 -24)"/>
<use href="#i-sun" transform="translate(2422.5 2167.5) rotate(-5.0) scale(3.1875) translate(-24 -24)"/>
<use href="#i-star" transform="translate(2422.5 2040.0) rotate(10.0) scale(0.7917) translate(-24 -24)" opacity="0.5"/>
<use href="#i-star" transform="translate(2295.0 2167.5) rotate(5.0) scale(0.7917) translate(-24 -24)" opacity="0.5"/>
<use href="#i-cactus" transform="translate(2550.0 2040.0) rotate(0.0) scale(3.1875) translate(-24 -24)"/>
<use href="#i-sun" transform="translate(2677.5 2167.5) rotate(0.0) scale(3.1875) translate(-24 -24)"/>
<use href="#i-star" transform="translate(2677.5 2040.0) rotate(10.0) scale(0.7917) translate(-24 -24)" opacity="0.5"/>
<use href="#i-star" transform="translate(2550.0 2167.5) rotate(0.0) scale(0.7917) translate(-24 -24)" opacity="0.5"/>
<use href="#i-cactus" transform="translate(2805.0 2040.0) rotate(10.0) scale(3.1875) translate(-24 -24)"/>
<use href="#i-sun" transform="translate(2932.5 2167.5) rotate(-5.0) scale(3.1875) translate(-24 -24)"/>
<use href="#i-star" transform="translate(2932.5 2040.0) rotate(25.0) scale(0.7917) translate(-24 -24)" opacity="0.5"/>
<use href="#i-star" transform="translate(2805.0 2167.5) rotate(20.0) scale(0.7917) translate(-24 -24)" opacity="0.5"/>
<use href="#i-cactus" transform="translate(3060.0 2040.0) rotate(0.0) scale(3.1875) translate(-24 -24)"/>
<use href="#i-sun" transform="translate(3187.5 2167.5) rotate(5.0) scale(3.1875) translate(-24 -24)"/>
<use href="#i-star" transform="translate(3187.5 2040.0) rotate(-10.0) scale(0.7917) translate(-24 -24)" opacity="0.5"/>
<use href="#i-star" transform="translate(3060.0 2167.5) rotate(15.0) scale(0.7917) translate(-24 -24)" opacity="0.5"/>
<use href="#i-cactus" transform="translate(3315.0 2040.0) rotate(5.0) scale(3.1875) translate(-24 -24)"/>
<use href="#i-sun" transform="translate(3442.5 2167.5) rotate(-5.0) scale(3.1875) translate(-24 -24)"/>
<use href="#i-star" transform="translate(3442.5 2040.0) rotate(10.0) scale(0.7917) translate(-24 -24)" opacity="0.5"/>
<use href="#i-star" transform="translate(3315.0 2167.5) rotate(20.0) scale(0.7917) translate(-24 -24)" opacity="0.5"/>
<use href="#i-cactus" transform="translate(3570.0 2040.0) rotate(0.0) scale(3.1875) translate(-24 -24)"/>
<use href="#i-sun" transform="translate(3697.5 2167.5) rotate(10.0) scale(3.1875) translate(-24 -24)"/>
<use href="#i-star" transform="translate(3697.5 2040.0) rotate(25.0) scale(0.7917) translate(-24 -24)" opacity="0.5"/>
<use href="#i-star" transform="translate(3570.0 2167.5) rotate(-5.0) scale(0.7917) translate(-24 -24)" opacity="0.5"/>
<use href="#i-cactus" transform="translate(-510.0 2295.0) rotate(5.0) scale(3.1875) translate(-24 -24)"/>
<use href="#i-sun" transform="translate(-382.5 2422.5) rotate(10.0) scale(3.1875) translate(-24 -24)"/>
<use href="#i-star" transform="translate(-382.5 2295.0) rotate(20.0) scale(0.7917) translate(-24 -24)" opacity="0.5"/>
<use href="#i-star" transform="translate(-510.0 2422.5) rotate(-25.0) scale(0.7917) translate(-24 -24)" opacity="0.5"/>
<use href="#i-cactus" transform="translate(-255.0 2295.0) rotate(0.0) scale(3.1875) translate(-24 -24)"/>
<use href="#i-sun" transform="translate(-127.5 2422.5) rotate(5.0) scale(3.1875) translate(-24 -24)"/>
<use href="#i-star" transform="translate(-127.5 2295.0) rotate(-20.0) scale(0.7917) translate(-24 -24)" opacity="0.5"/>
<use href="#i-star" transform="translate(-255.0 2422.5) rotate(0.0) scale(0.7917) translate(-24 -24)" opacity="0.5"/>
<use href="#i-cactus" transform="translate(0.0 2295.0) rotate(-10.0) scale(3.1875) translate(-24 -24)"/>
<use href="#i-sun" transform="translate(127.5 2422.5) rotate(5.0) scale(3.1875) translate(-24 -24)"/>
<use href="#i-star" transform="translate(127.5 2295.0) rotate(-10.0) scale(0.7917) translate(-24 -24)" opacity="0.5"/>
<use href="#i-star" transform="translate(0.0 2422.5) rotate(10.0) scale(0.7917) translate(-24 -24)" opacity="0.5"/>
<use href="#i-cactus" transform="translate(255.0 2295.0) rotate(-10.0) scale(3.1875) translate(-24 -24)"/>
<use href="#i-sun" transform="translate(382.5 2422.5) rotate(-5.0) scale(3.1875) translate(-24 -24)"/>
<use href="#i-star" transform="translate(382.5 2295.0) rotate(10.0) scale(0.7917) translate(-24 -24)" opacity="0.5"/>
<use href="#i-star" transform="translate(255.0 2422.5) rotate(-15.0) scale(0.7917) translate(-24 -24)" opacity="0.5"/>
<use href="#i-cactus" transform="translate(510.0 2295.0) rotate(-10.0) scale(3.1875) translate(-24 -24)"/>
<use href="#i-sun" transform="translate(637.5 2422.5) rotate(0.0) scale(3.1875) translate(-24 -24)"/>
<use href="#i-star" transform="translate(637.5 2295.0) rotate(-20.0) scale(0.7917) translate(-24 -24)" opacity="0.5"/>
<use href="#i-star" transform="translate(510.0 2422.5) rotate(5.0) scale(0.7917) translate(-24 -24)" opacity="0.5"/>
<use href="#i-cactus" transform="translate(765.0 2295.0) rotate(-5.0) scale(3.1875) translate(-24 -24)"/>
<use href="#i-sun" transform="translate(892.5 2422.5) rotate(-5.0) scale(3.1875) translate(-24 -24)"/>
<use href="#i-star" transform="translate(892.5 2295.0) rotate(-20.0) scale(0.7917) translate(-24 -24)" opacity="0.5"/>
<use href="#i-star" transform="translate(765.0 2422.5) rotate(-15.0) scale(0.7917) translate(-24 -24)" opacity="0.5"/>
<use href="#i-cactus" transform="translate(1020.0 2295.0) rotate(0.0) scale(3.1875) translate(-24 -24)"/>
<use href="#i-sun" transform="translate(1147.5 2422.5) rotate(0.0) scale(3.1875) translate(-24 -24)"/>
<use href="#i-star" transform="translate(1147.5 2295.0) rotate(-5.0) scale(0.7917) translate(-24 -24)" opacity="0.5"/>
<use href="#i-star" transform="translate(1020.0 2422.5) rotate(-5.0) scale(0.7917) translate(-24 -24)" opacity="0.5"/>
<use href="#i-cactus" transform="translate(1275.0 2295.0) rotate(0.0) scale(3.1875) translate(-24 -24)"/>
<use href="#i-sun" transform="translate(1402.5 2422.5) rotate(-5.0) scale(3.1875) translate(-24 -24)"/>
<use href="#i-star" transform="translate(1402.5 2295.0) rotate(-10.0) scale(0.7917) translate(-24 -24)" opacity="0.5"/>
<use href="#i-star" transform="translate(1275.0 2422.5) rotate(-15.0) scale(0.7917) translate(-24 -24)" opacity="0.5"/>
<use href="#i-cactus" transform="translate(1530.0 2295.0) rotate(0.0) scale(3.1875) translate(-24 -24)"/>
<use href="#i-sun" transform="translate(1657.5 2422.5) rotate(0.0) scale(3.1875) translate(-24 -24)"/>
<use href="#i-star" transform="translate(1657.5 2295.0) rotate(-10.0) scale(0.7917) translate(-24 -24)" opacity="0.5"/>
<use href="#i-star" transform="translate(1530.0 2422.5) rotate(5.0) scale(0.7917) translate(-24 -24)" opacity="0.5"/>
<use href="#i-cactus" transform="translate(1785.0 2295.0) rotate(10.0) scale(3.1875) translate(-24 -24)"/>
<use href="#i-sun" transform="translate(1912.5 2422.5) rotate(5.0) scale(3.1875) translate(-24 -24)"/>
<use href="#i-star" transform="translate(1912.5 2295.0) rotate(5.0) scale(0.7917) translate(-24 -24)" opacity="0.5"/>
<use href="#i-star" transform="translate(1785.0 2422.5) rotate(15.0) scale(0.7917) translate(-24 -24)" opacity="0.5"/>
<use href="#i-cactus" transform="translate(2040.0 2295.0) rotate(5.0) scale(3.1875) translate(-24 -24)"/>
<use href="#i-sun" transform="translate(2167.5 2422.5) rotate(-10.0) scale(3.1875) translate(-24 -24)"/>
<use href="#i-star" transform="translate(2167.5 2295.0) rotate(-20.0) scale(0.7917) translate(-24 -24)" opacity="0.5"/>
<use href="#i-star" transform="translate(2040.0 2422.5) rotate(15.0) scale(0.7917) translate(-24 -24)" opacity="0.5"/>
<use href="#i-cactus" transform="translate(2295.0 2295.0) rotate(5.0) scale(3.1875) translate(-24 -24)"/>
<use href="#i-sun" transform="translate(2422.5 2422.5) rotate(-5.0) scale(3.1875) translate(-24 -24)"/>
<use href="#i-star" transform="translate(2422.5 2295.0) rotate(-10.0) scale(0.7917) translate(-24 -24)" opacity="0.5"/>
<use href="#i-star" transform="translate(2295.0 2422.5) rotate(10.0) scale(0.7917) translate(-24 -24)" opacity="0.5"/>
<use href="#i-cactus" transform="translate(2550.0 2295.0) rotate(-10.0) scale(3.1875) translate(-24 -24)"/>
<use href="#i-sun" transform="translate(2677.5 2422.5) rotate(-5.0) scale(3.1875) translate(-24 -24)"/>
<use href="#i-star" transform="translate(2677.5 2295.0) rotate(-10.0) scale(0.7917) translate(-24 -24)" opacity="0.5"/>
<use href="#i-star" transform="translate(2550.0 2422.5) rotate(10.0) scale(0.7917) translate(-24 -24)" opacity="0.5"/>
<use href="#i-cactus" transform="translate(2805.0 2295.0) rotate(5.0) scale(3.1875) translate(-24 -24)"/>
<use href="#i-sun" transform="translate(2932.5 2422.5) rotate(0.0) scale(3.1875) translate(-24 -24)"/>
<use href="#i-star" transform="translate(2932.5 2295.0) rotate(5.0) scale(0.7917) translate(-24 -24)" opacity="0.5"/>
<use href="#i-star" transform="translate(2805.0 2422.5) rotate(0.0) scale(0.7917) translate(-24 -24)" opacity="0.5"/>
<use href="#i-cactus" transform="translate(3060.0 2295.0) rotate(0.0) scale(3.1875) translate(-24 -24)"/>
<use href="#i-sun" transform="translate(3187.5 2422.5) rotate(5.0) scale(3.1875) translate(-24 -24)"/>
<use href="#i-star" transform="translate(3187.5 2295.0) rotate(-10.0) scale(0.7917) translate(-24 -24)" opacity="0.5"/>
<use href="#i-star" transform="translate(3060.0 2422.5) rotate(-10.0) scale(0.7917) translate(-24 -24)" opacity="0.5"/>
<use href="#i-cactus" transform="translate(3315.0 2295.0) rotate(10.0) scale(3.1875) translate(-24 -24)"/>
<use href="#i-sun" transform="translate(3442.5 2422.5) rotate(-10.0) scale(3.1875) translate(-24 -24)"/>
<use href="#i-star" transform="translate(3442.5 2295.0) rotate(-5.0) scale(0.7917) translate(-24 -24)" opacity="0.5"/>
<use href="#i-star" transform="translate(3315.0 2422.5) rotate(25.0) scale(0.7917) translate(-24 -24)" opacity="0.5"/>
<use href="#i-cactus" transform="translate(3570.0 2295.0) rotate(0.0) scale(3.1875) translate(-24 -24)"/>
<use href="#i-sun" transform="translate(3697.5 2422.5) rotate(5.0) scale(3.1875) translate(-24 -24)"/>
<use href="#i-star" transform="translate(3697.5 2295.0) rotate(5.0) scale(0.7917) translate(-24 -24)" opacity="0.5"/>
<use href="#i-star" transform="translate(3570.0 2422.5) rotate(20.0) scale(0.7917) translate(-24 -24)" opacity="0.5"/>
</g>
</svg>