<svg xmlns="http://www.w3.org/2000/svg" width="2560" height="1440" viewBox="0 0 2560 1440" role="img" aria-label="Polar Post">
<defs>
<g id="i-penguin"><ellipse cx="24" cy="26" rx="13" ry="17" fill="#264653"/>
<ellipse cx="24" cy="30" rx="7.5" ry="10" fill="#FFFFFF"/>
<circle cx="19" cy="19" r="2.5" fill="#FFFFFF"/>
<circle cx="29" cy="19" r="2.5" fill="#FFFFFF"/>
<circle cx="19" cy="20" r="1.3" fill="#2A2A2A"/>
<circle cx="29" cy="20" r="1.3" fill="#2A2A2A"/>
<path d="M21 23 L27 23 L24 26.5 Z" fill="#E76F51"/>
<path d="M11 26 C 7 30 8 36 12 38" fill="none" stroke="#2A2A2A"/>
<path d="M37 26 C 41 30 40 36 36 38" fill="none" stroke="#2A2A2A"/>
<ellipse cx="18" cy="43" rx="4.5" ry="2" fill="#E76F51"/>
<ellipse cx="30" cy="43" rx="4.5" ry="2" fill="#E76F51"/></g>
<g id="i-snowflake"><circle cx="24" cy="24" r="3.5" fill="#2A9D8F"/>
<path d="M24 5 L24 43" stroke="#2A9D8F" stroke-width="3"/>
<path d="M7.6 14.5 L40.4 33.5" stroke="#2A9D8F" stroke-width="3"/>
<path d="M7.6 33.5 L40.4 14.5" stroke="#2A9D8F" stroke-width="3"/>
<path d="M20 10 L24 6 L28 10" stroke="#2A9D8F" stroke-width="2.5" fill="none"/>
<path d="M20 38 L24 42 L28 38" stroke="#2A9D8F" stroke-width="2.5" fill="none"/>
<path d="M9.5 11 L8 15.5 L12.5 16.5" stroke="#2A9D8F" stroke-width="2.5" fill="none"/>
<path d="M38.5 37 L40 32.5 L35.5 31.5" stroke="#2A9D8F" stroke-width="2.5" fill="none"/>
<path d="M12.5 31.5 L8 32.5 L9.5 37" stroke="#2A9D8F" stroke-width="2.5" fill="none"/>
<path d="M35.5 16.5 L40 15.5 L38.5 11" stroke="#2A9D8F" stroke-width="2.5" fill="none"/></g>
<pattern id="dots" width="130.0" height="130.0" patternUnits="userSpaceOnUse"><circle cx="65.0" cy="65.0" r="5" fill="#C4DCEA" opacity="0.27"/></pattern>
</defs>
<rect width="2560" height="1440" fill="#E3EEF5"/>
<rect width="2560" height="1440" fill="url(#dots)"/>
<g>
<use href="#i-penguin" transform="translate(-520.0 -520.0) rotate(5.0) scale(3.2500) translate(-24 -24)"/>
<use href="#i-snowflake" transform="translate(-390.0 -390.0) rotate(5.0) scale(3.2500) translate(-24 -24)"/>
<use href="#i-snowflake" transform="translate(-390.0 -520.0) rotate(-10.0) scale(0.8125) translate(-24 -24)" opacity="0.5"/>
<use href="#i-snowflake" transform="translate(-520.0 -390.0) rotate(15.0) scale(0.8125) translate(-24 -24)" opacity="0.5"/>
<use href="#i-penguin" transform="translate(-260.0 -520.0) rotate(5.0) scale(3.2500) translate(-24 -24)"/>
<use href="#i-snowflake" transform="translate(-130.0 -390.0) rotate(-10.0) scale(3.2500) translate(-24 -24)"/>
<use href="#i-snowflake" transform="translate(-130.0 -520.0) rotate(-20.0) scale(0.8125) translate(-24 -24)" opacity="0.5"/>
<use href="#i-snowflake" transform="translate(-260.0 -390.0) rotate(-20.0) scale(0.8125) translate(-24 -24)" opacity="0.5"/>
<use href="#i-penguin" transform="translate(0.0 -520.0) rotate(0.0) scale(3.2500) translate(-24 -24)"/>
<use href="#i-snowflake" transform="translate(130.0 -390.0) rotate(10.0) scale(3.2500) translate(-24 -24)"/>
<use href="#i-snowflake" transform="translate(130.0 -520.0) rotate(5.0) scale(0.8125) translate(-24 -24)" opacity="0.5"/>
<use href="#i-snowflake" transform="translate(0.0 -390.0) rotate(25.0) scale(0.8125) translate(-24 -24)" opacity="0.5"/>
<use href="#i-penguin" transform="translate(260.0 -520.0) rotate(10.0) scale(3.2500) translate(-24 -24)"/>
<use href="#i-snowflake" transform="translate(390.0 -390.0) rotate(0.0) scale(3.2500) translate(-24 -24)"/>
<use href="#i-snowflake" transform="translate(390.0 -520.0) rotate(5.0) scale(0.8125) translate(-24 -24)" opacity="0.5"/>
<use href="#i-snowflake" transform="translate(260.0 -390.0) rotate(-25.0) scale(0.8125) translate(-24 -24)" opacity="0.5"/>
<use href="#i-penguin" transform="translate(520.0 -520.0) rotate(-5.0) scale(3.2500) translate(-24 -24)"/>
<use href="#i-snowflake" transform="translate(650.0 -390.0) rotate(0.0) scale(3.2500) translate(-24 -24)"/>
<use href="#i-snowflake" transform="translate(650.0 -520.0) rotate(25.0) scale(0.8125) translate(-24 -24)" opacity="0.5"/>
<use href="#i-snowflake" transform="translate(520.0 -390.0) rotate(-25.0) scale(0.8125) translate(-24 -24)" opacity="0.5"/>
<use href="#i-penguin" transform="translate(780.0 -520.0) rotate(-10.0) scale(3.2500) translate(-24 -24)"/>
<use href="#i-snowflake" transform="translate(910.0 -390.0) rotate(5.0) scale(3.2500) translate(-24 -24)"/>
<use href="#i-snowflake" transform="translate(910.0 -520.0) rotate(10.0) scale(0.8125) translate(-24 -24)" opacity="0.5"/>
<use href="#i-snowflake" transform="translate(780.0 -390.0) rotate(0.0) scale(0.8125) translate(-24 -24)" opacity="0.5"/>
<use href="#i-penguin" transform="translate(1040.0 -520.0) rotate(0.0) scale(3.2500) translate(-24 -24)"/>
<use href="#i-snowflake" transform="translate(1170.0 -390.0) rotate(10.0) scale(3.2500) translate(-24 -24)"/>
<use href="#i-snowflake" transform="translate(1170.0 -520.0) rotate(-20.0) scale(0.8125) translate(-24 -24)" opacity="0.5"/>
<use href="#i-snowflake" transform="translate(1040.0 -390.0) rotate(5.0) scale(0.8125) translate(-24 -24)" opacity="0.5"/>
<use href="#i-penguin" transform="translate(1300.0 -520.0) rotate(5.0) scale(3.2500) translate(-24 -24)"/>
<use href="#i-snowflake" transform="translate(1430.0 -390.0) rotate(0.0) scale(3.2500) translate(-24 -24)"/>
<use href="#i-snowflake" transform="translate(1430.0 -520.0) rotate(5.0) scale(0.8125) translate(-24 -24)" opacity="0.5"/>
<use href="#i-snowflake" transform="translate(1300.0 -390.0) rotate(-5.0) scale(0.8125) translate(-24 -24)" opacity="0.5"/>
<use href="#i-penguin" transform="translate(1560.0 -520.0) rotate(5.0) scale(3.2500) translate(-24 -24)"/>
<use href="#i-snowflake" transform="translate(1690.0 -390.0) rotate(0.0) scale(3.2500) translate(-24 -24)"/>
<use href="#i-snowflake" transform="translate(1690.0 -520.0) rotate(-15.0) scale(0.8125) translate(-24 -24)" opacity="0.5"/>
<use href="#i-snowflake" transform="translate(1560.0 -390.0) rotate(-15.0) scale(0.8125) translate(-24 -24)" opacity="0.5"/>
<use href="#i-penguin" transform="translate(1820.0 -520.0) rotate(-10.0) scale(3.2500) translate(-24 -24)"/>
<use href="#i-snowflake" transform="translate(1950.0 -390.0) rotate(5.0) scale(3.2500) translate(-24 -24)"/>
<use href="#i-snowflake" transform="translate(1950.0 -520.0) rotate(-20.0) scale(0.8125) translate(-24 -24)" opacity="0.5"/>
<use href="#i-snowflake" transform="translate(1820.0 -390.0) rotate(-10.0) scale(0.8125) translate(-24 -24)" opacity="0.5"/>
<use href="#i-penguin" transform="translate(2080.0 -520.0) rotate(0.0) scale(3.2500) translate(-24 -24)"/>
<use href="#i-snowflake" transform="translate(2210.0 -390.0) rotate(0.0) scale(3.2500) translate(-24 -24)"/>
<use href="#i-snowflake" transform="translate(2210.0 -520.0) rotate(25.0) scale(0.8125) translate(-24 -24)" opacity="0.5"/>
<use href="#i-snowflake" transform="translate(2080.0 -390.0) rotate(-25.0) scale(0.8125) translate(-24 -24)" opacity="0.5"/>
<use href="#i-penguin" transform="translate(2340.0 -520.0) rotate(0.0) scale(3.2500) translate(-24 -24)"/>
<use href="#i-snowflake" transform="translate(2470.0 -390.0) rotate(0.0) scale(3.2500) translate(-24 -24)"/>
<use href="#i-snowflake" transform="translate(2470.0 -520.0) rotate(25.0) scale(0.8125) translate(-24 -24)" opacity="0.5"/>
<use href="#i-snowflake" transform="translate(2340.0 -390.0) rotate(-20.0) scale(0.8125) translate(-24 -24)" opacity="0.5"/>
<use href="#i-penguin" transform="translate(2600.0 -520.0) rotate(-10.0) scale(3.2500) translate(-24 -24)"/>
<use href="#i-snowflake" transform="translate(2730.0 -390.0) rotate(-5.0) scale(3.2500) translate(-24 -24)"/>
<use href="#i-snowflake" transform="translate(2730.0 -520.0) rotate(25.0) scale(0.8125) translate(-24 -24)" opacity="0.5"/>
<use href="#i-snowflake" transform="translate(2600.0 -390.0) rotate(-25.0) scale(0.8125) translate(-24 -24)" opacity="0.5"/>
<use href="#i-penguin" transform="translate(2860.0 -520.0) rotate(0.0) scale(3.2500) translate(-24 -24)"/>
<use href="#i-snowflake" transform="translate(2990.0 -390.0) rotate(0.0) scale(3.2500) translate(-24 -24)"/>
<use href="#i-snowflake" transform="translate(2990.0 -520.0) rotate(15.0) scale(0.8125) translate(-24 -24)" opacity="0.5"/>
<use href="#i-snowflake" transform="translate(2860.0 -390.0) rotate(-15.0) scale(0.8125) translate(-24 -24)" opacity="0.5"/>
<use href="#i-penguin" transform="translate(3120.0 -520.0) rotate(5.0) scale(3.2500) translate(-24 -24)"/>
<use href="#i-snowflake" transform="translate(3250.0 -390.0) rotate(10.0) scale(3.2500) translate(-24 -24)"/>
<use href="#i-snowflake" transform="translate(3250.0 -520.0) rotate(-20.0) scale(0.8125) translate(-24 -24)" opacity="0.5"/>
<use href="#i-snowflake" transform="translate(3120.0 -390.0) rotate(-5.0) scale(0.8125) translate(-24 -24)" opacity="0.5"/>
<use href="#i-penguin" transform="translate(3380.0 -520.0) rotate(0.0) scale(3.2500) translate(-24 -24)"/>
<use href="#i-snowflake" transform="translate(3510.0 -390.0) rotate(0.0) scale(3.2500) translate(-24 -24)"/>
<use href="#i-snowflake" transform="translate(3510.0 -520.0) rotate(-20.0) scale(0.8125) translate(-24 -24)" opacity="0.5"/>
<use href="#i-snowflake" transform="translate(3380.0 -390.0) rotate(10.0) scale(0.8125) translate(-24 -24)" opacity="0.5"/>
<use href="#i-penguin" transform="translate(-520.0 -260.0) rotate(0.0) scale(3.2500) translate(-24 -24)"/>
<use href="#i-snowflake" transform="translate(-390.0 -130.0) rotate(0.0) scale(3.2500) translate(-24 -24)"/>
<use href="#i-snowflake" transform="translate(-390.0 -260.0) rotate(-20.0) scale(0.8125) translate(-24 -24)" opacity="0.5"/>
<use href="#i-snowflake" transform="translate(-520.0 -130.0) rotate(-20.0) scale(0.8125) translate(-24 -24)" opacity="0.5"/>
<use href="#i-penguin" transform="translate(-260.0 -260.0) rotate(0.0) scale(3.2500) translate(-24 -24)"/>
<use href="#i-snowflake" transform="translate(-130.0 -130.0) rotate(10.0) scale(3.2500) translate(-24 -24)"/>
<use href="#i-snowflake" transform="translate(-130.0 -260.0) rotate(-15.0) scale(0.8125) translate(-24 -24)" opacity="0.5"/>
<use href="#i-snowflake" transform="translate(-260.0 -130.0) rotate(-10.0) scale(0.8125) translate(-24 -24)" opacity="0.5"/>
<use href="#i-penguin" transform="translate(0.0 -260.0) rotate(0.0) scale(3.2500) translate(-24 -24)"/>
<use href="#i-snowflake" transform="translate(130.0 -130.0) rotate(-5.0) scale(3.2500) translate(-24 -24)"/>
<use href="#i-snowflake" transform="translate(130.0 -260.0) rotate(-15.0) scale(0.8125) translate(-24 -24)" opacity="0.5"/>
<use href="#i-snowflake" transform="translate(0.0 -130.0) rotate(-10.0) scale(0.8125) translate(-24 -24)" opacity="0.5"/>
<use href="#i-penguin" transform="translate(260.0 -260.0) rotate(0.0) scale(3.2500) translate(-24 -24)"/>
<use href="#i-snowflake" transform="translate(390.0 -130.0) rotate(5.0) scale(3.2500) translate(-24 -24)"/>
<use href="#i-snowflake" transform="translate(390.0 -260.0) rotate(20.0) scale(0.8125) translate(-24 -24)" opacity="0.5"/>
<use href="#i-snowflake" transform="translate(260.0 -130.0) rotate(-5.0) scale(0.8125) translate(-24 -24)" opacity="0.5"/>
<use href="#i-penguin" transform="translate(520.0 -260.0) rotate(-10.0) scale(3.2500) translate(-24 -24)"/>
<use href="#i-snowflake" transform="translate(650.0 -130.0) rotate(0.0) scale(3.2500) translate(-24 -24)"/>
<use href="#i-snowflake" transform="translate(650.0 -260.0) rotate(-5.0) scale(0.8125) translate(-24 -24)" opacity="0.5"/>
<use href="#i-snowflake" transform="translate(520.0 -130.0) rotate(-5.0) scale(0.8125) translate(-24 -24)" opacity="0.5"/>
<use href="#i-penguin" transform="translate(780.0 -260.0) rotate(-5.0) scale(3.2500) translate(-24 -24)"/>
<use href="#i-snowflake" transform="translate(910.0 -130.0) rotate(-5.0) scale(3.2500) translate(-24 -24)"/>
<use href="#i-snowflake" transform="translate(910.0 -260.0) rotate(15.0) scale(0.8125) translate(-24 -24)" opacity="0.5"/>
<use href="#i-snowflake" transform="translate(780.0 -130.0) rotate(0.0) scale(0.8125) translate(-24 -24)" opacity="0.5"/>
<use href="#i-penguin" transform="translate(1040.0 -260.0) rotate(-10.0) scale(3.2500) translate(-24 -24)"/>
<use href="#i-snowflake" transform="translate(1170.0 -130.0) rotate(0.0) scale(3.2500) translate(-24 -24)"/>
<use href="#i-snowflake" transform="translate(1170.0 -260.0) rotate(-20.0) scale(0.8125) translate(-24 -24)" opacity="0.5"/>
<use href="#i-snowflake" transform="translate(1040.0 -130.0) rotate(15.0) scale(0.8125) translate(-24 -24)" opacity="0.5"/>
<use href="#i-penguin" transform="translate(1300.0 -260.0) rotate(-5.0) scale(3.2500) translate(-24 -24)"/>
<use href="#i-snowflake" transform="translate(1430.0 -130.0) rotate(-5.0) scale(3.2500) translate(-24 -24)"/>
<use href="#i-snowflake" transform="translate(1430.0 -260.0) rotate(-25.0) scale(0.8125) translate(-24 -24)" opacity="0.5"/>
<use href="#i-snowflake" transform="translate(1300.0 -130.0) rotate(10.0) scale(0.8125) translate(-24 -24)" opacity="0.5"/>
<use href="#i-penguin" transform="translate(1560.0 -260.0) rotate(0.0) scale(3.2500) translate(-24 -24)"/>
<use href="#i-snowflake" transform="translate(1690.0 -130.0) rotate(5.0) scale(3.2500) translate(-24 -24)"/>
<use href="#i-snowflake" transform="translate(1690.0 -260.0) rotate(10.0) scale(0.8125) translate(-24 -24)" opacity="0.5"/>
<use href="#i-snowflake" transform="translate(1560.0 -130.0) rotate(5.0) scale(0.8125) translate(-24 -24)" opacity="0.5"/>
<use href="#i-penguin" transform="translate(1820.0 -260.0) rotate(0.0) scale(3.2500) translate(-24 -24)"/>
<use href="#i-snowflake" transform="translate(1950.0 -130.0) rotate(5.0) scale(3.2500) translate(-24 -24)"/>
<use href="#i-snowflake" transform="translate(1950.0 -260.0) rotate(-15.0) scale(0.8125) translate(-24 -24)" opacity="0.5"/>
<use href="#i-snowflake" transform="translate(1820.0 -130.0) rotate(0.0) scale(0.8125) translate(-24 -24)" opacity="0.5"/>
<use href="#i-penguin" transform="translate(2080.0 -260.0) rotate(-10.0) scale(3.2500) translate(-24 -24)"/>
<use href="#i-snowflake" transform="translate(2210.0 -130.0) rotate(5.0) scale(3.2500) translate(-24 -24)"/>
<use href="#i-snowflake" transform="translate(2210.0 -260.0) rotate(5.0) scale(0.8125) translate(-24 -24)" opacity="0.5"/>
<use href="#i-snowflake" transform="translate(2080.0 -130.0) rotate(-10.0) scale(0.8125) translate(-24 -24)" opacity="0.5"/>
<use href="#i-penguin" transform="translate(2340.0 -260.0) rotate(0.0) scale(3.2500) translate(-24 -24)"/>
<use href="#i-snowflake" transform="translate(2470.0 -130.0) rotate(-5.0) scale(3.2500) translate(-24 -24)"/>
<use href="#i-snowflake" transform="translate(2470.0 -260.0) rotate(-5.0) scale(0.8125) translate(-24 -24)" opacity="0.5"/>
<use href="#i-snowflake" transform="translate(2340.0 -130.0) rotate(-10.0) scale(0.8125) translate(-24 -24)" opacity="0.5"/>
<use href="#i-penguin" transform="translate(2600.0 -260.0) rotate(-10.0) scale(3.2500) translate(-24 -24)"/>
<use href="#i-snowflake" transform="translate(2730.0 -130.0) rotate(-5.0) scale(3.2500) translate(-24 -24)"/>
<use href="#i-snowflake" transform="translate(2730.0 -260.0) rotate(-20.0) scale(0.8125) translate(-24 -24)" opacity="0.5"/>
<use href="#i-snowflake" transform="translate(2600.0 -130.0) rotate(-10.0) scale(0.8125) translate(-24 -24)" opacity="0.5"/>
<use href="#i-penguin" transform="translate(2860.0 -260.0) rotate(5.0) scale(3.2500) translate(-24 -24)"/>
<use href="#i-snowflake" transform="translate(2990.0 -130.0) rotate(5.0) scale(3.2500) translate(-24 -24)"/>
<use href="#i-snowflake" transform="translate(2990.0 -260.0) rotate(-10.0) scale(0.8125) translate(-24 -24)" opacity="0.5"/>
<use href="#i-snowflake" transform="translate(2860.0 -130.0) rotate(-20.0) scale(0.8125) translate(-24 -24)" opacity="0.5"/>
<use href="#i-penguin" transform="translate(3120.0 -260.0) rotate(-10.0) scale(3.2500) translate(-24 -24)"/>
<use href="#i-snowflake" transform="translate(3250.0 -130.0) rotate(0.0) scale(3.2500) translate(-24 -24)"/>
<use href="#i-snowflake" transform="translate(3250.0 -260.0) rotate(25.0) scale(0.8125) translate(-24 -24)" opacity="0.5"/>
<use href="#i-snowflake" transform="translate(3120.0 -130.0) rotate(15.0) scale(0.8125) translate(-24 -24)" opacity="0.5"/>
<use href="#i-penguin" transform="translate(3380.0 -260.0) rotate(-5.0) scale(3.2500) translate(-24 -24)"/>
<use href="#i-snowflake" transform="translate(3510.0 -130.0) rotate(5.0) scale(3.2500) translate(-24 -24)"/>
<use href="#i-snowflake" transform="translate(3510.0 -260.0) rotate(5.0) scale(0.8125) translate(-24 -24)" opacity="0.5"/>
<use href="#i-snowflake" transform="translate(3380.0 -130.0) rotate(20.0) scale(0.8125) translate(-24 -24)" opacity="0.5"/>
<use href="#i-penguin" transform="translate(-520.0 0.0) rotate(-10.0) scale(3.2500) translate(-24 -24)"/>
<use href="#i-snowflake" transform="translate(-390.0 130.0) rotate(5.0) scale(3.2500) translate(-24 -24)"/>
<use href="#i-snowflake" transform="translate(-390.0 0.0) rotate(-5.0) scale(0.8125) translate(-24 -24)" opacity="0.5"/>
<use href="#i-snowflake" transform="translate(-520.0 130.0) rotate(-20.0) scale(0.8125) translate(-24 -24)" opacity="0.5"/>
<use href="#i-penguin" transform="translate(-260.0 0.0) rotate(0.0) scale(3.2500) translate(-24 -24)"/>
<use href="#i-snowflake" transform="translate(-130.0 130.0) rotate(0.0) scale(3.2500) translate(-24 -24)"/>
<use href="#i-snowflake" transform="translate(-130.0 0.0) rotate(25.0) scale(0.8125) translate(-24 -24)" opacity="0.5"/>
<use href="#i-snowflake" transform="translate(-260.0 130.0) rotate(-15.0) scale(0.8125) translate(-24 -24)" opacity="0.5"/>
<use href="#i-penguin" transform="translate(0.0 0.0) rotate(5.0) scale(3.2500) translate(-24 -24)"/>
<use href="#i-snowflake" transform="translate(130.0 130.0) rotate(10.0) scale(3.2500) translate(-24 -24)"/>
<use href="#i-snowflake" transform="translate(130.0 0.0) rotate(-10.0) scale(0.8125) translate(-24 -24)" opacity="0.5"/>
<use href="#i-snowflake" transform="translate(0.0 130.0) rotate(-10.0) scale(0.8125) translate(-24 -24)" opacity="0.5"/>
<use href="#i-penguin" transform="translate(260.0 0.0) rotate(-5.0) scale(3.2500) translate(-24 -24)"/>
<use href="#i-snowflake" transform="translate(390.0 130.0) rotate(-5.0) scale(3.2500) translate(-24 -24)"/>
<use href="#i-snowflake" transform="translate(390.0 0.0) rotate(20.0) scale(0.8125) translate(-24 -24)" opacity="0.5"/>
<use href="#i-snowflake" transform="translate(260.0 130.0) rotate(-25.0) scale(0.8125) translate(-24 -24)" opacity="0.5"/>
<use href="#i-penguin" transform="translate(520.0 0.0) rotate(5.0) scale(3.2500) translate(-24 -24)"/>
<use href="#i-snowflake" transform="translate(650.0 130.0) rotate(5.0) scale(3.2500) translate(-24 -24)"/>
<use href="#i-snowflake" transform="translate(650.0 0.0) rotate(-10.0) scale(0.8125) translate(-24 -24)" opacity="0.5"/>
<use href="#i-snowflake" transform="translate(520.0 130.0) rotate(-20.0) scale(0.8125) translate(-24 -24)" opacity="0.5"/>
<use href="#i-penguin" transform="translate(780.0 0.0) rotate(5.0) scale(3.2500) translate(-24 -24)"/>
<use href="#i-snowflake" transform="translate(910.0 130.0) rotate(0.0) scale(3.2500) translate(-24 -24)"/>
<use href="#i-snowflake" transform="translate(910.0 0.0) rotate(20.0) scale(0.8125) translate(-24 -24)" opacity="0.5"/>
<use href="#i-snowflake" transform="translate(780.0 130.0) rotate(5.0) scale(0.8125) translate(-24 -24)" opacity="0.5"/>
<use href="#i-penguin" transform="translate(1040.0 0.0) rotate(0.0) scale(3.2500) translate(-24 -24)"/>
<use href="#i-snowflake" transform="translate(1170.0 130.0) rotate(-5.0) scale(3.2500) translate(-24 -24)"/>
<use href="#i-snowflake" transform="translate(1170.0 0.0) rotate(-5.0) scale(0.8125) translate(-24 -24)" opacity="0.5"/>
<use href="#i-snowflake" transform="translate(1040.0 130.0) rotate(20.0) scale(0.8125) translate(-24 -24)" opacity="0.5"/>
<use href="#i-penguin" transform="translate(1300.0 0.0) rotate(0.0) scale(3.2500) translate(-24 -24)"/>
<use href="#i-snowflake" transform="translate(1430.0 130.0) rotate(5.0) scale(3.2500) translate(-24 -24)"/>
<use href="#i-snowflake" transform="translate(1430.0 0.0) rotate(25.0) scale(0.8125) translate(-24 -24)" opacity="0.5"/>
<use href="#i-snowflake" transform="translate(1300.0 130.0) rotate(-25.0) scale(0.8125) translate(-24 -24)" opacity="0.5"/>
<use href="#i-penguin" transform="translate(1560.0 0.0) rotate(-5.0) scale(3.2500) translate(-24 -24)"/>
<use href="#i-snowflake" transform="translate(1690.0 130.0) rotate(5.0) scale(3.2500) translate(-24 -24)"/>
<use href="#i-snowflake" transform="translate(1690.0 0.0) rotate(0.0) scale(0.8125) translate(-24 -24)" opacity="0.5"/>
<use href="#i-snowflake" transform="translate(1560.0 130.0) rotate(-5.0) scale(0.8125) translate(-24 -24)" opacity="0.5"/>
<use href="#i-penguin" transform="translate(1820.0 0.0) rotate(-5.0) scale(3.2500) translate(-24 -24)"/>
<use href="#i-snowflake" transform="translate(1950.0 130.0) rotate(-10.0) scale(3.2500) translate(-24 -24)"/>
<use href="#i-snowflake" transform="translate(1950.0 0.0) rotate(-15.0) scale(0.8125) translate(-24 -24)" opacity="0.5"/>
<use href="#i-snowflake" transform="translate(1820.0 130.0) rotate(15.0) scale(0.8125) translate(-24 -24)" opacity="0.5"/>
<use href="#i-penguin" transform="translate(2080.0 0.0) rotate(-5.0) scale(3.2500) translate(-24 -24)"/>
<use href="#i-snowflake" transform="translate(2210.0 130.0) rotate(10.0) scale(3.2500) translate(-24 -24)"/>
<use href="#i-snowflake" transform="translate(2210.0 0.0) rotate(-5.0) scale(0.8125) translate(-24 -24)" opacity="0.5"/>
<use href="#i-snowflake" transform="translate(2080.0 130.0) rotate(-20.0) scale(0.8125) translate(-24 -24)" opacity="0.5"/>
<use href="#i-penguin" transform="translate(2340.0 0.0) rotate(-10.0) scale(3.2500) translate(-24 -24)"/>
<use href="#i-snowflake" transform="translate(2470.0 130.0) rotate(-5.0) scale(3.2500) translate(-24 -24)"/>
<use href="#i-snowflake" transform="translate(2470.0 0.0) rotate(0.0) scale(0.8125) translate(-24 -24)" opacity="0.5"/>
<use href="#i-snowflake" transform="translate(2340.0 130.0) rotate(-5.0) scale(0.8125) translate(-24 -24)" opacity="0.5"/>
<use href="#i-penguin" transform="translate(2600.0 0.0) rotate(5.0) scale(3.2500) translate(-24 -24)"/>
<use href="#i-snowflake" transform="translate(2730.0 130.0) rotate(5.0) scale(3.2500) translate(-24 -24)"/>
<use href="#i-snowflake" transform="translate(2730.0 0.0) rotate(20.0) scale(0.8125) translate(-24 -24)" opacity="0.5"/>
<use href="#i-snowflake" transform="translate(2600.0 130.0) rotate(0.0) scale(0.8125) translate(-24 -24)" opacity="0.5"/>
<use href="#i-penguin" transform="translate(2860.0 0.0) rotate(-5.0) scale(3.2500) translate(-24 -24)"/>
<use href="#i-snowflake" transform="translate(2990.0 130.0) rotate(0.0) scale(3.2500) translate(-24 -24)"/>
<use href="#i-snowflake" transform="translate(2990.0 0.0) rotate(20.0) scale(0.8125) translate(-24 -24)" opacity="0.5"/>
<use href="#i-snowflake" transform="translate(2860.0 130.0) rotate(10.0) scale(0.8125) translate(-24 -24)" opacity="0.5"/>
<use href="#i-penguin" transform="translate(3120.0 0.0) rotate(-5.0) scale(3.2500) translate(-24 -24)"/>
<use href="#i-snowflake" transform="translate(3250.0 130.0) rotate(10.0) scale(3.2500) translate(-24 -24)"/>
<use href="#i-snowflake" transform="translate(3250.0 0.0) rotate(-5.0) scale(0.8125) translate(-24 -24)" opacity="0.5"/>
<use href="#i-snowflake" transform="translate(3120.0 130.0) rotate(-20.0) scale(0.8125) translate(-24 -24)" opacity="0.5"/>
<use href="#i-penguin" transform="translate(3380.0 0.0) rotate(-5.0) scale(3.2500) translate(-24 -24)"/>
<use href="#i-snowflake" transform="translate(3510.0 130.0) rotate(-5.0) scale(3.2500) translate(-24 -24)"/>
<use href="#i-snowflake" transform="translate(3510.0 0.0) rotate(0.0) scale(0.8125) translate(-24 -24)" opacity="0.5"/>
<use href="#i-snowflake" transform="translate(3380.0 130.0) rotate(20.0) scale(0.8125) translate(-24 -24)" opacity="0.5"/>
<use href="#i-penguin" transform="translate(-520.0 260.0) rotate(-5.0) scale(3.2500) translate(-24 -24)"/>
<use href="#i-snowflake" transform="translate(-390.0 390.0) rotate(10.0) scale(3.2500) translate(-24 -24)"/>
<use href="#i-snowflake" transform="translate(-390.0 260.0) rotate(5.0) scale(0.8125) translate(-24 -24)" opacity="0.5"/>
<use href="#i-snowflake" transform="translate(-520.0 390.0) rotate(-5.0) scale(0.8125) translate(-24 -24)" opacity="0.5"/>
<use href="#i-penguin" transform="translate(-260.0 260.0) rotate(0.0) scale(3.2500) translate(-24 -24)"/>
<use href="#i-snowflake" transform="translate(-130.0 390.0) rotate(-5.0) scale(3.2500) translate(-24 -24)"/>
<use href="#i-snowflake" transform="translate(-130.0 260.0) rotate(5.0) scale(0.8125) translate(-24 -24)" opacity="0.5"/>
<use href="#i-snowflake" transform="translate(-260.0 390.0) rotate(-10.0) scale(0.8125) translate(-24 -24)" opacity="0.5"/>
<use href="#i-penguin" transform="translate(0.0 260.0) rotate(-10.0) scale(3.2500) translate(-24 -24)"/>
<use href="#i-snowflake" transform="translate(130.0 390.0) rotate(10.0) scale(3.2500) translate(-24 -24)"/>
<use href="#i-snowflake" transform="translate(130.0 260.0) rotate(-10.0) scale(0.8125) translate(-24 -24)" opacity="0.5"/>
<use href="#i-snowflake" transform="translate(0.0 390.0) rotate(-15.0) scale(0.8125) translate(-24 -24)" opacity="0.5"/>
<use href="#i-penguin" transform="translate(260.0 260.0) rotate(-5.0) scale(3.2500) translate(-24 -24)"/>
<use href="#i-snowflake" transform="translate(390.0 390.0) rotate(5.0) scale(3.2500) translate(-24 -24)"/>
<use href="#i-snowflake" transform="translate(390.0 260.0) rotate(-5.0) scale(0.8125) translate(-24 -24)" opacity="0.5"/>
<use href="#i-snowflake" transform="translate(260.0 390.0) rotate(5.0) scale(0.8125) translate(-24 -24)" opacity="0.5"/>
<use href="#i-penguin" transform="translate(520.0 260.0) rotate(-5.0) scale(3.2500) translate(-24 -24)"/>
<use href="#i-snowflake" transform="translate(650.0 390.0) rotate(-5.0) scale(3.2500) translate(-24 -24)"/>
<use href="#i-snowflake" transform="translate(650.0 260.0) rotate(0.0) scale(0.8125) translate(-24 -24)" opacity="0.5"/>
<use href="#i-snowflake" transform="translate(520.0 390.0) rotate(20.0) scale(0.8125) translate(-24 -24)" opacity="0.5"/>
<use href="#i-penguin" transform="translate(780.0 260.0) rotate(0.0) scale(3.2500) translate(-24 -24)"/>
<use href="#i-snowflake" transform="translate(910.0 390.0) rotate(-5.0) scale(3.2500) translate(-24 -24)"/>
<use href="#i-snowflake" transform="translate(910.0 260.0) rotate(0.0) scale(0.8125) translate(-24 -24)" opacity="0.5"/>
<use href="#i-snowflake" transform="translate(780.0 390.0) rotate(5.0) scale(0.8125) translate(-24 -24)" opacity="0.5"/>
<use href="#i-penguin" transform="translate(1040.0 260.0) rotate(5.0) scale(3.2500) translate(-24 -24)"/>
<use href="#i-snowflake" transform="translate(1170.0 390.0) rotate(0.0) scale(3.2500) translate(-24 -24)"/>
<use href="#i-snowflake" transform="translate(1170.0 260.0) rotate(10.0) scale(0.8125) translate(-24 -24)" opacity="0.5"/>
<use href="#i-snowflake" transform="translate(1040.0 390.0) rotate(-20.0) scale(0.8125) translate(-24 -24)" opacity="0.5"/>
<use href="#i-penguin" transform="translate(1300.0 260.0) rotate(-5.0) scale(3.2500) translate(-24 -24)"/>
<use href="#i-snowflake" transform="translate(1430.0 390.0) rotate(0.0) scale(3.2500) translate(-24 -24)"/>
<use href="#i-snowflake" transform="translate(1430.0 260.0) rotate(0.0) scale(0.8125) translate(-24 -24)" opacity="0.5"/>
<use href="#i-snowflake" transform="translate(1300.0 390.0) rotate(-5.0) scale(0.8125) translate(-24 -24)" opacity="0.5"/>
<use href="#i-penguin" transform="translate(1560.0 260.0) rotate(-5.0) scale(3.2500) translate(-24 -24)"/>
<use href="#i-snowflake" transform="translate(1690.0 390.0) rotate(10.0) scale(3.2500) translate(-24 -24)"/>
<use href="#i-snowflake" transform="translate(1690.0 260.0) rotate(0.0) scale(0.8125) translate(-24 -24)" opacity="0.5"/>
<use href="#i-snowflake" transform="translate(1560.0 390.0) rotate(10.0) scale(0.8125) translate(-24 -24)" opacity="0.5"/>
<use href="#i-penguin" transform="translate(1820.0 260.0) rotate(-10.0) scale(3.2500) translate(-24 -24)"/>
<use href="#i-snowflake" transform="translate(1950.0 390.0) rotate(-5.0) scale(3.2500) translate(-24 -24)"/>
<use href="#i-snowflake" transform="translate(1950.0 260.0) rotate(5.0) scale(0.8125) translate(-24 -24)" opacity="0.5"/>
<use href="#i-snowflake" transform="translate(1820.0 390.0) rotate(-15.0) scale(0.8125) translate(-24 -24)" opacity="0.5"/>
<use href="#i-penguin" transform="translate(2080.0 260.0) rotate(10.0) scale(3.2500) translate(-24 -24)"/>
<use href="#i-snowflake" transform="translate(2210.0 390.0) rotate(-5.0) scale(3.2500) translate(-24 -24)"/>
<use href="#i-snowflake" transform="translate(2210.0 260.0) rotate(-5.0) scale(0.8125) translate(-24 -24)" opacity="0.5"/>
<use href="#i-snowflake" transform="translate(2080.0 390.0) rotate(15.0) scale(0.8125) translate(-24 -24)" opacity="0.5"/>
<use href="#i-penguin" transform="translate(2340.0 260.0) rotate(5.0) scale(3.2500) translate(-24 -24)"/>
<use href="#i-snowflake" transform="translate(2470.0 390.0) rotate(0.0) scale(3.2500) translate(-24 -24)"/>
<use href="#i-snowflake" transform="translate(2470.0 260.0) rotate(20.0) scale(0.8125) translate(-24 -24)" opacity="0.5"/>
<use href="#i-snowflake" transform="translate(2340.0 390.0) rotate(10.0) scale(0.8125) translate(-24 -24)" opacity="0.5"/>
<use href="#i-penguin" transform="translate(2600.0 260.0) rotate(5.0) scale(3.2500) translate(-24 -24)"/>
<use href="#i-snowflake" transform="translate(2730.0 390.0) rotate(10.0) scale(3.2500) translate(-24 -24)"/>
<use href="#i-snowflake" transform="translate(2730.0 260.0) rotate(-25.0) scale(0.8125) translate(-24 -24)" opacity="0.5"/>
<use href="#i-snowflake" transform="translate(2600.0 390.0) rotate(20.0) scale(0.8125) translate(-24 -24)" opacity="0.5"/>
<use href="#i-penguin" transform="translate(2860.0 260.0) rotate(5.0) scale(3.2500) translate(-24 -24)"/>
<use href="#i-snowflake" transform="translate(2990.0 390.0) rotate(-10.0) scale(3.2500) translate(-24 -24)"/>
<use href="#i-snowflake" transform="translate(2990.0 260.0) rotate(15.0) scale(0.8125) translate(-24 -24)" opacity="0.5"/>
<use href="#i-snowflake" transform="translate(2860.0 390.0) rotate(5.0) scale(0.8125) translate(-24 -24)" opacity="0.5"/>
<use href="#i-penguin" transform="translate(3120.0 260.0) rotate(10.0) scale(3.2500) translate(-24 -24)"/>
<use href="#i-snowflake" transform="translate(3250.0 390.0) rotate(-5.0) scale(3.2500) translate(-24 -24)"/>
<use href="#i-snowflake" transform="translate(3250.0 260.0) rotate(25.0) scale(0.8125) translate(-24 -24)" opacity="0.5"/>
<use href="#i-snowflake" transform="translate(3120.0 390.0) rotate(0.0) scale(0.8125) translate(-24 -24)" opacity="0.5"/>
<use href="#i-penguin" transform="translate(3380.0 260.0) rotate(0.0) scale(3.2500) translate(-24 -24)"/>
<use href="#i-snowflake" transform="translate(3510.0 390.0) rotate(10.0) scale(3.2500) translate(-24 -24)"/>
<use href="#i-snowflake" transform="translate(3510.0 260.0) rotate(-15.0) scale(0.8125) translate(-24 -24)" opacity="0.5"/>
<use href="#i-snowflake" transform="translate(3380.0 390.0) rotate(10.0) scale(0.8125) translate(-24 -24)" opacity="0.5"/>
<use href="#i-penguin" transform="translate(-520.0 520.0) rotate(-5.0) scale(3.2500) translate(-24 -24)"/>
<use href="#i-snowflake" transform="translate(-390.0 650.0) rotate(0.0) scale(3.2500) translate(-24 -24)"/>
<use href="#i-snowflake" transform="translate(-390.0 520.0) rotate(-10.0) scale(0.8125) translate(-24 -24)" opacity="0.5"/>
<use href="#i-snowflake" transform="translate(-520.0 650.0) rotate(-20.0) scale(0.8125) translate(-24 -24)" opacity="0.5"/>
<use href="#i-penguin" transform="translate(-260.0 520.0) rotate(-5.0) scale(3.2500) translate(-24 -24)"/>
<use href="#i-snowflake" transform="translate(-130.0 650.0) rotate(-5.0) scale(3.2500) translate(-24 -24)"/>
<use href="#i-snowflake" transform="translate(-130.0 520.0) rotate(-20.0) scale(0.8125) translate(-24 -24)" opacity="0.5"/>
<use href="#i-snowflake" transform="translate(-260.0 650.0) rotate(-5.0) scale(0.8125) translate(-24 -24)" opacity="0.5"/>
<use href="#i-penguin" transform="translate(0.0 520.0) rotate(-5.0) scale(3.2500) translate(-24 -24)"/>
<use href="#i-snowflake" transform="translate(130.0 650.0) rotate(5.0) scale(3.2500) translate(-24 -24)"/>
<use href="#i-snowflake" transform="translate(130.0 520.0) rotate(0.0) scale(0.8125) translate(-24 -24)" opacity="0.5"/>
<use href="#i-snowflake" transform="translate(0.0 650.0) rotate(-25.0) scale(0.8125) translate(-24 -24)" opacity="0.5"/>
<use href="#i-penguin" transform="translate(260.0 520.0) rotate(10.0) scale(3.2500) translate(-24 -24)"/>
<use href="#i-snowflake" transform="translate(390.0 650.0) rotate(5.0) scale(3.2500) translate(-24 -24)"/>
<use href="#i-snowflake" transform="translate(390.0 520.0) rotate(-15.0) scale(0.8125) translate(-24 -24)" opacity="0.5"/>
<use href="#i-snowflake" transform="translate(260.0 650.0) rotate(20.0) scale(0.8125) translate(-24 -24)" opacity="0.5"/>
<use href="#i-penguin" transform="translate(520.0 520.0) rotate(10.0) scale(3.2500) translate(-24 -24)"/>
<use href="#i-snowflake" transform="translate(650.0 650.0) rotate(-5.0) scale(3.2500) translate(-24 -24)"/>
<use href="#i-snowflake" transform="translate(650.0 520.0) rotate(25.0) scale(0.8125) translate(-24 -24)" opacity="0.5"/>
<use href="#i-snowflake" transform="translate(520.0 650.0) rotate(10.0) scale(0.8125) translate(-24 -24)" opacity="0.5"/>
<use href="#i-penguin" transform="translate(780.0 520.0) rotate(5.0) scale(3.2500) translate(-24 -24)"/>
<use href="#i-snowflake" transform="translate(910.0 650.0) rotate(10.0) scale(3.2500) translate(-24 -24)"/>
<use href="#i-snowflake" transform="translate(910.0 520.0) rotate(0.0) scale(0.8125) translate(-24 -24)" opacity="0.5"/>
<use href="#i-snowflake" transform="translate(780.0 650.0) rotate(15.0) scale(0.8125) translate(-24 -24)" opacity="0.5"/>
<use href="#i-penguin" transform="translate(1040.0 520.0) rotate(-5.0) scale(3.2500) translate(-24 -24)"/>
<use href="#i-snowflake" transform="translate(1170.0 650.0) rotate(0.0) scale(3.2500) translate(-24 -24)"/>
<use href="#i-snowflake" transform="translate(1170.0 520.0) rotate(-5.0) scale(0.8125) translate(-24 -24)" opacity="0.5"/>
<use href="#i-snowflake" transform="translate(1040.0 650.0) rotate(0.0) scale(0.8125) translate(-24 -24)" opacity="0.5"/>
<use href="#i-penguin" transform="translate(1300.0 520.0) rotate(5.0) scale(3.2500) translate(-24 -24)"/>
<use href="#i-snowflake" transform="translate(1430.0 650.0) rotate(0.0) scale(3.2500) translate(-24 -24)"/>
<use href="#i-snowflake" transform="translate(1430.0 520.0) rotate(20.0) scale(0.8125) translate(-24 -24)" opacity="0.5"/>
<use href="#i-snowflake" transform="translate(1300.0 650.0) rotate(10.0) scale(0.8125) translate(-24 -24)" opacity="0.5"/>
<use href="#i-penguin" transform="translate(1560.0 520.0) rotate(5.0) scale(3.2500) translate(-24 -24)"/>
<use href="#i-snowflake" transform="translate(1690.0 650.0) rotate(-5.0) scale(3.2500) translate(-24 -24)"/>
<use href="#i-snowflake" transform="translate(1690.0 520.0) rotate(-10.0) scale(0.8125) translate(-24 -24)" opacity="0.5"/>
<use href="#i-snowflake" transform="translate(1560.0 650.0) rotate(-10.0) scale(0.8125) translate(-24 -24)" opacity="0.5"/>
<use href="#i-penguin" transform="translate(1820.0 520.0) rotate(5.0) scale(3.2500) translate(-24 -24)"/>
<use href="#i-snowflake" transform="translate(1950.0 650.0) rotate(0.0) scale(3.2500) translate(-24 -24)"/>
<use href="#i-snowflake" transform="translate(1950.0 520.0) rotate(0.0) scale(0.8125) translate(-24 -24)" opacity="0.5"/>
<use href="#i-snowflake" transform="translate(1820.0 650.0) rotate(-15.0) scale(0.8125) translate(-24 -24)" opacity="0.5"/>
<use href="#i-penguin" transform="translate(2080.0 520.0) rotate(0.0) scale(3.2500) translate(-24 -24)"/>
<use href="#i-snowflake" transform="translate(2210.0 650.0) rotate(-5.0) scale(3.2500) translate(-24 -24)"/>
<use href="#i-snowflake" transform="translate(2210.0 520.0) rotate(-10.0) scale(0.8125) translate(-24 -24)" opacity="0.5"/>
<use href="#i-snowflake" transform="translate(2080.0 650.0) rotate(15.0) scale(0.8125) translate(-24 -24)" opacity="0.5"/>
<use href="#i-penguin" transform="translate(2340.0 520.0) rotate(5.0) scale(3.2500) translate(-24 -24)"/>
<use href="#i-snowflake" transform="translate(2470.0 650.0) rotate(0.0) scale(3.2500) translate(-24 -24)"/>
<use href="#i-snowflake" transform="translate(2470.0 520.0) rotate(15.0) scale(0.8125) translate(-24 -24)" opacity="0.5"/>
<use href="#i-snowflake" transform="translate(2340.0 650.0) rotate(-10.0) scale(0.8125) translate(-24 -24)" opacity="0.5"/>
<use href="#i-penguin" transform="translate(2600.0 520.0) rotate(5.0) scale(3.2500) translate(-24 -24)"/>
<use href="#i-snowflake" transform="translate(2730.0 650.0) rotate(10.0) scale(3.2500) translate(-24 -24)"/>
<use href="#i-snowflake" transform="translate(2730.0 520.0) rotate(20.0) scale(0.8125) translate(-24 -24)" opacity="0.5"/>
<use href="#i-snowflake" transform="translate(2600.0 650.0) rotate(10.0) scale(0.8125) translate(-24 -24)" opacity="0.5"/>
<use href="#i-penguin" transform="translate(2860.0 520.0) rotate(-5.0) scale(3.2500) translate(-24 -24)"/>
<use href="#i-snowflake" transform="translate(2990.0 650.0) rotate(-10.0) scale(3.2500) translate(-24 -24)"/>
<use href="#i-snowflake" transform="translate(2990.0 520.0) rotate(10.0) scale(0.8125) translate(-24 -24)" opacity="0.5"/>
<use href="#i-snowflake" transform="translate(2860.0 650.0) rotate(5.0) scale(0.8125) translate(-24 -24)" opacity="0.5"/>
<use href="#i-penguin" transform="translate(3120.0 520.0) rotate(0.0) scale(3.2500) translate(-24 -24)"/>
<use href="#i-snowflake" transform="translate(3250.0 650.0) rotate(10.0) scale(3.2500) translate(-24 -24)"/>
<use href="#i-snowflake" transform="translate(3250.0 520.0) rotate(-20.0) scale(0.8125) translate(-24 -24)" opacity="0.5"/>
<use href="#i-snowflake" transform="translate(3120.0 650.0) rotate(-25.0) scale(0.8125) translate(-24 -24)" opacity="0.5"/>
<use href="#i-penguin" transform="translate(3380.0 520.0) rotate(0.0) scale(3.2500) translate(-24 -24)"/>
<use href="#i-snowflake" transform="translate(3510.0 650.0) rotate(5.0) scale(3.2500) translate(-24 -24)"/>
<use href="#i-snowflake" transform="translate(3510.0 520.0) rotate(-15.0) scale(0.8125) translate(-24 -24)" opacity="0.5"/>
<use href="#i-snowflake" transform="translate(3380.0 650.0) rotate(15.0) scale(0.8125) translate(-24 -24)" opacity="0.5"/>
<use href="#i-penguin" transform="translate(-520.0 780.0) rotate(0.0) scale(3.2500) translate(-24 -24)"/>
<use href="#i-snowflake" transform="translate(-390.0 910.0) rotate(5.0) scale(3.2500) translate(-24 -24)"/>
<use href="#i-snowflake" transform="translate(-390.0 780.0) rotate(10.0) scale(0.8125) translate(-24 -24)" opacity="0.5"/>
<use href="#i-snowflake" transform="translate(-520.0 910.0) rotate(10.0) scale(0.8125) translate(-24 -24)" opacity="0.5"/>
<use href="#i-penguin" transform="translate(-260.0 780.0) rotate(5.0) scale(3.2500) translate(-24 -24)"/>
<use href="#i-snowflake" transform="translate(-130.0 910.0) rotate(5.0) scale(3.2500) translate(-24 -24)"/>
<use href="#i-snowflake" transform="translate(-130.0 780.0) rotate(-5.0) scale(0.8125) translate(-24 -24)" opacity="0.5"/>
<use href="#i-snowflake" transform="translate(-260.0 910.0) rotate(-10.0) scale(0.8125) translate(-24 -24)" opacity="0.5"/>
<use href="#i-penguin" transform="translate(0.0 780.0) rotate(10.0) scale(3.2500) translate(-24 -24)"/>
<use href="#i-snowflake" transform="translate(130.0 910.0) rotate(0.0) scale(3.2500) translate(-24 -24)"/>
<use href="#i-snowflake" transform="translate(130.0 780.0) rotate(10.0) scale(0.8125) translate(-24 -24)" opacity="0.5"/>
<use href="#i-snowflake" transform="translate(0.0 910.0) rotate(-10.0) scale(0.8125) translate(-24 -24)" opacity="0.5"/>
<use href="#i-penguin" transform="translate(260.0 780.0) rotate(5.0) scale(3.2500) translate(-24 -24)"/>
<use href="#i-snowflake" transform="translate(390.0 910.0) rotate(-10.0) scale(3.2500) translate(-24 -24)"/>
<use href="#i-snowflake" transform="translate(390.0 780.0) rotate(10.0) scale(0.8125) translate(-24 -24)" opacity="0.5"/>
<use href="#i-snowflake" transform="translate(260.0 910.0) rotate(-25.0) scale(0.8125) translate(-24 -24)" opacity="0.5"/>
<use href="#i-penguin" transform="translate(520.0 780.0) rotate(0.0) scale(3.2500) translate(-24 -24)"/>
<use href="#i-snowflake" transform="translate(650.0 910.0) rotate(-5.0) scale(3.2500) translate(-24 -24)"/>
<use href="#i-snowflake" transform="translate(650.0 780.0) rotate(5.0) scale(0.8125) translate(-24 -24)" opacity="0.5"/>
<use href="#i-snowflake" transform="translate(520.0 910.0) rotate(10.0) scale(0.8125) translate(-24 -24)" opacity="0.5"/>
<use href="#i-penguin" transform="translate(780.0 780.0) rotate(5.0) scale(3.2500) translate(-24 -24)"/>
<use href="#i-snowflake" transform="translate(910.0 910.0) rotate(0.0) scale(3.2500) translate(-24 -24)"/>
<use href="#i-snowflake" transform="translate(910.0 780.0) rotate(0.0) scale(0.8125) translate(-24 -24)" opacity="0.5"/>
<use href="#i-snowflake" transform="translate(780.0 910.0) rotate(0.0) scale(0.8125) translate(-24 -24)" opacity="0.5"/>
<use href="#i-penguin" transform="translate(1040.0 780.0) rotate(5.0) scale(3.2500) translate(-24 -24)"/>
<use href="#i-snowflake" transform="translate(1170.0 910.0) rotate(-5.0) scale(3.2500) translate(-24 -24)"/>
<use href="#i-snowflake" transform="translate(1170.0 780.0) rotate(-15.0) scale(0.8125) translate(-24 -24)" opacity="0.5"/>
<use href="#i-snowflake" transform="translate(1040.0 910.0) rotate(-15.0) scale(0.8125) translate(-24 -24)" opacity="0.5"/>
<use href="#i-penguin" transform="translate(1300.0 780.0) rotate(5.0) scale(3.2500) translate(-24 -24)"/>
<use href="#i-snowflake" transform="translate(1430.0 910.0) rotate(-5.0) scale(3.2500) translate(-24 -24)"/>
<use href="#i-snowflake" transform="translate(1430.0 780.0) rotate(-10.0) scale(0.8125) translate(-24 -24)" opacity="0.5"/>
<use href="#i-snowflake" transform="translate(1300.0 910.0) rotate(10.0) scale(0.8125) translate(-24 -24)" opacity="0.5"/>
<use href="#i-penguin" transform="translate(1560.0 780.0) rotate(-5.0) scale(3.2500) translate(-24 -24)"/>
<use href="#i-snowflake" transform="translate(1690.0 910.0) rotate(-5.0) scale(3.2500) translate(-24 -24)"/>
<use href="#i-snowflake" transform="translate(1690.0 780.0) rotate(20.0) scale(0.8125) translate(-24 -24)" opacity="0.5"/>
<use href="#i-snowflake" transform="translate(1560.0 910.0) rotate(-15.0) scale(0.8125) translate(-24 -24)" opacity="0.5"/>
<use href="#i-penguin" transform="translate(1820.0 780.0) rotate(5.0) scale(3.2500) translate(-24 -24)"/>
<use href="#i-snowflake" transform="translate(1950.0 910.0) rotate(-5.0) scale(3.2500) translate(-24 -24)"/>
<use href="#i-snowflake" transform="translate(1950.0 780.0) rotate(15.0) scale(0.8125) translate(-24 -24)" opacity="0.5"/>
<use href="#i-snowflake" transform="translate(1820.0 910.0) rotate(10.0) scale(0.8125) translate(-24 -24)" opacity="0.5"/>
<use href="#i-penguin" transform="translate(2080.0 780.0) rotate(-10.0) scale(3.2500) translate(-24 -24)"/>
<use href="#i-snowflake" transform="translate(2210.0 910.0) rotate(-5.0) scale(3.2500) translate(-24 -24)"/>
<use href="#i-snowflake" transform="translate(2210.0 780.0) rotate(-15.0) scale(0.8125) translate(-24 -24)" opacity="0.5"/>
<use href="#i-snowflake" transform="translate(2080.0 910.0) rotate(-25.0) scale(0.8125) translate(-24 -24)" opacity="0.5"/>
<use href="#i-penguin" transform="translate(2340.0 780.0) rotate(-10.0) scale(3.2500) translate(-24 -24)"/>
<use href="#i-snowflake" transform="translate(2470.0 910.0) rotate(-10.0) scale(3.2500) translate(-24 -24)"/>
<use href="#i-snowflake" transform="translate(2470.0 780.0) rotate(5.0) scale(0.8125) translate(-24 -24)" opacity="0.5"/>
<use href="#i-snowflake" transform="translate(2340.0 910.0) rotate(10.0) scale(0.8125) translate(-24 -24)" opacity="0.5"/>
<use href="#i-penguin" transform="translate(2600.0 780.0) rotate(-5.0) scale(3.2500) translate(-24 -24)"/>
<use href="#i-snowflake" transform="translate(2730.0 910.0) rotate(5.0) scale(3.2500) translate(-24 -24)"/>
<use href="#i-snowflake" transform="translate(2730.0 780.0) rotate(5.0) scale(0.8125) translate(-24 -24)" opacity="0.5"/>
<use href="#i-snowflake" transform="translate(2600.0 910.0) rotate(-20.0) scale(0.8125) translate(-24 -24)" opacity="0.5"/>
<use href="#i-penguin" transform="translate(2860.0 780.0) rotate(-5.0) scale(3.2500) translate(-24 -24)"/>
<use href="#i-snowflake" transform="translate(2990.0 910.0) rotate(-5.0) scale(3.2500) translate(-24 -24)"/>
<use href="#i-snowflake" transform="translate(2990.0 780.0) rotate(25.0) scale(0.8125) translate(-24 -24)" opacity="0.5"/>
<use href="#i-snowflake" transform="translate(2860.0 910.0) rotate(15.0) scale(0.8125) translate(-24 -24)" opacity="0.5"/>
<use href="#i-penguin" transform="translate(3120.0 780.0) rotate(0.0) scale(3.2500) translate(-24 -24)"/>
<use href="#i-snowflake" transform="translate(3250.0 910.0) rotate(5.0) scale(3.2500) translate(-24 -24)"/>
<use href="#i-snowflake" transform="translate(3250.0 780.0) rotate(0.0) scale(0.8125) translate(-24 -24)" opacity="0.5"/>
<use href="#i-snowflake" transform="translate(3120.0 910.0) rotate(0.0) scale(0.8125) translate(-24 -24)" opacity="0.5"/>
<use href="#i-penguin" transform="translate(3380.0 780.0) rotate(-5.0) scale(3.2500) translate(-24 -24)"/>
<use href="#i-snowflake" transform="translate(3510.0 910.0) rotate(-5.0) scale(3.2500) translate(-24 -24)"/>
<use href="#i-snowflake" transform="translate(3510.0 780.0) rotate(15.0) scale(0.8125) translate(-24 -24)" opacity="0.5"/>
<use href="#i-snowflake" transform="translate(3380.0 910.0) rotate(-20.0) scale(0.8125) translate(-24 -24)" opacity="0.5"/>
<use href="#i-penguin" transform="translate(-520.0 1040.0) rotate(5.0) scale(3.2500) translate(-24 -24)"/>
<use href="#i-snowflake" transform="translate(-390.0 1170.0) rotate(-10.0) scale(3.2500) translate(-24 -24)"/>
<use href="#i-snowflake" transform="translate(-390.0 1040.0) rotate(-5.0) scale(0.8125) translate(-24 -24)" opacity="0.5"/>
<use href="#i-snowflake" transform="translate(-520.0 1170.0) rotate(-15.0) scale(0.8125) translate(-24 -24)" opacity="0.5"/>
<use href="#i-penguin" transform="translate(-260.0 1040.0) rotate(-10.0) scale(3.2500) translate(-24 -24)"/>
<use href="#i-snowflake" transform="translate(-130.0 1170.0) rotate(0.0) scale(3.2500) translate(-24 -24)"/>
<use href="#i-snowflake" transform="translate(-130.0 1040.0) rotate(10.0) scale(0.8125) translate(-24 -24)" opacity="0.5"/>
<use href="#i-snowflake" transform="translate(-260.0 1170.0) rotate(-20.0) scale(0.8125) translate(-24 -24)" opacity="0.5"/>
<use href="#i-penguin" transform="translate(0.0 1040.0) rotate(10.0) scale(3.2500) translate(-24 -24)"/>
<use href="#i-snowflake" transform="translate(130.0 1170.0) rotate(-5.0) scale(3.2500) translate(-24 -24)"/>
<use href="#i-snowflake" transform="translate(130.0 1040.0) rotate(-20.0) scale(0.8125) translate(-24 -24)" opacity="0.5"/>
<use href="#i-snowflake" transform="translate(0.0 1170.0) rotate(-25.0) scale(0.8125) translate(-24 -24)" opacity="0.5"/>
<use href="#i-penguin" transform="translate(260.0 1040.0) rotate(5.0) scale(3.2500) translate(-24 -24)"/>
<use href="#i-snowflake" transform="translate(390.0 1170.0) rotate(-10.0) scale(3.2500) translate(-24 -24)"/>
<use href="#i-snowflake" transform="translate(390.0 1040.0) rotate(-10.0) scale(0.8125) translate(-24 -24)" opacity="0.5"/>
<use href="#i-snowflake" transform="translate(260.0 1170.0) rotate(10.0) scale(0.8125) translate(-24 -24)" opacity="0.5"/>
<use href="#i-penguin" transform="translate(520.0 1040.0) rotate(5.0) scale(3.2500) translate(-24 -24)"/>
<use href="#i-snowflake" transform="translate(650.0 1170.0) rotate(5.0) scale(3.2500) translate(-24 -24)"/>
<use href="#i-snowflake" transform="translate(650.0 1040.0) rotate(10.0) scale(0.8125) translate(-24 -24)" opacity="0.5"/>
<use href="#i-snowflake" transform="translate(520.0 1170.0) rotate(-10.0) scale(0.8125) translate(-24 -24)" opacity="0.5"/>
<use href="#i-penguin" transform="translate(780.0 1040.0) rotate(0.0) scale(3.2500) translate(-24 -24)"/>
<use href="#i-snowflake" transform="translate(910.0 1170.0) rotate(5.0) scale(3.2500) translate(-24 -24)"/>
<use href="#i-snowflake" transform="translate(910.0 1040.0) rotate(-5.0) scale(0.8125) translate(-24 -24)" opacity="0.5"/>
<use href="#i-snowflake" transform="translate(780.0 1170.0) rotate(-25.0) scale(0.8125) translate(-24 -24)" opacity="0.5"/>
<use href="#i-penguin" transform="translate(1040.0 1040.0) rotate(5.0) scale(3.2500) translate(-24 -24)"/>
<use href="#i-snowflake" transform="translate(1170.0 1170.0) rotate(-5.0) scale(3.2500) translate(-24 -24)"/>
<use href="#i-snowflake" transform="translate(1170.0 1040.0) rotate(15.0) scale(0.8125) translate(-24 -24)" opacity="0.5"/>
<use href="#i-snowflake" transform="translate(1040.0 1170.0) rotate(-15.0) scale(0.8125) translate(-24 -24)" opacity="0.5"/>
<use href="#i-penguin" transform="translate(1300.0 1040.0) rotate(0.0) scale(3.2500) translate(-24 -24)"/>
<use href="#i-snowflake" transform="translate(1430.0 1170.0) rotate(10.0) scale(3.2500) translate(-24 -24)"/>
<use href="#i-snowflake" transform="translate(1430.0 1040.0) rotate(5.0) scale(0.8125) translate(-24 -24)" opacity="0.5"/>
<use href="#i-snowflake" transform="translate(1300.0 1170.0) rotate(0.0) scale(0.8125) translate(-24 -24)" opacity="0.5"/>
<use href="#i-penguin" transform="translate(1560.0 1040.0) rotate(10.0) scale(3.2500) translate(-24 -24)"/>
<use href="#i-snowflake" transform="translate(1690.0 1170.0) rotate(-10.0) scale(3.2500) translate(-24 -24)"/>
<use href="#i-snowflake" transform="translate(1690.0 1040.0) rotate(5.0) scale(0.8125) translate(-24 -24)" opacity="0.5"/>
<use href="#i-snowflake" transform="translate(1560.0 1170.0) rotate(15.0) scale(0.8125) translate(-24 -24)" opacity="0.5"/>
<use href="#i-penguin" transform="translate(1820.0 1040.0) rotate(-5.0) scale(3.2500) translate(-24 -24)"/>
<use href="#i-snowflake" transform="translate(1950.0 1170.0) rotate(10.0) scale(3.2500) translate(-24 -24)"/>
<use href="#i-snowflake" transform="translate(1950.0 1040.0) rotate(0.0) scale(0.8125) translate(-24 -24)" opacity="0.5"/>
<use href="#i-snowflake" transform="translate(1820.0 1170.0) rotate(-10.0) scale(0.8125) translate(-24 -24)" opacity="0.5"/>
<use href="#i-penguin" transform="translate(2080.0 1040.0) rotate(10.0) scale(3.2500) translate(-24 -24)"/>
<use href="#i-snowflake" transform="translate(2210.0 1170.0) rotate(-5.0) scale(3.2500) translate(-24 -24)"/>
<use href="#i-snowflake" transform="translate(2210.0 1040.0) rotate(0.0) scale(0.8125) translate(-24 -24)" opacity="0.5"/>
<use href="#i-snowflake" transform="translate(2080.0 1170.0) rotate(15.0) scale(0.8125) translate(-24 -24)" opacity="0.5"/>
<use href="#i-penguin" transform="translate(2340.0 1040.0) rotate(5.0) scale(3.2500) translate(-24 -24)"/>
<use href="#i-snowflake" transform="translate(2470.0 1170.0) rotate(5.0) scale(3.2500) translate(-24 -24)"/>
<use href="#i-snowflake" transform="translate(2470.0 1040.0) rotate(20.0) scale(0.8125) translate(-24 -24)" opacity="0.5"/>
<use href="#i-snowflake" transform="translate(2340.0 1170.0) rotate(-20.0) scale(0.8125) translate(-24 -24)" opacity="0.5"/>
<use href="#i-penguin" transform="translate(2600.0 1040.0) rotate(-5.0) scale(3.2500) translate(-24 -24)"/>
<use href="#i-snowflake" transform="translate(2730.0 1170.0) rotate(0.0) scale(3.2500) translate(-24 -24)"/>
<use href="#i-snowflake" transform="translate(2730.0 1040.0) rotate(-10.0) scale(0.8125) translate(-24 -24)" opacity="0.5"/>
<use href="#i-snowflake" transform="translate(2600.0 1170.0) rotate(-5.0) scale(0.8125) translate(-24 -24)" opacity="0.5"/>
<use href="#i-penguin" transform="translate(2860.0 1040.0) rotate(0.0) scale(3.2500) translate(-24 -24)"/>
<use href="#i-snowflake" transform="translate(2990.0 1170.0) rotate(-5.0) scale(3.2500) translate(-24 -24)"/>
<use href="#i-snowflake" transform="translate(2990.0 1040.0) rotate(0.0) scale(0.8125) translate(-24 -24)" opacity="0.5"/>
<use href="#i-snowflake" transform="translate(2860.0 1170.0) rotate(-20.0) scale(0.8125) translate(-24 -24)" opacity="0.5"/>
<use href="#i-penguin" transform="translate(3120.0 1040.0) rotate(10.0) scale(3.2500) translate(-24 -24)"/>
<use href="#i-snowflake" transform="translate(3250.0 1170.0) rotate(5.0) scale(3.2500) translate(-24 -24)"/>
<use href="#i-snowflake" transform="translate(3250.0 1040.0) rotate(20.0) scale(0.8125) translate(-24 -24)" opacity="0.5"/>
<use href="#i-snowflake" transform="translate(3120.0 1170.0) rotate(-10.0) scale(0.8125) translate(-24 -24)" opacity="0.5"/>
<use href="#i-penguin" transform="translate(3380.0 1040.0) rotate(-5.0) scale(3.2500) translate(-24 -24)"/>
<use href="#i-snowflake" transform="translate(3510.0 1170.0) rotate(-10.0) scale(3.2500) translate(-24 -24)"/>
<use href="#i-snowflake" transform="translate(3510.0 1040.0) rotate(-5.0) scale(0.8125) translate(-24 -24)" opacity="0.5"/>
<use href="#i-snowflake" transform="translate(3380.0 1170.0) rotate(5.0) scale(0.8125) translate(-24 -24)" opacity="0.5"/>
<use href="#i-penguin" transform="translate(-520.0 1300.0) rotate(-5.0) scale(3.2500) translate(-24 -24)"/>
<use href="#i-snowflake" transform="translate(-390.0 1430.0) rotate(-5.0) scale(3.2500) translate(-24 -24)"/>
<use href="#i-snowflake" transform="translate(-390.0 1300.0) rotate(25.0) scale(0.8125) translate(-24 -24)" opacity="0.5"/>
<use href="#i-snowflake" transform="translate(-520.0 1430.0) rotate(10.0) scale(0.8125) translate(-24 -24)" opacity="0.5"/>
<use href="#i-penguin" transform="translate(-260.0 1300.0) rotate(10.0) scale(3.2500) translate(-24 -24)"/>
<use href="#i-snowflake" transform="translate(-130.0 1430.0) rotate(-5.0) scale(3.2500) translate(-24 -24)"/>
<use href="#i-snowflake" transform="translate(-130.0 1300.0) rotate(5.0) scale(0.8125) translate(-24 -24)" opacity="0.5"/>
<use href="#i-snowflake" transform="translate(-260.0 1430.0) rotate(15.0) scale(0.8125) translate(-24 -24)" opacity="0.5"/>
<use href="#i-penguin" transform="translate(0.0 1300.0) rotate(-10.0) scale(3.2500) translate(-24 -24)"/>
<use href="#i-snowflake" transform="translate(130.0 1430.0) rotate(10.0) scale(3.2500) translate(-24 -24)"/>
<use href="#i-snowflake" transform="translate(130.0 1300.0) rotate(-20.0) scale(0.8125) translate(-24 -24)" opacity="0.5"/>
<use href="#i-snowflake" transform="translate(0.0 1430.0) rotate(-5.0) scale(0.8125) translate(-24 -24)" opacity="0.5"/>
<use href="#i-penguin" transform="translate(260.0 1300.0) rotate(5.0) scale(3.2500) translate(-24 -24)"/>
<use href="#i-snowflake" transform="translate(390.0 1430.0) rotate(5.0) scale(3.2500) translate(-24 -24)"/>
<use href="#i-snowflake" transform="translate(390.0 1300.0) rotate(-25.0) scale(0.8125) translate(-24 -24)" opacity="0.5"/>
<use href="#i-snowflake" transform="translate(260.0 1430.0) rotate(-15.0) scale(0.8125) translate(-24 -24)" opacity="0.5"/>
<use href="#i-penguin" transform="translate(520.0 1300.0) rotate(0.0) scale(3.2500) translate(-24 -24)"/>
<use href="#i-snowflake" transform="translate(650.0 1430.0) rotate(-5.0) scale(3.2500) translate(-24 -24)"/>
<use href="#i-snowflake" transform="translate(650.0 1300.0) rotate(25.0) scale(0.8125) translate(-24 -24)" opacity="0.5"/>
<use href="#i-snowflake" transform="translate(520.0 1430.0) rotate(-15.0) scale(0.8125) translate(-24 -24)" opacity="0.5"/>
<use href="#i-penguin" transform="translate(780.0 1300.0) rotate(10.0) scale(3.2500) translate(-24 -24)"/>
<use href="#i-snowflake" transform="translate(910.0 1430.0) rotate(-5.0) scale(3.2500) translate(-24 -24)"/>
<use href="#i-snowflake" transform="translate(910.0 1300.0) rotate(20.0) scale(0.8125) translate(-24 -24)" opacity="0.5"/>
<use href="#i-snowflake" transform="translate(780.0 1430.0) rotate(-15.0) scale(0.8125) translate(-24 -24)" opacity="0.5"/>
<use href="#i-penguin" transform="translate(1040.0 1300.0) rotate(5.0) scale(3.2500) translate(-24 -24)"/>
<use href="#i-snowflake" transform="translate(1170.0 1430.0) rotate(5.0) scale(3.2500) translate(-24 -24)"/>
<use href="#i-snowflake" transform="translate(1170.0 1300.0) rotate(10.0) scale(0.8125) translate(-24 -24)" opacity="0.5"/>
<use href="#i-snowflake" transform="translate(1040.0 1430.0) rotate(-10.0) scale(0.8125) translate(-24 -24)" opacity="0.5"/>
<use href="#i-penguin" transform="translate(1300.0 1300.0) rotate(-10.0) scale(3.2500) translate(-24 -24)"/>
<use href="#i-snowflake" transform="translate(1430.0 1430.0) rotate(-10.0) scale(3.2500) translate(-24 -24)"/>
<use href="#i-snowflake" transform="translate(1430.0 1300.0) rotate(-25.0) scale(0.8125) translate(-24 -24)" opacity="0.5"/>
<use href="#i-snowflake" transform="translate(1300.0 1430.0) rotate(15.0) scale(0.8125) translate(-24 -24)" opacity="0.5"/>
<use href="#i-penguin" transform="translate(1560.0 1300.0) rotate(0.0) scale(3.2500) translate(-24 -24)"/>
<use href="#i-snowflake" transform="translate(1690.0 1430.0) rotate(5.0) scale(3.2500) translate(-24 -24)"/>
<use href="#i-snowflake" transform="translate(1690.0 1300.0) rotate(0.0) scale(0.8125) translate(-24 -24)" opacity="0.5"/>
<use href="#i-snowflake" transform="translate(1560.0 1430.0) rotate(20.0) scale(0.8125) translate(-24 -24)" opacity="0.5"/>
<use href="#i-penguin" transform="translate(1820.0 1300.0) rotate(0.0) scale(3.2500) translate(-24 -24)"/>
<use href="#i-snowflake" transform="translate(1950.0 1430.0) rotate(10.0) scale(3.2500) translate(-24 -24)"/>
<use href="#i-snowflake" transform="translate(1950.0 1300.0) rotate(0.0) scale(0.8125) translate(-24 -24)" opacity="0.5"/>
<use href="#i-snowflake" transform="translate(1820.0 1430.0) rotate(-5.0) scale(0.8125) translate(-24 -24)" opacity="0.5"/>
<use href="#i-penguin" transform="translate(2080.0 1300.0) rotate(-10.0) scale(3.2500) translate(-24 -24)"/>
<use href="#i-snowflake" transform="translate(2210.0 1430.0) rotate(-5.0) scale(3.2500) translate(-24 -24)"/>
<use href="#i-snowflake" transform="translate(2210.0 1300.0) rotate(15.0) scale(0.8125) translate(-24 -24)" opacity="0.5"/>
<use href="#i-snowflake" transform="translate(2080.0 1430.0) rotate(10.0) scale(0.8125) translate(-24 -24)" opacity="0.5"/>
<use href="#i-penguin" transform="translate(2340.0 1300.0) rotate(0.0) scale(3.2500) translate(-24 -24)"/>
<use href="#i-snowflake" transform="translate(2470.0 1430.0) rotate(-5.0) scale(3.2500) translate(-24 -24)"/>
<use href="#i-snowflake" transform="translate(2470.0 1300.0) rotate(-20.0) scale(0.8125) translate(-24 -24)" opacity="0.5"/>
<use href="#i-snowflake" transform="translate(2340.0 1430.0) rotate(-5.0) scale(0.8125) translate(-24 -24)" opacity="0.5"/>
<use href="#i-penguin" transform="translate(2600.0 1300.0) rotate(-10.0) scale(3.2500) translate(-24 -24)"/>
<use href="#i-snowflake" transform="translate(2730.0 1430.0) rotate(0.0) scale(3.2500) translate(-24 -24)"/>
<use href="#i-snowflake" transform="translate(2730.0 1300.0) rotate(-5.0) scale(0.8125) translate(-24 -24)" opacity="0.5"/>
<use href="#i-snowflake" transform="translate(2600.0 1430.0) rotate(20.0) scale(0.8125) translate(-24 -24)" opacity="0.5"/>
<use href="#i-penguin" transform="translate(2860.0 1300.0) rotate(10.0) scale(3.2500) translate(-24 -24)"/>
<use href="#i-snowflake" transform="translate(2990.0 1430.0) rotate(0.0) scale(3.2500) translate(-24 -24)"/>
<use href="#i-snowflake" transform="translate(2990.0 1300.0) rotate(-15.0) scale(0.8125) translate(-24 -24)" opacity="0.5"/>
<use href="#i-snowflake" transform="translate(2860.0 1430.0) rotate(15.0) scale(0.8125) translate(-24 -24)" opacity="0.5"/>
<use href="#i-penguin" transform="translate(3120.0 1300.0) rotate(0.0) scale(3.2500) translate(-24 -24)"/>
<use href="#i-snowflake" transform="translate(3250.0 1430.0) rotate(0.0) scale(3.2500) translate(-24 -24)"/>
<use href="#i-snowflake" transform="translate(3250.0 1300.0) rotate(-10.0) scale(0.8125) translate(-24 -24)" opacity="0.5"/>
<use href="#i-snowflake" transform="translate(3120.0 1430.0) rotate(20.0) scale(0.8125) translate(-24 -24)" opacity="0.5"/>
<use href="#i-penguin" transform="translate(3380.0 1300.0) rotate(-5.0) scale(3.2500) translate(-24 -24)"/>
<use href="#i-snowflake" transform="translate(3510.0 1430.0) rotate(-5.0) scale(3.2500) translate(-24 -24)"/>
<use href="#i-snowflake" transform="translate(3510.0 1300.0) rotate(0.0) scale(0.8125) translate(-24 -24)" opacity="0.5"/>
<use href="#i-snowflake" transform="translate(3380.0 1430.0) rotate(-15.0) scale(0.8125) translate(-24 -24)" opacity="0.5"/>
<use href="#i-penguin" transform="translate(-520.0 1560.0) rotate(-5.0) scale(3.2500) translate(-24 -24)"/>
<use href="#i-snowflake" transform="translate(-390.0 1690.0) rotate(5.0) scale(3.2500) translate(-24 -24)"/>
<use href="#i-snowflake" transform="translate(-390.0 1560.0) rotate(-20.0) scale(0.8125) translate(-24 -24)" opacity="0.5"/>
<use href="#i-snowflake" transform="translate(-520.0 1690.0) rotate(-25.0) scale(0.8125) translate(-24 -24)" opacity="0.5"/>
<use href="#i-penguin" transform="translate(-260.0 1560.0) rotate(10.0) scale(3.2500) translate(-24 -24)"/>
<use href="#i-snowflake" transform="translate(-130.0 1690.0) rotate(-5.0) scale(3.2500) translate(-24 -24)"/>
<use href="#i-snowflake" transform="translate(-130.0 1560.0) rotate(10.0) scale(0.8125) translate(-24 -24)" opacity="0.5"/>
<use href="#i-snowflake" transform="translate(-260.0 1690.0) rotate(0.0) scale(0.8125) translate(-24 -24)" opacity="0.5"/>
<use href="#i-penguin" transform="translate(0.0 1560.0) rotate(-5.0) scale(3.2500) translate(-24 -24)"/>
<use href="#i-snowflake" transform="translate(130.0 1690.0) rotate(-5.0) scale(3.2500) translate(-24 -24)"/>
<use href="#i-snowflake" transform="translate(130.0 1560.0) rotate(15.0) scale(0.8125) translate(-24 -24)" opacity="0.5"/>
<use href="#i-snowflake" transform="translate(0.0 1690.0) rotate(-25.0) scale(0.8125) translate(-24 -24)" opacity="0.5"/>
<use href="#i-penguin" transform="translate(260.0 1560.0) rotate(-5.0) scale(3.2500) translate(-24 -24)"/>
<use href="#i-snowflake" transform="translate(390.0 1690.0) rotate(-10.0) scale(3.2500) translate(-24 -24)"/>
<use href="#i-snowflake" transform="translate(390.0 1560.0) rotate(10.0) scale(0.8125) translate(-24 -24)" opacity="0.5"/>
<use href="#i-snowflake" transform="translate(260.0 1690.0) rotate(-15.0) scale(0.8125) translate(-24 -24)" opacity="0.5"/>
<use href="#i-penguin" transform="translate(520.0 1560.0) rotate(0.0) scale(3.2500) translate(-24 -24)"/>
<use href="#i-snowflake" transform="translate(650.0 1690.0) rotate(-5.0) scale(3.2500) translate(-24 -24)"/>
<use href="#i-snowflake" transform="translate(650.0 1560.0) rotate(-5.0) scale(0.8125) translate(-24 -24)" opacity="0.5"/>
<use href="#i-snowflake" transform="translate(520.0 1690.0) rotate(-15.0) scale(0.8125) translate(-24 -24)" opacity="0.5"/>
<use href="#i-penguin" transform="translate(780.0 1560.0) rotate(0.0) scale(3.2500) translate(-24 -24)"/>
<use href="#i-snowflake" transform="translate(910.0 1690.0) rotate(5.0) scale(3.2500) translate(-24 -24)"/>
<use href="#i-snowflake" transform="translate(910.0 1560.0) rotate(-5.0) scale(0.8125) translate(-24 -24)" opacity="0.5"/>
<use href="#i-snowflake" transform="translate(780.0 1690.0) rotate(0.0) scale(0.8125) translate(-24 -24)" opacity="0.5"/>
<use href="#i-penguin" transform="translate(1040.0 1560.0) rotate(-5.0) scale(3.2500) translate(-24 -24)"/>
<use href="#i-snowflake" transform="translate(1170.0 1690.0) rotate(5.0) scale(3.2500) translate(-24 -24)"/>
<use href="#i-snowflake" transform="translate(1170.0 1560.0) rotate(-15.0) scale(0.8125) translate(-24 -24)" opacity="0.5"/>
<use href="#i-snowflake" transform="translate(1040.0 1690.0) rotate(15.0) scale(0.8125) translate(-24 -24)" opacity="0.5"/>
<use href="#i-penguin" transform="translate(1300.0 1560.0) rotate(10.0) scale(3.2500) translate(-24 -24)"/>
<use href="#i-snowflake" transform="translate(1430.0 1690.0) rotate(0.0) scale(3.2500) translate(-24 -24)"/>
<use href="#i-snowflake" transform="translate(1430.0 1560.0) rotate(-20.0) scale(0.8125) translate(-24 -24)" opacity="0.5"/>
<use href="#i-snowflake" transform="translate(1300.0 1690.0) rotate(10.0) scale(0.8125) translate(-24 -24)" opacity="0.5"/>
<use href="#i-penguin" transform="translate(1560.0 1560.0) rotate(0.0) scale(3.2500) translate(-24 -24)"/>
<use href="#i-snowflake" transform="translate(1690.0 1690.0) rotate(0.0) scale(3.2500) translate(-24 -24)"/>
<use href="#i-snowflake" transform="translate(1690.0 1560.0) rotate(-10.0) scale(0.8125) translate(-24 -24)" opacity="0.5"/>
<use href="#i-snowflake" transform="translate(1560.0 1690.0) rotate(5.0) scale(0.8125) translate(-24 -24)" opacity="0.5"/>
<use href="#i-penguin" transform="translate(1820.0 1560.0) rotate(-5.0) scale(3.2500) translate(-24 -24)"/>
<use href="#i-snowflake" transform="translate(1950.0 1690.0) rotate(0.0) scale(3.2500) translate(-24 -24)"/>
<use href="#i-snowflake" transform="translate(1950.0 1560.0) rotate(-25.0) scale(0.8125) translate(-24 -24)" opacity="0.5"/>
<use href="#i-snowflake" transform="translate(1820.0 1690.0) rotate(15.0) scale(0.8125) translate(-24 -24)" opacity="0.5"/>
<use href="#i-penguin" transform="translate(2080.0 1560.0) rotate(0.0) scale(3.2500) translate(-24 -24)"/>
<use href="#i-snowflake" transform="translate(2210.0 1690.0) rotate(5.0) scale(3.2500) translate(-24 -24)"/>
<use href="#i-snowflake" transform="translate(2210.0 1560.0) rotate(25.0) scale(0.8125) translate(-24 -24)" opacity="0.5"/>
<use href="#i-snowflake" transform="translate(2080.0 1690.0) rotate(15.0) scale(0.8125) translate(-24 -24)" opacity="0.5"/>
<use href="#i-penguin" transform="translate(2340.0 1560.0) rotate(-10.0) scale(3.2500) translate(-24 -24)"/>
<use href="#i-snowflake" transform="translate(2470.0 1690.0) rotate(0.0) scale(3.2500) translate(-24 -24)"/>
<use href="#i-snowflake" transform="translate(2470.0 1560.0) rotate(5.0) scale(0.8125) translate(-24 -24)" opacity="0.5"/>
<use href="#i-snowflake" transform="translate(2340.0 1690.0) rotate(15.0) scale(0.8125) translate(-24 -24)" opacity="0.5"/>
<use href="#i-penguin" transform="translate(2600.0 1560.0) rotate(0.0) scale(3.2500) translate(-24 -24)"/>
<use href="#i-snowflake" transform="translate(2730.0 1690.0) rotate(0.0) scale(3.2500) translate(-24 -24)"/>
<use href="#i-snowflake" transform="translate(2730.0 1560.0) rotate(-25.0) scale(0.8125) translate(-24 -24)" opacity="0.5"/>
<use href="#i-snowflake" transform="translate(2600.0 1690.0) rotate(-15.0) scale(0.8125) translate(-24 -24)" opacity="0.5"/>
<use href="#i-penguin" transform="translate(2860.0 1560.0) rotate(-5.0) scale(3.2500) translate(-24 -24)"/>
<use href="#i-snowflake" transform="translate(2990.0 1690.0) rotate(0.0) scale(3.2500) translate(-24 -24)"/>
<use href="#i-snowflake" transform="translate(2990.0 1560.0) rotate(10.0) scale(0.8125) translate(-24 -24)" opacity="0.5"/>
<use href="#i-snowflake" transform="translate(2860.0 1690.0) rotate(20.0) scale(0.8125) translate(-24 -24)" opacity="0.5"/>
<use href="#i-penguin" transform="translate(3120.0 1560.0) rotate(0.0) scale(3.2500) translate(-24 -24)"/>
<use href="#i-snowflake" transform="translate(3250.0 1690.0) rotate(0.0) scale(3.2500) translate(-24 -24)"/>
<use href="#i-snowflake" transform="translate(3250.0 1560.0) rotate(-5.0) scale(0.8125) translate(-24 -24)" opacity="0.5"/>
<use href="#i-snowflake" transform="translate(3120.0 1690.0) rotate(20.0) scale(0.8125) translate(-24 -24)" opacity="0.5"/>
<use href="#i-penguin" transform="translate(3380.0 1560.0) rotate(-5.0) scale(3.2500) translate(-24 -24)"/>
<use href="#i-snowflake" transform="translate(3510.0 1690.0) rotate(-5.0) scale(3.2500) translate(-24 -24)"/>
<use href="#i-snowflake" transform="translate(3510.0 1560.0) rotate(-15.0) scale(0.8125) translate(-24 -24)" opacity="0.5"/>
<use href="#i-snowflake" transform="translate(3380.0 1690.0) rotate(15.0) scale(0.8125) translate(-24 -24)" opacity="0.5"/>
<use href="#i-penguin" transform="translate(-520.0 1820.0) rotate(-10.0) scale(3.2500) translate(-24 -24)"/>
<use href="#i-snowflake" transform="translate(-390.0 1950.0) rotate(5.0) scale(3.2500) translate(-24 -24)"/>
<use href="#i-snowflake" transform="translate(-390.0 1820.0) rotate(25.0) scale(0.8125) translate(-24 -24)" opacity="0.5"/>
<use href="#i-snowflake" transform="translate(-520.0 1950.0) rotate(15.0) scale(0.8125) translate(-24 -24)" opacity="0.5"/>
<use href="#i-penguin" transform="translate(-260.0 1820.0) rotate(5.0) scale(3.2500) translate(-24 -24)"/>
<use href="#i-snowflake" transform="translate(-130.0 1950.0) rotate(5.0) scale(3.2500) translate(-24 -24)"/>
<use href="#i-snowflake" transform="translate(-130.0 1820.0) rotate(10.0) scale(0.8125) translate(-24 -24)" opacity="0.5"/>
<use href="#i-snowflake" transform="translate(-260.0 1950.0) rotate(0.0) scale(0.8125) translate(-24 -24)" opacity="0.5"/>
<use href="#i-penguin" transform="translate(0.0 1820.0) rotate(-10.0) scale(3.2500) translate(-24 -24)"/>
<use href="#i-snowflake" transform="translate(130.0 1950.0) rotate(0.0) scale(3.2500) translate(-24 -24)"/>
<use href="#i-snowflake" transform="translate(130.0 1820.0) rotate(-15.0) scale(0.8125) translate(-24 -24)" opacity="0.5"/>
<use href="#i-snowflake" transform="translate(0.0 1950.0) rotate(-15.0) scale(0.8125) translate(-24 -24)" opacity="0.5"/>
<use href="#i-penguin" transform="translate(260.0 1820.0) rotate(-10.0) scale(3.2500) translate(-24 -24)"/>
<use href="#i-snowflake" transform="translate(390.0 1950.0) rotate(0.0) scale(3.2500) translate(-24 -24)"/>
<use href="#i-snowflake" transform="translate(390.0 1820.0) rotate(-10.0) scale(0.8125) translate(-24 -24)" opacity="0.5"/>
<use href="#i-snowflake" transform="translate(260.0 1950.0) rotate(0.0) scale(0.8125) translate(-24 -24)" opacity="0.5"/>
<use href="#i-penguin" transform="translate(520.0 1820.0) rotate(-10.0) scale(3.2500) translate(-24 -24)"/>
<use href="#i-snowflake" transform="translate(650.0 1950.0) rotate(5.0) scale(3.2500) translate(-24 -24)"/>
<use href="#i-snowflake" transform="translate(650.0 1820.0) rotate(20.0) scale(0.8125) translate(-24 -24)" opacity="0.5"/>
<use href="#i-snowflake" transform="translate(520.0 1950.0) rotate(0.0) scale(0.8125) translate(-24 -24)" opacity="0.5"/>
<use href="#i-penguin" transform="translate(780.0 1820.0) rotate(0.0) scale(3.2500) translate(-24 -24)"/>
<use href="#i-snowflake" transform="translate(910.0 1950.0) rotate(-5.0) scale(3.2500) translate(-24 -24)"/>
<use href="#i-snowflake" transform="translate(910.0 1820.0) rotate(-20.0) scale(0.8125) translate(-24 -24)" opacity="0.5"/>
<use href="#i-snowflake" transform="translate(780.0 1950.0) rotate(-25.0) scale(0.8125) translate(-24 -24)" opacity="0.5"/>
<use href="#i-penguin" transform="translate(1040.0 1820.0) rotate(-10.0) scale(3.2500) translate(-24 -24)"/>
<use href="#i-snowflake" transform="translate(1170.0 1950.0) rotate(5.0) scale(3.2500) translate(-24 -24)"/>
<use href="#i-snowflake" transform="translate(1170.0 1820.0) rotate(5.0) scale(0.8125) translate(-24 -24)" opacity="0.5"/>
<use href="#i-snowflake" transform="translate(1040.0 1950.0) rotate(15.0) scale(0.8125) translate(-24 -24)" opacity="0.5"/>
<use href="#i-penguin" transform="translate(1300.0 1820.0) rotate(10.0) scale(3.2500) translate(-24 -24)"/>
<use href="#i-snowflake" transform="translate(1430.0 1950.0) rotate(0.0) scale(3.2500) translate(-24 -24)"/>
<use href="#i-snowflake" transform="translate(1430.0 1820.0) rotate(0.0) scale(0.8125) translate(-24 -24)" opacity="0.5"/>
<use href="#i-snowflake" transform="translate(1300.0 1950.0) rotate(15.0) scale(0.8125) translate(-24 -24)" opacity="0.5"/>
<use href="#i-penguin" transform="translate(1560.0 1820.0) rotate(10.0) scale(3.2500) translate(-24 -24)"/>
<use href="#i-snowflake" transform="translate(1690.0 1950.0) rotate(-10.0) scale(3.2500) translate(-24 -24)"/>
<use href="#i-snowflake" transform="translate(1690.0 1820.0) rotate(0.0) scale(0.8125) translate(-24 -24)" opacity="0.5"/>
<use href="#i-snowflake" transform="translate(1560.0 1950.0) rotate(20.0) scale(0.8125) translate(-24 -24)" opacity="0.5"/>
<use href="#i-penguin" transform="translate(1820.0 1820.0) rotate(-5.0) scale(3.2500) translate(-24 -24)"/>
<use href="#i-snowflake" transform="translate(1950.0 1950.0) rotate(5.0) scale(3.2500) translate(-24 -24)"/>
<use href="#i-snowflake" transform="translate(1950.0 1820.0) rotate(0.0) scale(0.8125) translate(-24 -24)" opacity="0.5"/>
<use href="#i-snowflake" transform="translate(1820.0 1950.0) rotate(20.0) scale(0.8125) translate(-24 -24)" opacity="0.5"/>
<use href="#i-penguin" transform="translate(2080.0 1820.0) rotate(-5.0) scale(3.2500) translate(-24 -24)"/>
<use href="#i-snowflake" transform="translate(2210.0 1950.0) rotate(-5.0) scale(3.2500) translate(-24 -24)"/>
<use href="#i-snowflake" transform="translate(2210.0 1820.0) rotate(-5.0) scale(0.8125) translate(-24 -24)" opacity="0.5"/>
<use href="#i-snowflake" transform="translate(2080.0 1950.0) rotate(-15.0) scale(0.8125) translate(-24 -24)" opacity="0.5"/>
<use href="#i-penguin" transform="translate(2340.0 1820.0) rotate(-10.0) scale(3.2500) translate(-24 -24)"/>
<use href="#i-snowflake" transform="translate(2470.0 1950.0) rotate(-5.0) scale(3.2500) translate(-24 -24)"/>
<use href="#i-snowflake" transform="translate(2470.0 1820.0) rotate(-25.0) scale(0.8125) translate(-24 -24)" opacity="0.5"/>
<use href="#i-snowflake" transform="translate(2340.0 1950.0) rotate(-10.0) scale(0.8125) translate(-24 -24)" opacity="0.5"/>
<use href="#i-penguin" transform="translate(2600.0 1820.0) rotate(0.0) scale(3.2500) translate(-24 -24)"/>
<use href="#i-snowflake" transform="translate(2730.0 1950.0) rotate(0.0) scale(3.2500) translate(-24 -24)"/>
<use href="#i-snowflake" transform="translate(2730.0 1820.0) rotate(-20.0) scale(0.8125) translate(-24 -24)" opacity="0.5"/>
<use href="#i-snowflake" transform="translate(2600.0 1950.0) rotate(10.0) scale(0.8125) translate(-24 -24)" opacity="0.5"/>
<use href="#i-penguin" transform="translate(2860.0 1820.0) rotate(5.0) scale(3.2500) translate(-24 -24)"/>
<use href="#i-snowflake" transform="translate(2990.0 1950.0) rotate(5.0) scale(3.2500) translate(-24 -24)"/>
<use href="#i-snowflake" transform="translate(2990.0 1820.0) rotate(25.0) scale(0.8125) translate(-24 -24)" opacity="0.5"/>
<use href="#i-snowflake" transform="translate(2860.0 1950.0) rotate(-5.0) scale(0.8125) translate(-24 -24)" opacity="0.5"/>
<use href="#i-penguin" transform="translate(3120.0 1820.0) rotate(5.0) scale(3.2500) translate(-24 -24)"/>
<use href="#i-snowflake" transform="translate(3250.0 1950.0) rotate(5.0) scale(3.2500) translate(-24 -24)"/>
<use href="#i-snowflake" transform="translate(3250.0 1820.0) rotate(-5.0) scale(0.8125) translate(-24 -24)" opacity="0.5"/>
<use href="#i-snowflake" transform="translate(3120.0 1950.0) rotate(10.0) scale(0.8125) translate(-24 -24)" opacity="0.5"/>
<use href="#i-penguin" transform="translate(3380.0 1820.0) rotate(10.0) scale(3.2500) translate(-24 -24)"/>
<use href="#i-snowflake" transform="translate(3510.0 1950.0) rotate(-5.0) scale(3.2500) translate(-24 -24)"/>
<use href="#i-snowflake" transform="translate(3510.0 1820.0) rotate(-5.0) scale(0.8125) translate(-24 -24)" opacity="0.5"/>
<use href="#i-snowflake" transform="translate(3380.0 1950.0) rotate(20.0) scale(0.8125) translate(-24 -24)" opacity="0.5"/>
<use href="#i-penguin" transform="translate(-520.0 2080.0) rotate(0.0) scale(3.2500) translate(-24 -24)"/>
<use href="#i-snowflake" transform="translate(-390.0 2210.0) rotate(5.0) scale(3.2500) translate(-24 -24)"/>
<use href="#i-snowflake" transform="translate(-390.0 2080.0) rotate(-15.0) scale(0.8125) translate(-24 -24)" opacity="0.5"/>
<use href="#i-snowflake" transform="translate(-520.0 2210.0) rotate(5.0) scale(0.8125) translate(-24 -24)" opacity="0.5"/>
<use href="#i-penguin" transform="translate(-260.0 2080.0) rotate(-10.0) scale(3.2500) translate(-24 -24)"/>
<use href="#i-snowflake" transform="translate(-130.0 2210.0) rotate(-10.0) scale(3.2500) translate(-24 -24)"/>
<use href="#i-snowflake" transform="translate(-130.0 2080.0) rotate(10.0) scale(0.8125) translate(-24 -24)" opacity="0.5"/>
<use href="#i-snowflake" transform="translate(-260.0 2210.0) rotate(10.0) scale(0.8125) translate(-24 -24)" opacity="0.5"/>
<use href="#i-penguin" transform="translate(0.0 2080.0) rotate(5.0) scale(3.2500) translate(-24 -24)"/>
<use href="#i-snowflake" transform="translate(130.0 2210.0) rotate(-10.0) scale(3.2500) translate(-24 -24)"/>
<use href="#i-snowflake" transform="translate(130.0 2080.0) rotate(-10.0) scale(0.8125) translate(-24 -24)" opacity="0.5"/>
<use href="#i-snowflake" transform="translate(0.0 2210.0) rotate(-10.0) scale(0.8125) translate(-24 -24)" opacity="0.5"/>
<use href="#i-penguin" transform="translate(260.0 2080.0) rotate(0.0) scale(3.2500) translate(-24 -24)"/>
<use href="#i-snowflake" transform="translate(390.0 2210.0) rotate(0.0) scale(3.2500) translate(-24 -24)"/>
<use href="#i-snowflake" transform="translate(390.0 2080.0) rotate(-20.0) scale(0.8125) translate(-24 -24)" opacity="0.5"/>
<use href="#i-snowflake" transform="translate(260.0 2210.0) rotate(-15.0) scale(0.8125) translate(-24 -24)" opacity="0.5"/>
<use href="#i-penguin" transform="translate(520.0 2080.0) rotate(5.0) scale(3.2500) translate(-24 -24)"/>
<use href="#i-snowflake" transform="translate(650.0 2210.0) rotate(5.0) scale(3.2500) translate(-24 -24)"/>
<use href="#i-snowflake" transform="translate(650.0 2080.0) rotate(20.0) scale(0.8125) translate(-24 -24)" opacity="0.5"/>
<use href="#i-snowflake" transform="translate(520.0 2210.0) rotate(0.0) scale(0.8125) translate(-24 -24)" opacity="0.5"/>
<use href="#i-penguin" transform="translate(780.0 2080.0) rotate(-5.0) scale(3.2500) translate(-24 -24)"/>
<use href="#i-snowflake" transform="translate(910.0 2210.0) rotate(-10.0) scale(3.2500) translate(-24 -24)"/>
<use href="#i-snowflake" transform="translate(910.0 2080.0) rotate(20.0) scale(0.8125) translate(-24 -24)" opacity="0.5"/>
<use href="#i-snowflake" transform="translate(780.0 2210.0) rotate(-10.0) scale(0.8125) translate(-24 -24)" opacity="0.5"/>
<use href="#i-penguin" transform="translate(1040.0 2080.0) rotate(0.0) scale(3.2500) translate(-24 -24)"/>
<use href="#i-snowflake" transform="translate(1170.0 2210.0) rotate(5.0) scale(3.2500) translate(-24 -24)"/>
<use href="#i-snowflake" transform="translate(1170.0 2080.0) rotate(5.0) scale(0.8125) translate(-24 -24)" opacity="0.5"/>
<use href="#i-snowflake" transform="translate(1040.0 2210.0) rotate(0.0) scale(0.8125) translate(-24 -24)" opacity="0.5"/>
<use href="#i-penguin" transform="translate(1300.0 2080.0) rotate(5.0) scale(3.2500) translate(-24 -24)"/>
<use href="#i-snowflake" transform="translate(1430.0 2210.0) rotate(5.0) scale(3.2500) translate(-24 -24)"/>
<use href="#i-snowflake" transform="translate(1430.0 2080.0) rotate(10.0) scale(0.8125) translate(-24 -24)" opacity="0.5"/>
<use href="#i-snowflake" transform="translate(1300.0 2210.0) rotate(0.0) scale(0.8125) translate(-24 -24)" opacity="0.5"/>
<use href="#i-penguin" transform="translate(1560.0 2080.0) rotate(0.0) scale(3.2500) translate(-24 -24)"/>
<use href="#i-snowflake" transform="translate(1690.0 2210.0) rotate(0.0) scale(3.2500) translate(-24 -24)"/>
<use href="#i-snowflake" transform="translate(1690.0 2080.0) rotate(15.0) scale(0.8125) translate(-24 -24)" opacity="0.5"/>
<use href="#i-snowflake" transform="translate(1560.0 2210.0) rotate(-25.0) scale(0.8125) translate(-24 -24)" opacity="0.5"/>
<use href="#i-penguin" transform="translate(1820.0 2080.0) rotate(-5.0) scale(3.2500) translate(-24 -24)"/>
<use href="#i-snowflake" transform="translate(1950.0 2210.0) rotate(-5.0) scale(3.2500) translate(-24 -24)"/>
<use href="#i-snowflake" transform="translate(1950.0 2080.0) rotate(15.0) scale(0.8125) translate(-24 -24)" opacity="0.5"/>
<use href="#i-snowflake" transform="translate(1820.0 2210.0) rotate(-15.0) scale(0.8125) translate(-24 -24)" opacity="0.5"/>
<use href="#i-penguin" transform="translate(2080.0 2080.0) rotate(5.0) scale(3.2500) translate(-24 -24)"/>
<use href="#i-snowflake" transform="translate(2210.0 2210.0) rotate(5.0) scale(3.2500) translate(-24 -24)"/>
<use href="#i-snowflake" transform="translate(2210.0 2080.0) rotate(5.0) scale(0.8125) translate(-24 -24)" opacity="0.5"/>
<use href="#i-snowflake" transform="translate(2080.0 2210.0) rotate(-10.0) scale(0.8125) translate(-24 -24)" opacity="0.5"/>
<use href="#i-penguin" transform="translate(2340.0 2080.0) rotate(-10.0) scale(3.2500) translate(-24 -24)"/>
<use href="#i-snowflake" transform="translate(2470.0 2210.0) rotate(5.0) scale(3.2500) translate(-24 -24)"/>
<use href="#i-snowflake" transform="translate(2470.0 2080.0) rotate(10.0) scale(0.8125) translate(-24 -24)" opacity="0.5"/>
<use href="#i-snowflake" transform="translate(2340.0 2210.0) rotate(0.0) scale(0.8125) translate(-24 -24)" opacity="0.5"/>
<use href="#i-penguin" transform="translate(2600.0 2080.0) rotate(-5.0) scale(3.2500) translate(-24 -24)"/>
<use href="#i-snowflake" transform="translate(2730.0 2210.0) rotate(5.0) scale(3.2500) translate(-24 -24)"/>
<use href="#i-snowflake" transform="translate(2730.0 2080.0) rotate(20.0) scale(0.8125) translate(-24 -24)" opacity="0.5"/>
<use href="#i-snowflake" transform="translate(2600.0 2210.0) rotate(-20.0) scale(0.8125) translate(-24 -24)" opacity="0.5"/>
<use href="#i-penguin" transform="translate(2860.0 2080.0) rotate(0.0) scale(3.2500) translate(-24 -24)"/>
<use href="#i-snowflake" transform="translate(2990.0 2210.0) rotate(10.0) scale(3.2500) translate(-24 -24)"/>
<use href="#i-snowflake" transform="translate(2990.0 2080.0) rotate(-5.0) scale(0.8125) translate(-24 -24)" opacity="0.5"/>
<use href="#i-snowflake" transform="translate(2860.0 2210.0) rotate(-10.0) scale(0.8125) translate(-24 -24)" opacity="0.5"/>
<use href="#i-penguin" transform="translate(3120.0 2080.0) rotate(0.0) scale(3.2500) translate(-24 -24)"/>
<use href="#i-snowflake" transform="translate(3250.0 2210.0) rotate(5.0) scale(3.2500) translate(-24 -24)"/>
<use href="#i-snowflake" transform="translate(3250.0 2080.0) rotate(-20.0) scale(0.8125) translate(-24 -24)" opacity="0.5"/>
<use href="#i-snowflake" transform="translate(3120.0 2210.0) rotate(-25.0) scale(0.8125) translate(-24 -24)" opacity="0.5"/>
<use href="#i-penguin" transform="translate(3380.0 2080.0) rotate(5.0) scale(3.2500) translate(-24 -24)"/>
<use href="#i-snowflake" transform="translate(3510.0 2210.0) rotate(5.0) scale(3.2500) translate(-24 -24)"/>
<use href="#i-snowflake" transform="translate(3510.0 2080.0) rotate(-5.0) scale(0.8125) translate(-24 -24)" opacity="0.5"/>
<use href="#i-snowflake" transform="translate(3380.0 2210.0) rotate(5.0) scale(0.8125) translate(-24 -24)" opacity="0.5"/>
<use href="#i-penguin" transform="translate(-520.0 2340.0) rotate(0.0) scale(3.2500) translate(-24 -24)"/>
<use href="#i-snowflake" transform="translate(-390.0 2470.0) rotate(-5.0) scale(3.2500) translate(-24 -24)"/>
<use href="#i-snowflake" transform="translate(-390.0 2340.0) rotate(10.0) scale(0.8125) translate(-24 -24)" opacity="0.5"/>
<use href="#i-snowflake" transform="translate(-520.0 2470.0) rotate(20.0) scale(0.8125) translate(-24 -24)" opacity="0.5"/>
<use href="#i-penguin" transform="translate(-260.0 2340.0) rotate(10.0) scale(3.2500) translate(-24 -24)"/>
<use href="#i-snowflake" transform="translate(-130.0 2470.0) rotate(5.0) scale(3.2500) translate(-24 -24)"/>
<use href="#i-snowflake" transform="translate(-130.0 2340.0) rotate(20.0) scale(0.8125) translate(-24 -24)" opacity="0.5"/>
<use href="#i-snowflake" transform="translate(-260.0 2470.0) rotate(-15.0) scale(0.8125) translate(-24 -24)" opacity="0.5"/>
<use href="#i-penguin" transform="translate(0.0 2340.0) rotate(5.0) scale(3.2500) translate(-24 -24)"/>
<use href="#i-snowflake" transform="translate(130.0 2470.0) rotate(5.0) scale(3.2500) translate(-24 -24)"/>
<use href="#i-snowflake" transform="translate(130.0 2340.0) rotate(-15.0) scale(0.8125) translate(-24 -24)" opacity="0.5"/>
<use href="#i-snowflake" transform="translate(0.0 2470.0) rotate(-5.0) scale(0.8125) translate(-24 -24)" opacity="0.5"/>
<use href="#i-penguin" transform="translate(260.0 2340.0) rotate(-5.0) scale(3.2500) translate(-24 -24)"/>
<use href="#i-snowflake" transform="translate(390.0 2470.0) rotate(-5.0) scale(3.2500) translate(-24 -24)"/>
<use href="#i-snowflake" transform="translate(390.0 2340.0) rotate(-15.0) scale(0.8125) translate(-24 -24)" opacity="0.5"/>
<use href="#i-snowflake" transform="translate(260.0 2470.0) rotate(20.0) scale(0.8125) translate(-24 -24)" opacity="0.5"/>
<use href="#i-penguin" transform="translate(520.0 2340.0) rotate(5.0) scale(3.2500) translate(-24 -24)"/>
<use href="#i-snowflake" transform="translate(650.0 2470.0) rotate(5.0) scale(3.2500) translate(-24 -24)"/>
<use href="#i-snowflake" transform="translate(650.0 2340.0) rotate(15.0) scale(0.8125) translate(-24 -24)" opacity="0.5"/>
<use href="#i-snowflake" transform="translate(520.0 2470.0) rotate(20.0) scale(0.8125) translate(-24 -24)" opacity="0.5"/>
<use href="#i-penguin" transform="translate(780.0 2340.0) rotate(10.0) scale(3.2500) translate(-24 -24)"/>
<use href="#i-snowflake" transform="translate(910.0 2470.0) rotate(-5.0) scale(3.2500) translate(-24 -24)"/>
<use href="#i-snowflake" transform="translate(910.0 2340.0) rotate(10.0) scale(0.8125) translate(-24 -24)" opacity="0.5"/>
<use href="#i-snowflake" transform="translate(780.0 2470.0) rotate(-5.0) scale(0.8125) translate(-24 -24)" opacity="0.5"/>
<use href="#i-penguin" transform="translate(1040.0 2340.0) rotate(0.0) scale(3.2500) translate(-24 -24)"/>
<use href="#i-snowflake" transform="translate(1170.0 2470.0) rotate(-5.0) scale(3.2500) translate(-24 -24)"/>
<use href="#i-snowflake" transform="translate(1170.0 2340.0) rotate(20.0) scale(0.8125) translate(-24 -24)" opacity="0.5"/>
<use href="#i-snowflake" transform="translate(1040.0 2470.0) rotate(5.0) scale(0.8125) translate(-24 -24)" opacity="0.5"/>
<use href="#i-penguin" transform="translate(1300.0 2340.0) rotate(10.0) scale(3.2500) translate(-24 -24)"/>
<use href="#i-snowflake" transform="translate(1430.0 2470.0) rotate(-5.0) scale(3.2500) translate(-24 -24)"/>
<use href="#i-snowflake" transform="translate(1430.0 2340.0) rotate(-15.0) scale(0.8125) translate(-24 -24)" opacity="0.5"/>
<use href="#i-snowflake" transform="translate(1300.0 2470.0) rotate(20.0) scale(0.8125) translate(-24 -24)" opacity="0.5"/>
<use href="#i-penguin" transform="translate(1560.0 2340.0) rotate(-5.0) scale(3.2500) translate(-24 -24)"/>
<use href="#i-snowflake" transform="translate(1690.0 2470.0) rotate(-5.0) scale(3.2500) translate(-24 -24)"/>
<use href="#i-snowflake" transform="translate(1690.0 2340.0) rotate(-15.0) scale(0.8125) translate(-24 -24)" opacity="0.5"/>
<use href="#i-snowflake" transform="translate(1560.0 2470.0) rotate(15.0) scale(0.8125) translate(-24 -24)" opacity="0.5"/>
<use href="#i-penguin" transform="translate(1820.0 2340.0) rotate(10.0) scale(3.2500) translate(-24 -24)"/>
<use href="#i-snowflake" transform="translate(1950.0 2470.0) rotate(0.0) scale(3.2500) translate(-24 -24)"/>
<use href="#i-snowflake" transform="translate(1950.0 2340.0) rotate(10.0) scale(0.8125) translate(-24 -24)" opacity="0.5"/>
<use href="#i-snowflake" transform="translate(1820.0 2470.0) rotate(-15.0) scale(0.8125) translate(-24 -24)" opacity="0.5"/>
<use href="#i-penguin" transform="translate(2080.0 2340.0) rotate(-5.0) scale(3.2500) translate(-24 -24)"/>
<use href="#i-snowflake" transform="translate(2210.0 2470.0) rotate(0.0) scale(3.2500) translate(-24 -24)"/>
<use href="#i-snowflake" transform="translate(2210.0 2340.0) rotate(25.0) scale(0.8125) translate(-24 -24)" opacity="0.5"/>
<use href="#i-snowflake" transform="translate(2080.0 2470.0) rotate(10.0) scale(0.8125) translate(-24 -24)" opacity="0.5"/>
<use href="#i-penguin" transform="translate(2340.0 2340.0) rotate(-5.0) scale(3.2500) translate(-24 -24)"/>
<use href="#i-snowflake" transform="translate(2470.0 2470.0) rotate(0.0) scale(3.2500) translate(-24 -24)"/>
<use href="#i-snowflake" transform="translate(2470.0 2340.0) rotate(15.0) scale(0.8125) translate(-24 -24)" opacity="0.5"/>
<use href="#i-snowflake" transform="translate(2340.0 2470.0) rotate(20.0) scale(0.8125) translate(-24 -24)" opacity="0.5"/>
<use href="#i-penguin" transform="translate(2600.0 2340.0) rotate(-10.0) scale(3.2500) translate(-24 -24)"/>
<use href="#i-snowflake" transform="translate(2730.0 2470.0) rotate(10.0) scale(3.2500) translate(-24 -24)"/>
<use href="#i-snowflake" transform="translate(2730.0 2340.0) rotate(20.0) scale(0.8125) translate(-24 -24)" opacity="0.5"/>
<use href="#i-snowflake" transform="translate(2600.0 2470.0) rotate(20.0) scale(0.8125) translate(-24 -24)" opacity="0.5"/>
<use href="#i-penguin" transform="translate(2860.0 2340.0) rotate(0.0) scale(3.2500) translate(-24 -24)"/>
<use href="#i-snowflake" transform="translate(2990.0 2470.0) rotate(5.0) scale(3.2500) translate(-24 -24)"/>
<use href="#i-snowflake" transform="translate(2990.0 2340.0) rotate(0.0) scale(0.8125) translate(-24 -24)" opacity="0.5"/>
<use href="#i-snowflake" transform="translate(2860.0 2470.0) rotate(10.0) scale(0.8125) translate(-24 -24)" opacity="0.5"/>
<use href="#i-penguin" transform="translate(3120.0 2340.0) rotate(5.0) scale(3.2500) translate(-24 -24)"/>
<use href="#i-snowflake" transform="translate(3250.0 2470.0) rotate(-5.0) scale(3.2500) translate(-24 -24)"/>
<use href="#i-snowflake" transform="translate(3250.0 2340.0) rotate(10.0) scale(0.8125) translate(-24 -24)" opacity="0.5"/>
<use href="#i-snowflake" transform="translate(3120.0 2470.0) rotate(-10.0) scale(0.8125) translate(-24 -24)" opacity="0.5"/>
<use href="#i-penguin" transform="translate(3380.0 2340.0) rotate(-5.0) scale(3.2500) translate(-24 -24)"/>
<use href="#i-snowflake" transform="translate(3510.0 2470.0) rotate(0.0) scale(3.2500) translate(-24 -24)"/>
<use href="#i-snowflake" transform="translate(3510.0 2340.0) rotate(15.0) scale(0.8125) translate(-24 -24)" opacity="0.5"/>
<use href="#i-snowflake" transform="translate(3380.0 2470.0) rotate(-20.0) scale(0.8125) translate(-24 -24)" opacity="0.5"/>
</g>
</svg>