<svg xmlns="http://www.w3.org/2000/svg" width="2560" height="1440" viewBox="0 0 2560 1440" role="img" aria-label="Bicycle Day">
<defs>
<g id="i-bicycle"><circle cx="13" cy="33" r="8" fill="none" stroke="#2A2A2A" stroke-width="3"/>
<circle cx="35" cy="33" r="8" fill="none" stroke="#2A2A2A" stroke-width="3"/>
<path d="M13 33 L 20 21 L 31 21" stroke="#2A2A2A" stroke-width="3" fill="none"/>
<path d="M20 21 L 26 33 L 13 33" stroke="#2A2A2A" stroke-width="3" fill="none"/>
<path d="M26 33 L 35 33 L 31 21" stroke="#2A2A2A" stroke-width="3" fill="none"/>
<path d="M31 21 L 33 14 L 38 14" stroke="#2A2A2A" stroke-width="3" fill="none"/>
<path d="M20 21 L 19 15 L 24 15" stroke="#2A2A2A" stroke-width="3" fill="none"/>
<circle cx="26" cy="33" r="2.5" fill="#E76F51"/>
<circle cx="13" cy="33" r="2" fill="#2A9D8F"/>
<circle cx="35" cy="33" r="2" fill="#2A9D8F"/></g>
<g id="i-heart"><path d="M24 40 C 8 30 4 18 12 12 C 18 8 22 12 24 16 C 26 12 30 8 36 12 C 44 18 40 30 24 40 Z" fill="#E76F51"/>
<circle cx="18" cy="20" r="1.5" fill="#2A2A2A"/>
<circle cx="30" cy="20" r="1.5" fill="#2A2A2A"/></g>
<g id="i-smile"><circle cx="24" cy="24" r="16" fill="#E9C46A"/>
<circle cx="18" cy="20" r="2" fill="#2A2A2A"/>
<circle cx="30" cy="20" r="2" fill="#2A2A2A"/>
<path d="M15 27 Q 24 36 33 27" stroke="#2A2A2A" stroke-width="3" fill="none"/>
<circle cx="13.5" cy="26" r="2.2" fill="#F4A6A4"/>
<circle cx="34.5" cy="26" r="2.2" fill="#F4A6A4"/></g>
<pattern id="dots" width="135.0" height="135.0" patternUnits="userSpaceOnUse"><circle cx="67.5" cy="67.5" r="5" fill="#C9DCC0" opacity="0.27"/></pattern>
</defs>
<rect width="2560" height="1440" fill="#E7F0E2"/>
<rect width="2560" height="1440" fill="url(#dots)"/>
<g>
<use href="#i-bicycle" transform="translate(-540.0 -540.0) rotate(-5.0) scale(3.2500) translate(-24 -24)"/>
<use href="#i-smile" transform="translate(-405.0 -423.9) rotate(0.0) scale(3.2500) translate(-24 -24)"/>
<use href="#i-heart" transform="translate(-405.0 -540.0) rotate(-20.0) scale(0.8333) translate(-24 -24)" opacity="0.45"/>
<use href="#i-heart" transform="translate(-540.0 -423.9) rotate(20.0) scale(0.8333) translate(-24 -24)" opacity="0.45"/>
<use href="#i-bicycle" transform="translate(-270.0 -540.0) rotate(5.0) scale(3.2500) translate(-24 -24)"/>
<use href="#i-smile" transform="translate(-135.0 -423.9) rotate(0.0) scale(3.2500) translate(-24 -24)"/>
<use href="#i-heart" transform="translate(-135.0 -540.0) rotate(-10.0) scale(0.8333) translate(-24 -24)" opacity="0.45"/>
<use href="#i-heart" transform="translate(-270.0 -423.9) rotate(20.0) scale(0.8333) translate(-24 -24)" opacity="0.45"/>
<use href="#i-bicycle" transform="translate(0.0 -540.0) rotate(0.0) scale(3.2500) translate(-24 -24)"/>
<use href="#i-smile" transform="translate(135.0 -423.9) rotate(5.0) scale(3.2500) translate(-24 -24)"/>
<use href="#i-heart" transform="translate(135.0 -540.0) rotate(-15.0) scale(0.8333) translate(-24 -24)" opacity="0.45"/>
<use href="#i-heart" transform="translate(0.0 -423.9) rotate(10.0) scale(0.8333) translate(-24 -24)" opacity="0.45"/>
<use href="#i-bicycle" transform="translate(270.0 -540.0) rotate(-5.0) scale(3.2500) translate(-24 -24)"/>
<use href="#i-smile" transform="translate(405.0 -423.9) rotate(-5.0) scale(3.2500) translate(-24 -24)"/>
<use href="#i-heart" transform="translate(405.0 -540.0) rotate(10.0) scale(0.8333) translate(-24 -24)" opacity="0.45"/>
<use href="#i-heart" transform="translate(270.0 -423.9) rotate(10.0) scale(0.8333) translate(-24 -24)" opacity="0.45"/>
<use href="#i-bicycle" transform="translate(540.0 -540.0) rotate(-10.0) scale(3.2500) translate(-24 -24)"/>
<use href="#i-smile" transform="translate(675.0 -423.9) rotate(5.0) scale(3.2500) translate(-24 -24)"/>
<use href="#i-heart" transform="translate(675.0 -540.0) rotate(-15.0) scale(0.8333) translate(-24 -24)" opacity="0.45"/>
<use href="#i-heart" transform="translate(540.0 -423.9) rotate(-5.0) scale(0.8333) translate(-24 -24)" opacity="0.45"/>
<use href="#i-bicycle" transform="translate(810.0 -540.0) rotate(5.0) scale(3.2500) translate(-24 -24)"/>
<use href="#i-smile" transform="translate(945.0 -423.9) rotate(-10.0) scale(3.2500) translate(-24 -24)"/>
<use href="#i-heart" transform="translate(945.0 -540.0) rotate(-15.0) scale(0.8333) translate(-24 -24)" opacity="0.45"/>
<use href="#i-heart" transform="translate(810.0 -423.9) rotate(-10.0) scale(0.8333) translate(-24 -24)" opacity="0.45"/>
<use href="#i-bicycle" transform="translate(1080.0 -540.0) rotate(10.0) scale(3.2500) translate(-24 -24)"/>
<use href="#i-smile" transform="translate(1215.0 -423.9) rotate(10.0) scale(3.2500) translate(-24 -24)"/>
<use href="#i-heart" transform="translate(1215.0 -540.0) rotate(-15.0) scale(0.8333) translate(-24 -24)" opacity="0.45"/>
<use href="#i-heart" transform="translate(1080.0 -423.9) rotate(15.0) scale(0.8333) translate(-24 -24)" opacity="0.45"/>
<use href="#i-bicycle" transform="translate(1350.0 -540.0) rotate(-5.0) scale(3.2500) translate(-24 -24)"/>
<use href="#i-smile" transform="translate(1485.0 -423.9) rotate(0.0) scale(3.2500) translate(-24 -24)"/>
<use href="#i-heart" transform="translate(1485.0 -540.0) rotate(25.0) scale(0.8333) translate(-24 -24)" opacity="0.45"/>
<use href="#i-heart" transform="translate(1350.0 -423.9) rotate(-10.0) scale(0.8333) translate(-24 -24)" opacity="0.45"/>
<use href="#i-bicycle" transform="translate(1620.0 -540.0) rotate(-5.0) scale(3.2500) translate(-24 -24)"/>
<use href="#i-smile" transform="translate(1755.0 -423.9) rotate(-10.0) scale(3.2500) translate(-24 -24)"/>
<use href="#i-heart" transform="translate(1755.0 -540.0) rotate(-5.0) scale(0.8333) translate(-24 -24)" opacity="0.45"/>
<use href="#i-heart" transform="translate(1620.0 -423.9) rotate(5.0) scale(0.8333) translate(-24 -24)" opacity="0.45"/>
<use href="#i-bicycle" transform="translate(1890.0 -540.0) rotate(-5.0) scale(3.2500) translate(-24 -24)"/>
<use href="#i-smile" transform="translate(2025.0 -423.9) rotate(0.0) scale(3.2500) translate(-24 -24)"/>
<use href="#i-heart" transform="translate(2025.0 -540.0) rotate(-25.0) scale(0.8333) translate(-24 -24)" opacity="0.45"/>
<use href="#i-heart" transform="translate(1890.0 -423.9) rotate(5.0) scale(0.8333) translate(-24 -24)" opacity="0.45"/>
<use href="#i-bicycle" transform="translate(2160.0 -540.0) rotate(5.0) scale(3.2500) translate(-24 -24)"/>
<use href="#i-smile" transform="translate(2295.0 -423.9) rotate(0.0) scale(3.2500) translate(-24 -24)"/>
<use href="#i-heart" transform="translate(2295.0 -540.0) rotate(5.0) scale(0.8333) translate(-24 -24)" opacity="0.45"/>
<use href="#i-heart" transform="translate(2160.0 -423.9) rotate(25.0) scale(0.8333) translate(-24 -24)" opacity="0.45"/>
<use href="#i-bicycle" transform="translate(2430.0 -540.0) rotate(-5.0) scale(3.2500) translate(-24 -24)"/>
<use href="#i-smile" transform="translate(2565.0 -423.9) rotate(10.0) scale(3.2500) translate(-24 -24)"/>
<use href="#i-heart" transform="translate(2565.0 -540.0) rotate(5.0) scale(0.8333) translate(-24 -24)" opacity="0.45"/>
<use href="#i-heart" transform="translate(2430.0 -423.9) rotate(20.0) scale(0.8333) translate(-24 -24)" opacity="0.45"/>
<use href="#i-bicycle" transform="translate(2700.0 -540.0) rotate(5.0) scale(3.2500) translate(-24 -24)"/>
<use href="#i-smile" transform="translate(2835.0 -423.9) rotate(-10.0) scale(3.2500) translate(-24 -24)"/>
<use href="#i-heart" transform="translate(2835.0 -540.0) rotate(-10.0) scale(0.8333) translate(-24 -24)" opacity="0.45"/>
<use href="#i-heart" transform="translate(2700.0 -423.9) rotate(-15.0) scale(0.8333) translate(-24 -24)" opacity="0.45"/>
<use href="#i-bicycle" transform="translate(2970.0 -540.0) rotate(5.0) scale(3.2500) translate(-24 -24)"/>
<use href="#i-smile" transform="translate(3105.0 -423.9) rotate(0.0) scale(3.2500) translate(-24 -24)"/>
<use href="#i-heart" transform="translate(3105.0 -540.0) rotate(-10.0) scale(0.8333) translate(-24 -24)" opacity="0.45"/>
<use href="#i-heart" transform="translate(2970.0 -423.9) rotate(15.0) scale(0.8333) translate(-24 -24)" opacity="0.45"/>
<use href="#i-bicycle" transform="translate(3240.0 -540.0) rotate(10.0) scale(3.2500) translate(-24 -24)"/>
<use href="#i-smile" transform="translate(3375.0 -423.9) rotate(10.0) scale(3.2500) translate(-24 -24)"/>
<use href="#i-heart" transform="translate(3375.0 -540.0) rotate(25.0) scale(0.8333) translate(-24 -24)" opacity="0.45"/>
<use href="#i-heart" transform="translate(3240.0 -423.9) rotate(15.0) scale(0.8333) translate(-24 -24)" opacity="0.45"/>
<use href="#i-bicycle" transform="translate(3510.0 -540.0) rotate(0.0) scale(3.2500) translate(-24 -24)"/>
<use href="#i-smile" transform="translate(3645.0 -423.9) rotate(-5.0) scale(3.2500) translate(-24 -24)"/>
<use href="#i-heart" transform="translate(3645.0 -540.0) rotate(15.0) scale(0.8333) translate(-24 -24)" opacity="0.45"/>
<use href="#i-heart" transform="translate(3510.0 -423.9) rotate(25.0) scale(0.8333) translate(-24 -24)" opacity="0.45"/>
<use href="#i-bicycle" transform="translate(-405.0 -307.8) rotate(0.0) scale(3.2500) translate(-24 -24)"/>
<use href="#i-smile" transform="translate(-270.0 -191.7) rotate(5.0) scale(3.2500) translate(-24 -24)"/>
<use href="#i-heart" transform="translate(-270.0 -307.8) rotate(15.0) scale(0.8333) translate(-24 -24)" opacity="0.45"/>
<use href="#i-heart" transform="translate(-405.0 -191.7) rotate(-10.0) scale(0.8333) translate(-24 -24)" opacity="0.45"/>
<use href="#i-bicycle" transform="translate(-135.0 -307.8) rotate(-5.0) scale(3.2500) translate(-24 -24)"/>
<use href="#i-smile" transform="translate(0.0 -191.7) rotate(10.0) scale(3.2500) translate(-24 -24)"/>
<use href="#i-heart" transform="translate(0.0 -307.8) rotate(-20.0) scale(0.8333) translate(-24 -24)" opacity="0.45"/>
<use href="#i-heart" transform="translate(-135.0 -191.7) rotate(-5.0) scale(0.8333) translate(-24 -24)" opacity="0.45"/>
<use href="#i-bicycle" transform="translate(135.0 -307.8) rotate(-5.0) scale(3.2500) translate(-24 -24)"/>
<use href="#i-smile" transform="translate(270.0 -191.7) rotate(-10.0) scale(3.2500) translate(-24 -24)"/>
<use href="#i-heart" transform="translate(270.0 -307.8) rotate(-15.0) scale(0.8333) translate(-24 -24)" opacity="0.45"/>
<use href="#i-heart" transform="translate(135.0 -191.7) rotate(20.0) scale(0.8333) translate(-24 -24)" opacity="0.45"/>
<use href="#i-bicycle" transform="translate(405.0 -307.8) rotate(0.0) scale(3.2500) translate(-24 -24)"/>
<use href="#i-smile" transform="translate(540.0 -191.7) rotate(-5.0) scale(3.2500) translate(-24 -24)"/>
<use href="#i-heart" transform="translate(540.0 -307.8) rotate(5.0) scale(0.8333) translate(-24 -24)" opacity="0.45"/>
<use href="#i-heart" transform="translate(405.0 -191.7) rotate(5.0) scale(0.8333) translate(-24 -24)" opacity="0.45"/>
<use href="#i-bicycle" transform="translate(675.0 -307.8) rotate(-5.0) scale(3.2500) translate(-24 -24)"/>
<use href="#i-smile" transform="translate(810.0 -191.7) rotate(0.0) scale(3.2500) translate(-24 -24)"/>
<use href="#i-heart" transform="translate(810.0 -307.8) rotate(20.0) scale(0.8333) translate(-24 -24)" opacity="0.45"/>
<use href="#i-heart" transform="translate(675.0 -191.7) rotate(10.0) scale(0.8333) translate(-24 -24)" opacity="0.45"/>
<use href="#i-bicycle" transform="translate(945.0 -307.8) rotate(-10.0) scale(3.2500) translate(-24 -24)"/>
<use href="#i-smile" transform="translate(1080.0 -191.7) rotate(0.0) scale(3.2500) translate(-24 -24)"/>
<use href="#i-heart" transform="translate(1080.0 -307.8) rotate(5.0) scale(0.8333) translate(-24 -24)" opacity="0.45"/>
<use href="#i-heart" transform="translate(945.0 -191.7) rotate(20.0) scale(0.8333) translate(-24 -24)" opacity="0.45"/>
<use href="#i-bicycle" transform="translate(1215.0 -307.8) rotate(-10.0) scale(3.2500) translate(-24 -24)"/>
<use href="#i-smile" transform="translate(1350.0 -191.7) rotate(-10.0) scale(3.2500) translate(-24 -24)"/>
<use href="#i-heart" transform="translate(1350.0 -307.8) rotate(10.0) scale(0.8333) translate(-24 -24)" opacity="0.45"/>
<use href="#i-heart" transform="translate(1215.0 -191.7) rotate(-20.0) scale(0.8333) translate(-24 -24)" opacity="0.45"/>
<use href="#i-bicycle" transform="translate(1485.0 -307.8) rotate(5.0) scale(3.2500) translate(-24 -24)"/>
<use href="#i-smile" transform="translate(1620.0 -191.7) rotate(-5.0) scale(3.2500) translate(-24 -24)"/>
<use href="#i-heart" transform="translate(1620.0 -307.8) rotate(-25.0) scale(0.8333) translate(-24 -24)" opacity="0.45"/>
<use href="#i-heart" transform="translate(1485.0 -191.7) rotate(20.0) scale(0.8333) translate(-24 -24)" opacity="0.45"/>
<use href="#i-bicycle" transform="translate(1755.0 -307.8) rotate(0.0) scale(3.2500) translate(-24 -24)"/>
<use href="#i-smile" transform="translate(1890.0 -191.7) rotate(-5.0) scale(3.2500) translate(-24 -24)"/>
<use href="#i-heart" transform="translate(1890.0 -307.8) rotate(0.0) scale(0.8333) translate(-24 -24)" opacity="0.45"/>
<use href="#i-heart" transform="translate(1755.0 -191.7) rotate(-5.0) scale(0.8333) translate(-24 -24)" opacity="0.45"/>
<use href="#i-bicycle" transform="translate(2025.0 -307.8) rotate(-10.0) scale(3.2500) translate(-24 -24)"/>
<use href="#i-smile" transform="translate(2160.0 -191.7) rotate(5.0) scale(3.2500) translate(-24 -24)"/>
<use href="#i-heart" transform="translate(2160.0 -307.8) rotate(5.0) scale(0.8333) translate(-24 -24)" opacity="0.45"/>
<use href="#i-heart" transform="translate(2025.0 -191.7) rotate(-10.0) scale(0.8333) translate(-24 -24)" opacity="0.45"/>
<use href="#i-bicycle" transform="translate(2295.0 -307.8) rotate(-5.0) scale(3.2500) translate(-24 -24)"/>
<use href="#i-smile" transform="translate(2430.0 -191.7) rotate(10.0) scale(3.2500) translate(-24 -24)"/>
<use href="#i-heart" transform="translate(2430.0 -307.8) rotate(-20.0) scale(0.8333) translate(-24 -24)" opacity="0.45"/>
<use href="#i-heart" transform="translate(2295.0 -191.7) rotate(-20.0) scale(0.8333) translate(-24 -24)" opacity="0.45"/>
<use href="#i-bicycle" transform="translate(2565.0 -307.8) rotate(5.0) scale(3.2500) translate(-24 -24)"/>
<use href="#i-smile" transform="translate(2700.0 -191.7) rotate(10.0) scale(3.2500) translate(-24 -24)"/>
<use href="#i-heart" transform="translate(2700.0 -307.8) rotate(-10.0) scale(0.8333) translate(-24 -24)" opacity="0.45"/>
<use href="#i-heart" transform="translate(2565.0 -191.7) rotate(5.0) scale(0.8333) translate(-24 -24)" opacity="0.45"/>
<use href="#i-bicycle" transform="translate(2835.0 -307.8) rotate(-5.0) scale(3.2500) translate(-24 -24)"/>
<use href="#i-smile" transform="translate(2970.0 -191.7) rotate(-5.0) scale(3.2500) translate(-24 -24)"/>
<use href="#i-heart" transform="translate(2970.0 -307.8) rotate(10.0) scale(0.8333) translate(-24 -24)" opacity="0.45"/>
<use href="#i-heart" transform="translate(2835.0 -191.7) rotate(-15.0) scale(0.8333) translate(-24 -24)" opacity="0.45"/>
<use href="#i-bicycle" transform="translate(3105.0 -307.8) rotate(-10.0) scale(3.2500) translate(-24 -24)"/>
<use href="#i-smile" transform="translate(3240.0 -191.7) rotate(10.0) scale(3.2500) translate(-24 -24)"/>
<use href="#i-heart" transform="translate(3240.0 -307.8) rotate(5.0) scale(0.8333) translate(-24 -24)" opacity="0.45"/>
<use href="#i-heart" transform="translate(3105.0 -191.7) rotate(20.0) scale(0.8333) translate(-24 -24)" opacity="0.45"/>
<use href="#i-bicycle" transform="translate(3375.0 -307.8) rotate(-5.0) scale(3.2500) translate(-24 -24)"/>
<use href="#i-smile" transform="translate(3510.0 -191.7) rotate(0.0) scale(3.2500) translate(-24 -24)"/>
<use href="#i-heart" transform="translate(3510.0 -307.8) rotate(10.0) scale(0.8333) translate(-24 -24)" opacity="0.45"/>
<use href="#i-heart" transform="translate(3375.0 -191.7) rotate(5.0) scale(0.8333) translate(-24 -24)" opacity="0.45"/>
<use href="#i-bicycle" transform="translate(3645.0 -307.8) rotate(0.0) scale(3.2500) translate(-24 -24)"/>
<use href="#i-smile" transform="translate(3780.0 -191.7) rotate(5.0) scale(3.2500) translate(-24 -24)"/>
<use href="#i-heart" transform="translate(3780.0 -307.8) rotate(15.0) scale(0.8333) translate(-24 -24)" opacity="0.45"/>
<use href="#i-heart" transform="translate(3645.0 -191.7) rotate(-15.0) scale(0.8333) translate(-24 -24)" opacity="0.45"/>
<use href="#i-bicycle" transform="translate(-540.0 -75.6) rotate(10.0) scale(3.2500) translate(-24 -24)"/>
<use href="#i-smile" transform="translate(-405.0 40.5) rotate(-5.0) scale(3.2500) translate(-24 -24)"/>
<use href="#i-heart" transform="translate(-405.0 -75.6) rotate(10.0) scale(0.8333) translate(-24 -24)" opacity="0.45"/>
<use href="#i-heart" transform="translate(-540.0 40.5) rotate(-5.0) scale(0.8333) translate(-24 -24)" opacity="0.45"/>
<use href="#i-bicycle" transform="translate(-270.0 -75.6) rotate(5.0) scale(3.2500) translate(-24 -24)"/>
<use href="#i-smile" transform="translate(-135.0 40.5) rotate(0.0) scale(3.2500) translate(-24 -24)"/>
<use href="#i-heart" transform="translate(-135.0 -75.6) rotate(10.0) scale(0.8333) translate(-24 -24)" opacity="0.45"/>
<use href="#i-heart" transform="translate(-270.0 40.5) rotate(-15.0) scale(0.8333) translate(-24 -24)" opacity="0.45"/>
<use href="#i-bicycle" transform="translate(0.0 -75.6) rotate(0.0) scale(3.2500) translate(-24 -24)"/>
<use href="#i-smile" transform="translate(135.0 40.5) rotate(-5.0) scale(3.2500) translate(-24 -24)"/>
<use href="#i-heart" transform="translate(135.0 -75.6) rotate(-10.0) scale(0.8333) translate(-24 -24)" opacity="0.45"/>
<use href="#i-heart" transform="translate(0.0 40.5) rotate(25.0) scale(0.8333) translate(-24 -24)" opacity="0.45"/>
<use href="#i-bicycle" transform="translate(270.0 -75.6) rotate(-5.0) scale(3.2500) translate(-24 -24)"/>
<use href="#i-smile" transform="translate(405.0 40.5) rotate(-5.0) scale(3.2500) translate(-24 -24)"/>
<use href="#i-heart" transform="translate(405.0 -75.6) rotate(15.0) scale(0.8333) translate(-24 -24)" opacity="0.45"/>
<use href="#i-heart" transform="translate(270.0 40.5) rotate(-10.0) scale(0.8333) translate(-24 -24)" opacity="0.45"/>
<use href="#i-bicycle" transform="translate(540.0 -75.6) rotate(5.0) scale(3.2500) translate(-24 -24)"/>
<use href="#i-smile" transform="translate(675.0 40.5) rotate(5.0) scale(3.2500) translate(-24 -24)"/>
<use href="#i-heart" transform="translate(675.0 -75.6) rotate(10.0) scale(0.8333) translate(-24 -24)" opacity="0.45"/>
<use href="#i-heart" transform="translate(540.0 40.5) rotate(0.0) scale(0.8333) translate(-24 -24)" opacity="0.45"/>
<use href="#i-bicycle" transform="translate(810.0 -75.6) rotate(-10.0) scale(3.2500) translate(-24 -24)"/>
<use href="#i-smile" transform="translate(945.0 40.5) rotate(-10.0) scale(3.2500) translate(-24 -24)"/>
<use href="#i-heart" transform="translate(945.0 -75.6) rotate(15.0) scale(0.8333) translate(-24 -24)" opacity="0.45"/>
<use href="#i-heart" transform="translate(810.0 40.5) rotate(20.0) scale(0.8333) translate(-24 -24)" opacity="0.45"/>
<use href="#i-bicycle" transform="translate(1080.0 -75.6) rotate(5.0) scale(3.2500) translate(-24 -24)"/>
<use href="#i-smile" transform="translate(1215.0 40.5) rotate(-5.0) scale(3.2500) translate(-24 -24)"/>
<use href="#i-heart" transform="translate(1215.0 -75.6) rotate(10.0) scale(0.8333) translate(-24 -24)" opacity="0.45"/>
<use href="#i-heart" transform="translate(1080.0 40.5) rotate(15.0) scale(0.8333) translate(-24 -24)" opacity="0.45"/>
<use href="#i-bicycle" transform="translate(1350.0 -75.6) rotate(-5.0) scale(3.2500) translate(-24 -24)"/>
<use href="#i-smile" transform="translate(1485.0 40.5) rotate(10.0) scale(3.2500) translate(-24 -24)"/>
<use href="#i-heart" transform="translate(1485.0 -75.6) rotate(25.0) scale(0.8333) translate(-24 -24)" opacity="0.45"/>
<use href="#i-heart" transform="translate(1350.0 40.5) rotate(5.0) scale(0.8333) translate(-24 -24)" opacity="0.45"/>
<use href="#i-bicycle" transform="translate(1620.0 -75.6) rotate(5.0) scale(3.2500) translate(-24 -24)"/>
<use href="#i-smile" transform="translate(1755.0 40.5) rotate(-10.0) scale(3.2500) translate(-24 -24)"/>
<use href="#i-heart" transform="translate(1755.0 -75.6) rotate(15.0) scale(0.8333) translate(-24 -24)" opacity="0.45"/>
<use href="#i-heart" transform="translate(1620.0 40.5) rotate(-15.0) scale(0.8333) translate(-24 -24)" opacity="0.45"/>
<use href="#i-bicycle" transform="translate(1890.0 -75.6) rotate(5.0) scale(3.2500) translate(-24 -24)"/>
<use href="#i-smile" transform="translate(2025.0 40.5) rotate(10.0) scale(3.2500) translate(-24 -24)"/>
<use href="#i-heart" transform="translate(2025.0 -75.6) rotate(-5.0) scale(0.8333) translate(-24 -24)" opacity="0.45"/>
<use href="#i-heart" transform="translate(1890.0 40.5) rotate(-20.0) scale(0.8333) translate(-24 -24)" opacity="0.45"/>
<use href="#i-bicycle" transform="translate(2160.0 -75.6) rotate(10.0) scale(3.2500) translate(-24 -24)"/>
<use href="#i-smile" transform="translate(2295.0 40.5) rotate(10.0) scale(3.2500) translate(-24 -24)"/>
<use href="#i-heart" transform="translate(2295.0 -75.6) rotate(10.0) scale(0.8333) translate(-24 -24)" opacity="0.45"/>
<use href="#i-heart" transform="translate(2160.0 40.5) rotate(-10.0) scale(0.8333) translate(-24 -24)" opacity="0.45"/>
<use href="#i-bicycle" transform="translate(2430.0 -75.6) rotate(5.0) scale(3.2500) translate(-24 -24)"/>
<use href="#i-smile" transform="translate(2565.0 40.5) rotate(5.0) scale(3.2500) translate(-24 -24)"/>
<use href="#i-heart" transform="translate(2565.0 -75.6) rotate(-15.0) scale(0.8333) translate(-24 -24)" opacity="0.45"/>
<use href="#i-heart" transform="translate(2430.0 40.5) rotate(10.0) scale(0.8333) translate(-24 -24)" opacity="0.45"/>
<use href="#i-bicycle" transform="translate(2700.0 -75.6) rotate(0.0) scale(3.2500) translate(-24 -24)"/>
<use href="#i-smile" transform="translate(2835.0 40.5) rotate(10.0) scale(3.2500) translate(-24 -24)"/>
<use href="#i-heart" transform="translate(2835.0 -75.6) rotate(-15.0) scale(0.8333) translate(-24 -24)" opacity="0.45"/>
<use href="#i-heart" transform="translate(2700.0 40.5) rotate(-20.0) scale(0.8333) translate(-24 -24)" opacity="0.45"/>
<use href="#i-bicycle" transform="translate(2970.0 -75.6) rotate(5.0) scale(3.2500) translate(-24 -24)"/>
<use href="#i-smile" transform="translate(3105.0 40.5) rotate(5.0) scale(3.2500) translate(-24 -24)"/>
<use href="#i-heart" transform="translate(3105.0 -75.6) rotate(5.0) scale(0.8333) translate(-24 -24)" opacity="0.45"/>
<use href="#i-heart" transform="translate(2970.0 40.5) rotate(5.0) scale(0.8333) translate(-24 -24)" opacity="0.45"/>
<use href="#i-bicycle" transform="translate(3240.0 -75.6) rotate(0.0) scale(3.2500) translate(-24 -24)"/>
<use href="#i-smile" transform="translate(3375.0 40.5) rotate(-5.0) scale(3.2500) translate(-24 -24)"/>
<use href="#i-heart" transform="translate(3375.0 -75.6) rotate(20.0) scale(0.8333) translate(-24 -24)" opacity="0.45"/>
<use href="#i-heart" transform="translate(3240.0 40.5) rotate(-15.0) scale(0.8333) translate(-24 -24)" opacity="0.45"/>
<use href="#i-bicycle" transform="translate(3510.0 -75.6) rotate(-5.0) scale(3.2500) translate(-24 -24)"/>
<use href="#i-smile" transform="translate(3645.0 40.5) rotate(-10.0) scale(3.2500) translate(-24 -24)"/>
<use href="#i-heart" transform="translate(3645.0 -75.6) rotate(-10.0) scale(0.8333) translate(-24 -24)" opacity="0.45"/>
<use href="#i-heart" transform="translate(3510.0 40.5) rotate(20.0) scale(0.8333) translate(-24 -24)" opacity="0.45"/>
<use href="#i-bicycle" transform="translate(-405.0 156.6) rotate(-5.0) scale(3.2500) translate(-24 -24)"/>
<use href="#i-smile" transform="translate(-270.0 272.7) rotate(-10.0) scale(3.2500) translate(-24 -24)"/>
<use href="#i-heart" transform="translate(-270.0 156.6) rotate(0.0) scale(0.8333) translate(-24 -24)" opacity="0.45"/>
<use href="#i-heart" transform="translate(-405.0 272.7) rotate(15.0) scale(0.8333) translate(-24 -24)" opacity="0.45"/>
<use href="#i-bicycle" transform="translate(-135.0 156.6) rotate(0.0) scale(3.2500) translate(-24 -24)"/>
<use href="#i-smile" transform="translate(0.0 272.7) rotate(0.0) scale(3.2500) translate(-24 -24)"/>
<use href="#i-heart" transform="translate(0.0 156.6) rotate(-15.0) scale(0.8333) translate(-24 -24)" opacity="0.45"/>
<use href="#i-heart" transform="translate(-135.0 272.7) rotate(-10.0) scale(0.8333) translate(-24 -24)" opacity="0.45"/>
<use href="#i-bicycle" transform="translate(135.0 156.6) rotate(-5.0) scale(3.2500) translate(-24 -24)"/>
<use href="#i-smile" transform="translate(270.0 272.7) rotate(0.0) scale(3.2500) translate(-24 -24)"/>
<use href="#i-heart" transform="translate(270.0 156.6) rotate(15.0) scale(0.8333) translate(-24 -24)" opacity="0.45"/>
<use href="#i-heart" transform="translate(135.0 272.7) rotate(-20.0) scale(0.8333) translate(-24 -24)" opacity="0.45"/>
<use href="#i-bicycle" transform="translate(405.0 156.6) rotate(0.0) scale(3.2500) translate(-24 -24)"/>
<use href="#i-smile" transform="translate(540.0 272.7) rotate(-5.0) scale(3.2500) translate(-24 -24)"/>
<use href="#i-heart" transform="translate(540.0 156.6) rotate(0.0) scale(0.8333) translate(-24 -24)" opacity="0.45"/>
<use href="#i-heart" transform="translate(405.0 272.7) rotate(-20.0) scale(0.8333) translate(-24 -24)" opacity="0.45"/>
<use href="#i-bicycle" transform="translate(675.0 156.6) rotate(10.0) scale(3.2500) translate(-24 -24)"/>
<use href="#i-smile" transform="translate(810.0 272.7) rotate(-5.0) scale(3.2500) translate(-24 -24)"/>
<use href="#i-heart" transform="translate(810.0 156.6) rotate(-5.0) scale(0.8333) translate(-24 -24)" opacity="0.45"/>
<use href="#i-heart" transform="translate(675.0 272.7) rotate(15.0) scale(0.8333) translate(-24 -24)" opacity="0.45"/>
<use href="#i-bicycle" transform="translate(945.0 156.6) rotate(-5.0) scale(3.2500) translate(-24 -24)"/>
<use href="#i-smile" transform="translate(1080.0 272.7) rotate(0.0) scale(3.2500) translate(-24 -24)"/>
<use href="#i-heart" transform="translate(1080.0 156.6) rotate(-5.0) scale(0.8333) translate(-24 -24)" opacity="0.45"/>
<use href="#i-heart" transform="translate(945.0 272.7) rotate(0.0) scale(0.8333) translate(-24 -24)" opacity="0.45"/>
<use href="#i-bicycle" transform="translate(1215.0 156.6) rotate(5.0) scale(3.2500) translate(-24 -24)"/>
<use href="#i-smile" transform="translate(1350.0 272.7) rotate(10.0) scale(3.2500) translate(-24 -24)"/>
<use href="#i-heart" transform="translate(1350.0 156.6) rotate(20.0) scale(0.8333) translate(-24 -24)" opacity="0.45"/>
<use href="#i-heart" transform="translate(1215.0 272.7) rotate(0.0) scale(0.8333) translate(-24 -24)" opacity="0.45"/>
<use href="#i-bicycle" transform="translate(1485.0 156.6) rotate(5.0) scale(3.2500) translate(-24 -24)"/>
<use href="#i-smile" transform="translate(1620.0 272.7) rotate(-5.0) scale(3.2500) translate(-24 -24)"/>
<use href="#i-heart" transform="translate(1620.0 156.6) rotate(-5.0) scale(0.8333) translate(-24 -24)" opacity="0.45"/>
<use href="#i-heart" transform="translate(1485.0 272.7) rotate(20.0) scale(0.8333) translate(-24 -24)" opacity="0.45"/>
<use href="#i-bicycle" transform="translate(1755.0 156.6) rotate(-10.0) scale(3.2500) translate(-24 -24)"/>
<use href="#i-smile" transform="translate(1890.0 272.7) rotate(5.0) scale(3.2500) translate(-24 -24)"/>
<use href="#i-heart" transform="translate(1890.0 156.6) rotate(-20.0) scale(0.8333) translate(-24 -24)" opacity="0.45"/>
<use href="#i-heart" transform="translate(1755.0 272.7) rotate(-25.0) scale(0.8333) translate(-24 -24)" opacity="0.45"/>
<use href="#i-bicycle" transform="translate(2025.0 156.6) rotate(-5.0) scale(3.2500) translate(-24 -24)"/>
<use href="#i-smile" transform="translate(2160.0 272.7) rotate(10.0) scale(3.2500) translate(-24 -24)"/>
<use href="#i-heart" transform="translate(2160.0 156.6) rotate(10.0) scale(0.8333) translate(-24 -24)" opacity="0.45"/>
<use href="#i-heart" transform="translate(2025.0 272.7) rotate(15.0) scale(0.8333) translate(-24 -24)" opacity="0.45"/>
<use href="#i-bicycle" transform="translate(2295.0 156.6) rotate(5.0) scale(3.2500) translate(-24 -24)"/>
<use href="#i-smile" transform="translate(2430.0 272.7) rotate(0.0) scale(3.2500) translate(-24 -24)"/>
<use href="#i-heart" transform="translate(2430.0 156.6) rotate(-20.0) scale(0.8333) translate(-24 -24)" opacity="0.45"/>
<use href="#i-heart" transform="translate(2295.0 272.7) rotate(20.0) scale(0.8333) translate(-24 -24)" opacity="0.45"/>
<use href="#i-bicycle" transform="translate(2565.0 156.6) rotate(-10.0) scale(3.2500) translate(-24 -24)"/>
<use href="#i-smile" transform="translate(2700.0 272.7) rotate(-5.0) scale(3.2500) translate(-24 -24)"/>
<use href="#i-heart" transform="translate(2700.0 156.6) rotate(-20.0) scale(0.8333) translate(-24 -24)" opacity="0.45"/>
<use href="#i-heart" transform="translate(2565.0 272.7) rotate(-5.0) scale(0.8333) translate(-24 -24)" opacity="0.45"/>
<use href="#i-bicycle" transform="translate(2835.0 156.6) rotate(-5.0) scale(3.2500) translate(-24 -24)"/>
<use href="#i-smile" transform="translate(2970.0 272.7) rotate(10.0) scale(3.2500) translate(-24 -24)"/>
<use href="#i-heart" transform="translate(2970.0 156.6) rotate(10.0) scale(0.8333) translate(-24 -24)" opacity="0.45"/>
<use href="#i-heart" transform="translate(2835.0 272.7) rotate(25.0) scale(0.8333) translate(-24 -24)" opacity="0.45"/>
<use href="#i-bicycle" transform="translate(3105.0 156.6) rotate(0.0) scale(3.2500) translate(-24 -24)"/>
<use href="#i-smile" transform="translate(3240.0 272.7) rotate(10.0) scale(3.2500) translate(-24 -24)"/>
<use href="#i-heart" transform="translate(3240.0 156.6) rotate(-10.0) scale(0.8333) translate(-24 -24)" opacity="0.45"/>
<use href="#i-heart" transform="translate(3105.0 272.7) rotate(10.0) scale(0.8333) translate(-24 -24)" opacity="0.45"/>
<use href="#i-bicycle" transform="translate(3375.0 156.6) rotate(0.0) scale(3.2500) translate(-24 -24)"/>
<use href="#i-smile" transform="translate(3510.0 272.7) rotate(0.0) scale(3.2500) translate(-24 -24)"/>
<use href="#i-heart" transform="translate(3510.0 156.6) rotate(-10.0) scale(0.8333) translate(-24 -24)" opacity="0.45"/>
<use href="#i-heart" transform="translate(3375.0 272.7) rotate(-25.0) scale(0.8333) translate(-24 -24)" opacity="0.45"/>
<use href="#i-bicycle" transform="translate(3645.0 156.6) rotate(-10.0) scale(3.2500) translate(-24 -24)"/>
<use href="#i-smile" transform="translate(3780.0 272.7) rotate(-10.0) scale(3.2500) translate(-24 -24)"/>
<use href="#i-heart" transform="translate(3780.0 156.6) rotate(15.0) scale(0.8333) translate(-24 -24)" opacity="0.45"/>
<use href="#i-heart" transform="translate(3645.0 272.7) rotate(15.0) scale(0.8333) translate(-24 -24)" opacity="0.45"/>
<use href="#i-bicycle" transform="translate(-540.0 388.8) rotate(5.0) scale(3.2500) translate(-24 -24)"/>
<use href="#i-smile" transform="translate(-405.0 504.9) rotate(5.0) scale(3.2500) translate(-24 -24)"/>
<use href="#i-heart" transform="translate(-405.0 388.8) rotate(-15.0) scale(0.8333) translate(-24 -24)" opacity="0.45"/>
<use href="#i-heart" transform="translate(-540.0 504.9) rotate(-5.0) scale(0.8333) translate(-24 -24)" opacity="0.45"/>
<use href="#i-bicycle" transform="translate(-270.0 388.8) rotate(-5.0) scale(3.2500) translate(-24 -24)"/>
<use href="#i-smile" transform="translate(-135.0 504.9) rotate(0.0) scale(3.2500) translate(-24 -24)"/>
<use href="#i-heart" transform="translate(-135.0 388.8) rotate(-15.0) scale(0.8333) translate(-24 -24)" opacity="0.45"/>
<use href="#i-heart" transform="translate(-270.0 504.9) rotate(-10.0) scale(0.8333) translate(-24 -24)" opacity="0.45"/>
<use href="#i-bicycle" transform="translate(0.0 388.8) rotate(-5.0) scale(3.2500) translate(-24 -24)"/>
<use href="#i-smile" transform="translate(135.0 504.9) rotate(-5.0) scale(3.2500) translate(-24 -24)"/>
<use href="#i-heart" transform="translate(135.0 388.8) rotate(10.0) scale(0.8333) translate(-24 -24)" opacity="0.45"/>
<use href="#i-heart" transform="translate(0.0 504.9) rotate(0.0) scale(0.8333) translate(-24 -24)" opacity="0.45"/>
<use href="#i-bicycle" transform="translate(270.0 388.8) rotate(0.0) scale(3.2500) translate(-24 -24)"/>
<use href="#i-smile" transform="translate(405.0 504.9) rotate(-5.0) scale(3.2500) translate(-24 -24)"/>
<use href="#i-heart" transform="translate(405.0 388.8) rotate(25.0) scale(0.8333) translate(-24 -24)" opacity="0.45"/>
<use href="#i-heart" transform="translate(270.0 504.9) rotate(10.0) scale(0.8333) translate(-24 -24)" opacity="0.45"/>
<use href="#i-bicycle" transform="translate(540.0 388.8) rotate(0.0) scale(3.2500) translate(-24 -24)"/>
<use href="#i-smile" transform="translate(675.0 504.9) rotate(0.0) scale(3.2500) translate(-24 -24)"/>
<use href="#i-heart" transform="translate(675.0 388.8) rotate(5.0) scale(0.8333) translate(-24 -24)" opacity="0.45"/>
<use href="#i-heart" transform="translate(540.0 504.9) rotate(10.0) scale(0.8333) translate(-24 -24)" opacity="0.45"/>
<use href="#i-bicycle" transform="translate(810.0 388.8) rotate(5.0) scale(3.2500) translate(-24 -24)"/>
<use href="#i-smile" transform="translate(945.0 504.9) rotate(5.0) scale(3.2500) translate(-24 -24)"/>
<use href="#i-heart" transform="translate(945.0 388.8) rotate(-25.0) scale(0.8333) translate(-24 -24)" opacity="0.45"/>
<use href="#i-heart" transform="translate(810.0 504.9) rotate(-5.0) scale(0.8333) translate(-24 -24)" opacity="0.45"/>
<use href="#i-bicycle" transform="translate(1080.0 388.8) rotate(5.0) scale(3.2500) translate(-24 -24)"/>
<use href="#i-smile" transform="translate(1215.0 504.9) rotate(5.0) scale(3.2500) translate(-24 -24)"/>
<use href="#i-heart" transform="translate(1215.0 388.8) rotate(10.0) scale(0.8333) translate(-24 -24)" opacity="0.45"/>
<use href="#i-heart" transform="translate(1080.0 504.9) rotate(-20.0) scale(0.8333) translate(-24 -24)" opacity="0.45"/>
<use href="#i-bicycle" transform="translate(1350.0 388.8) rotate(-10.0) scale(3.2500) translate(-24 -24)"/>
<use href="#i-smile" transform="translate(1485.0 504.9) rotate(0.0) scale(3.2500) translate(-24 -24)"/>
<use href="#i-heart" transform="translate(1485.0 388.8) rotate(-20.0) scale(0.8333) translate(-24 -24)" opacity="0.45"/>
<use href="#i-heart" transform="translate(1350.0 504.9) rotate(10.0) scale(0.8333) translate(-24 -24)" opacity="0.45"/>
<use href="#i-bicycle" transform="translate(1620.0 388.8) rotate(0.0) scale(3.2500) translate(-24 -24)"/>
<use href="#i-smile" transform="translate(1755.0 504.9) rotate(5.0) scale(3.2500) translate(-24 -24)"/>
<use href="#i-heart" transform="translate(1755.0 388.8) rotate(-25.0) scale(0.8333) translate(-24 -24)" opacity="0.45"/>
<use href="#i-heart" transform="translate(1620.0 504.9) rotate(15.0) scale(0.8333) translate(-24 -24)" opacity="0.45"/>
<use href="#i-bicycle" transform="translate(1890.0 388.8) rotate(5.0) scale(3.2500) translate(-24 -24)"/>
<use href="#i-smile" transform="translate(2025.0 504.9) rotate(5.0) scale(3.2500) translate(-24 -24)"/>
<use href="#i-heart" transform="translate(2025.0 388.8) rotate(-10.0) scale(0.8333) translate(-24 -24)" opacity="0.45"/>
<use href="#i-heart" transform="translate(1890.0 504.9) rotate(-5.0) scale(0.8333) translate(-24 -24)" opacity="0.45"/>
<use href="#i-bicycle" transform="translate(2160.0 388.8) rotate(-5.0) scale(3.2500) translate(-24 -24)"/>
<use href="#i-smile" transform="translate(2295.0 504.9) rotate(10.0) scale(3.2500) translate(-24 -24)"/>
<use href="#i-heart" transform="translate(2295.0 388.8) rotate(-20.0) scale(0.8333) translate(-24 -24)" opacity="0.45"/>
<use href="#i-heart" transform="translate(2160.0 504.9) rotate(10.0) scale(0.8333) translate(-24 -24)" opacity="0.45"/>
<use href="#i-bicycle" transform="translate(2430.0 388.8) rotate(0.0) scale(3.2500) translate(-24 -24)"/>
<use href="#i-smile" transform="translate(2565.0 504.9) rotate(-10.0) scale(3.2500) translate(-24 -24)"/>
<use href="#i-heart" transform="translate(2565.0 388.8) rotate(-10.0) scale(0.8333) translate(-24 -24)" opacity="0.45"/>
<use href="#i-heart" transform="translate(2430.0 504.9) rotate(0.0) scale(0.8333) translate(-24 -24)" opacity="0.45"/>
<use href="#i-bicycle" transform="translate(2700.0 388.8) rotate(-10.0) scale(3.2500) translate(-24 -24)"/>
<use href="#i-smile" transform="translate(2835.0 504.9) rotate(-5.0) scale(3.2500) translate(-24 -24)"/>
<use href="#i-heart" transform="translate(2835.0 388.8) rotate(20.0) scale(0.8333) translate(-24 -24)" opacity="0.45"/>
<use href="#i-heart" transform="translate(2700.0 504.9) rotate(0.0) scale(0.8333) translate(-24 -24)" opacity="0.45"/>
<use href="#i-bicycle" transform="translate(2970.0 388.8) rotate(0.0) scale(3.2500) translate(-24 -24)"/>
<use href="#i-smile" transform="translate(3105.0 504.9) rotate(5.0) scale(3.2500) translate(-24 -24)"/>
<use href="#i-heart" transform="translate(3105.0 388.8) rotate(0.0) scale(0.8333) translate(-24 -24)" opacity="0.45"/>
<use href="#i-heart" transform="translate(2970.0 504.9) rotate(5.0) scale(0.8333) translate(-24 -24)" opacity="0.45"/>
<use href="#i-bicycle" transform="translate(3240.0 388.8) rotate(-5.0) scale(3.2500) translate(-24 -24)"/>
<use href="#i-smile" transform="translate(3375.0 504.9) rotate(10.0) scale(3.2500) translate(-24 -24)"/>
<use href="#i-heart" transform="translate(3375.0 388.8) rotate(5.0) scale(0.8333) translate(-24 -24)" opacity="0.45"/>
<use href="#i-heart" transform="translate(3240.0 504.9) rotate(-15.0) scale(0.8333) translate(-24 -24)" opacity="0.45"/>
<use href="#i-bicycle" transform="translate(3510.0 388.8) rotate(10.0) scale(3.2500) translate(-24 -24)"/>
<use href="#i-smile" transform="translate(3645.0 504.9) rotate(10.0) scale(3.2500) translate(-24 -24)"/>
<use href="#i-heart" transform="translate(3645.0 388.8) rotate(5.0) scale(0.8333) translate(-24 -24)" opacity="0.45"/>
<use href="#i-heart" transform="translate(3510.0 504.9) rotate(-20.0) scale(0.8333) translate(-24 -24)" opacity="0.45"/>
<use href="#i-bicycle" transform="translate(-405.0 621.0) rotate(0.0) scale(3.2500) translate(-24 -24)"/>
<use href="#i-smile" transform="translate(-270.0 737.1) rotate(0.0) scale(3.2500) translate(-24 -24)"/>
<use href="#i-heart" transform="translate(-270.0 621.0) rotate(-20.0) scale(0.8333) translate(-24 -24)" opacity="0.45"/>
<use href="#i-heart" transform="translate(-405.0 737.1) rotate(15.0) scale(0.8333) translate(-24 -24)" opacity="0.45"/>
<use href="#i-bicycle" transform="translate(-135.0 621.0) rotate(5.0) scale(3.2500) translate(-24 -24)"/>
<use href="#i-smile" transform="translate(0.0 737.1) rotate(-5.0) scale(3.2500) translate(-24 -24)"/>
<use href="#i-heart" transform="translate(0.0 621.0) rotate(-25.0) scale(0.8333) translate(-24 -24)" opacity="0.45"/>
<use href="#i-heart" transform="translate(-135.0 737.1) rotate(0.0) scale(0.8333) translate(-24 -24)" opacity="0.45"/>
<use href="#i-bicycle" transform="translate(135.0 621.0) rotate(0.0) scale(3.2500) translate(-24 -24)"/>
<use href="#i-smile" transform="translate(270.0 737.1) rotate(5.0) scale(3.2500) translate(-24 -24)"/>
<use href="#i-heart" transform="translate(270.0 621.0) rotate(25.0) scale(0.8333) translate(-24 -24)" opacity="0.45"/>
<use href="#i-heart" transform="translate(135.0 737.1) rotate(15.0) scale(0.8333) translate(-24 -24)" opacity="0.45"/>
<use href="#i-bicycle" transform="translate(405.0 621.0) rotate(5.0) scale(3.2500) translate(-24 -24)"/>
<use href="#i-smile" transform="translate(540.0 737.1) rotate(-10.0) scale(3.2500) translate(-24 -24)"/>
<use href="#i-heart" transform="translate(540.0 621.0) rotate(-15.0) scale(0.8333) translate(-24 -24)" opacity="0.45"/>
<use href="#i-heart" transform="translate(405.0 737.1) rotate(20.0) scale(0.8333) translate(-24 -24)" opacity="0.45"/>
<use href="#i-bicycle" transform="translate(675.0 621.0) rotate(-5.0) scale(3.2500) translate(-24 -24)"/>
<use href="#i-smile" transform="translate(810.0 737.1) rotate(5.0) scale(3.2500) translate(-24 -24)"/>
<use href="#i-heart" transform="translate(810.0 621.0) rotate(10.0) scale(0.8333) translate(-24 -24)" opacity="0.45"/>
<use href="#i-heart" transform="translate(675.0 737.1) rotate(20.0) scale(0.8333) translate(-24 -24)" opacity="0.45"/>
<use href="#i-bicycle" transform="translate(945.0 621.0) rotate(0.0) scale(3.2500) translate(-24 -24)"/>
<use href="#i-smile" transform="translate(1080.0 737.1) rotate(-5.0) scale(3.2500) translate(-24 -24)"/>
<use href="#i-heart" transform="translate(1080.0 621.0) rotate(10.0) scale(0.8333) translate(-24 -24)" opacity="0.45"/>
<use href="#i-heart" transform="translate(945.0 737.1) rotate(-20.0) scale(0.8333) translate(-24 -24)" opacity="0.45"/>
<use href="#i-bicycle" transform="translate(1215.0 621.0) rotate(-5.0) scale(3.2500) translate(-24 -24)"/>
<use href="#i-smile" transform="translate(1350.0 737.1) rotate(5.0) scale(3.2500) translate(-24 -24)"/>
<use href="#i-heart" transform="translate(1350.0 621.0) rotate(-10.0) scale(0.8333) translate(-24 -24)" opacity="0.45"/>
<use href="#i-heart" transform="translate(1215.0 737.1) rotate(-15.0) scale(0.8333) translate(-24 -24)" opacity="0.45"/>
<use href="#i-bicycle" transform="translate(1485.0 621.0) rotate(-10.0) scale(3.2500) translate(-24 -24)"/>
<use href="#i-smile" transform="translate(1620.0 737.1) rotate(0.0) scale(3.2500) translate(-24 -24)"/>
<use href="#i-heart" transform="translate(1620.0 621.0) rotate(-10.0) scale(0.8333) translate(-24 -24)" opacity="0.45"/>
<use href="#i-heart" transform="translate(1485.0 737.1) rotate(-20.0) scale(0.8333) translate(-24 -24)" opacity="0.45"/>
<use href="#i-bicycle" transform="translate(1755.0 621.0) rotate(0.0) scale(3.2500) translate(-24 -24)"/>
<use href="#i-smile" transform="translate(1890.0 737.1) rotate(5.0) scale(3.2500) translate(-24 -24)"/>
<use href="#i-heart" transform="translate(1890.0 621.0) rotate(15.0) scale(0.8333) translate(-24 -24)" opacity="0.45"/>
<use href="#i-heart" transform="translate(1755.0 737.1) rotate(-25.0) scale(0.8333) translate(-24 -24)" opacity="0.45"/>
<use href="#i-bicycle" transform="translate(2025.0 621.0) rotate(5.0) scale(3.2500) translate(-24 -24)"/>
<use href="#i-smile" transform="translate(2160.0 737.1) rotate(0.0) scale(3.2500) translate(-24 -24)"/>
<use href="#i-heart" transform="translate(2160.0 621.0) rotate(5.0) scale(0.8333) translate(-24 -24)" opacity="0.45"/>
<use href="#i-heart" transform="translate(2025.0 737.1) rotate(10.0) scale(0.8333) translate(-24 -24)" opacity="0.45"/>
<use href="#i-bicycle" transform="translate(2295.0 621.0) rotate(0.0) scale(3.2500) translate(-24 -24)"/>
<use href="#i-smile" transform="translate(2430.0 737.1) rotate(10.0) scale(3.2500) translate(-24 -24)"/>
<use href="#i-heart" transform="translate(2430.0 621.0) rotate(-5.0) scale(0.8333) translate(-24 -24)" opacity="0.45"/>
<use href="#i-heart" transform="translate(2295.0 737.1) rotate(-5.0) scale(0.8333) translate(-24 -24)" opacity="0.45"/>
<use href="#i-bicycle" transform="translate(2565.0 621.0) rotate(5.0) scale(3.2500) translate(-24 -24)"/>
<use href="#i-smile" transform="translate(2700.0 737.1) rotate(0.0) scale(3.2500) translate(-24 -24)"/>
<use href="#i-heart" transform="translate(2700.0 621.0) rotate(-10.0) scale(0.8333) translate(-24 -24)" opacity="0.45"/>
<use href="#i-heart" transform="translate(2565.0 737.1) rotate(-25.0) scale(0.8333) translate(-24 -24)" opacity="0.45"/>
<use href="#i-bicycle" transform="translate(2835.0 621.0) rotate(5.0) scale(3.2500) translate(-24 -24)"/>
<use href="#i-smile" transform="translate(2970.0 737.1) rotate(5.0) scale(3.2500) translate(-24 -24)"/>
<use href="#i-heart" transform="translate(2970.0 621.0) rotate(20.0) scale(0.8333) translate(-24 -24)" opacity="0.45"/>
<use href="#i-heart" transform="translate(2835.0 737.1) rotate(-15.0) scale(0.8333) translate(-24 -24)" opacity="0.45"/>
<use href="#i-bicycle" transform="translate(3105.0 621.0) rotate(-5.0) scale(3.2500) translate(-24 -24)"/>
<use href="#i-smile" transform="translate(3240.0 737.1) rotate(5.0) scale(3.2500) translate(-24 -24)"/>
<use href="#i-heart" transform="translate(3240.0 621.0) rotate(20.0) scale(0.8333) translate(-24 -24)" opacity="0.45"/>
<use href="#i-heart" transform="translate(3105.0 737.1) rotate(-5.0) scale(0.8333) translate(-24 -24)" opacity="0.45"/>
<use href="#i-bicycle" transform="translate(3375.0 621.0) rotate(5.0) scale(3.2500) translate(-24 -24)"/>
<use href="#i-smile" transform="translate(3510.0 737.1) rotate(0.0) scale(3.2500) translate(-24 -24)"/>
<use href="#i-heart" transform="translate(3510.0 621.0) rotate(-10.0) scale(0.8333) translate(-24 -24)" opacity="0.45"/>
<use href="#i-heart" transform="translate(3375.0 737.1) rotate(25.0) scale(0.8333) translate(-24 -24)" opacity="0.45"/>
<use href="#i-bicycle" transform="translate(3645.0 621.0) rotate(0.0) scale(3.2500) translate(-24 -24)"/>
<use href="#i-smile" transform="translate(3780.0 737.1) rotate(5.0) scale(3.2500) translate(-24 -24)"/>
<use href="#i-heart" transform="translate(3780.0 621.0) rotate(5.0) scale(0.8333) translate(-24 -24)" opacity="0.45"/>
<use href="#i-heart" transform="translate(3645.0 737.1) rotate(-5.0) scale(0.8333) translate(-24 -24)" opacity="0.45"/>
<use href="#i-bicycle" transform="translate(-540.0 853.2) rotate(5.0) scale(3.2500) translate(-24 -24)"/>
<use href="#i-smile" transform="translate(-405.0 969.3) rotate(-5.0) scale(3.2500) translate(-24 -24)"/>
<use href="#i-heart" transform="translate(-405.0 853.2) rotate(5.0) scale(0.8333) translate(-24 -24)" opacity="0.45"/>
<use href="#i-heart" transform="translate(-540.0 969.3) rotate(-20.0) scale(0.8333) translate(-24 -24)" opacity="0.45"/>
<use href="#i-bicycle" transform="translate(-270.0 853.2) rotate(5.0) scale(3.2500) translate(-24 -24)"/>
<use href="#i-smile" transform="translate(-135.0 969.3) rotate(-5.0) scale(3.2500) translate(-24 -24)"/>
<use href="#i-heart" transform="translate(-135.0 853.2) rotate(-10.0) scale(0.8333) translate(-24 -24)" opacity="0.45"/>
<use href="#i-heart" transform="translate(-270.0 969.3) rotate(-10.0) scale(0.8333) translate(-24 -24)" opacity="0.45"/>
<use href="#i-bicycle" transform="translate(0.0 853.2) rotate(0.0) scale(3.2500) translate(-24 -24)"/>
<use href="#i-smile" transform="translate(135.0 969.3) rotate(5.0) scale(3.2500) translate(-24 -24)"/>
<use href="#i-heart" transform="translate(135.0 853.2) rotate(-20.0) scale(0.8333) translate(-24 -24)" opacity="0.45"/>
<use href="#i-heart" transform="translate(0.0 969.3) rotate(10.0) scale(0.8333) translate(-24 -24)" opacity="0.45"/>
<use href="#i-bicycle" transform="translate(270.0 853.2) rotate(-5.0) scale(3.2500) translate(-24 -24)"/>
<use href="#i-smile" transform="translate(405.0 969.3) rotate(5.0) scale(3.2500) translate(-24 -24)"/>
<use href="#i-heart" transform="translate(405.0 853.2) rotate(15.0) scale(0.8333) translate(-24 -24)" opacity="0.45"/>
<use href="#i-heart" transform="translate(270.0 969.3) rotate(25.0) scale(0.8333) translate(-24 -24)" opacity="0.45"/>
<use href="#i-bicycle" transform="translate(540.0 853.2) rotate(0.0) scale(3.2500) translate(-24 -24)"/>
<use href="#i-smile" transform="translate(675.0 969.3) rotate(5.0) scale(3.2500) translate(-24 -24)"/>
<use href="#i-heart" transform="translate(675.0 853.2) rotate(10.0) scale(0.8333) translate(-24 -24)" opacity="0.45"/>
<use href="#i-heart" transform="translate(540.0 969.3) rotate(5.0) scale(0.8333) translate(-24 -24)" opacity="0.45"/>
<use href="#i-bicycle" transform="translate(810.0 853.2) rotate(0.0) scale(3.2500) translate(-24 -24)"/>
<use href="#i-smile" transform="translate(945.0 969.3) rotate(5.0) scale(3.2500) translate(-24 -24)"/>
<use href="#i-heart" transform="translate(945.0 853.2) rotate(-15.0) scale(0.8333) translate(-24 -24)" opacity="0.45"/>
<use href="#i-heart" transform="translate(810.0 969.3) rotate(0.0) scale(0.8333) translate(-24 -24)" opacity="0.45"/>
<use href="#i-bicycle" transform="translate(1080.0 853.2) rotate(-10.0) scale(3.2500) translate(-24 -24)"/>
<use href="#i-smile" transform="translate(1215.0 969.3) rotate(0.0) scale(3.2500) translate(-24 -24)"/>
<use href="#i-heart" transform="translate(1215.0 853.2) rotate(20.0) scale(0.8333) translate(-24 -24)" opacity="0.45"/>
<use href="#i-heart" transform="translate(1080.0 969.3) rotate(20.0) scale(0.8333) translate(-24 -24)" opacity="0.45"/>
<use href="#i-bicycle" transform="translate(1350.0 853.2) rotate(0.0) scale(3.2500) translate(-24 -24)"/>
<use href="#i-smile" transform="translate(1485.0 969.3) rotate(-10.0) scale(3.2500) translate(-24 -24)"/>
<use href="#i-heart" transform="translate(1485.0 853.2) rotate(10.0) scale(0.8333) translate(-24 -24)" opacity="0.45"/>
<use href="#i-heart" transform="translate(1350.0 969.3) rotate(25.0) scale(0.8333) translate(-24 -24)" opacity="0.45"/>
<use href="#i-bicycle" transform="translate(1620.0 853.2) rotate(-5.0) scale(3.2500) translate(-24 -24)"/>
<use href="#i-smile" transform="translate(1755.0 969.3) rotate(-10.0) scale(3.2500) translate(-24 -24)"/>
<use href="#i-heart" transform="translate(1755.0 853.2) rotate(15.0) scale(0.8333) translate(-24 -24)" opacity="0.45"/>
<use href="#i-heart" transform="translate(1620.0 969.3) rotate(5.0) scale(0.8333) translate(-24 -24)" opacity="0.45"/>
<use href="#i-bicycle" transform="translate(1890.0 853.2) rotate(-5.0) scale(3.2500) translate(-24 -24)"/>
<use href="#i-smile" transform="translate(2025.0 969.3) rotate(0.0) scale(3.2500) translate(-24 -24)"/>
<use href="#i-heart" transform="translate(2025.0 853.2) rotate(-15.0) scale(0.8333) translate(-24 -24)" opacity="0.45"/>
<use href="#i-heart" transform="translate(1890.0 969.3) rotate(0.0) scale(0.8333) translate(-24 -24)" opacity="0.45"/>
<use href="#i-bicycle" transform="translate(2160.0 853.2) rotate(5.0) scale(3.2500) translate(-24 -24)"/>
<use href="#i-smile" transform="translate(2295.0 969.3) rotate(0.0) scale(3.2500) translate(-24 -24)"/>
<use href="#i-heart" transform="translate(2295.0 853.2) rotate(10.0) scale(0.8333) translate(-24 -24)" opacity="0.45"/>
<use href="#i-heart" transform="translate(2160.0 969.3) rotate(20.0) scale(0.8333) translate(-24 -24)" opacity="0.45"/>
<use href="#i-bicycle" transform="translate(2430.0 853.2) rotate(10.0) scale(3.2500) translate(-24 -24)"/>
<use href="#i-smile" transform="translate(2565.0 969.3) rotate(0.0) scale(3.2500) translate(-24 -24)"/>
<use href="#i-heart" transform="translate(2565.0 853.2) rotate(-5.0) scale(0.8333) translate(-24 -24)" opacity="0.45"/>
<use href="#i-heart" transform="translate(2430.0 969.3) rotate(10.0) scale(0.8333) translate(-24 -24)" opacity="0.45"/>
<use href="#i-bicycle" transform="translate(2700.0 853.2) rotate(0.0) scale(3.2500) translate(-24 -24)"/>
<use href="#i-smile" transform="translate(2835.0 969.3) rotate(5.0) scale(3.2500) translate(-24 -24)"/>
<use href="#i-heart" transform="translate(2835.0 853.2) rotate(-20.0) scale(0.8333) translate(-24 -24)" opacity="0.45"/>
<use href="#i-heart" transform="translate(2700.0 969.3) rotate(-5.0) scale(0.8333) translate(-24 -24)" opacity="0.45"/>
<use href="#i-bicycle" transform="translate(2970.0 853.2) rotate(-5.0) scale(3.2500) translate(-24 -24)"/>
<use href="#i-smile" transform="translate(3105.0 969.3) rotate(5.0) scale(3.2500) translate(-24 -24)"/>
<use href="#i-heart" transform="translate(3105.0 853.2) rotate(5.0) scale(0.8333) translate(-24 -24)" opacity="0.45"/>
<use href="#i-heart" transform="translate(2970.0 969.3) rotate(-15.0) scale(0.8333) translate(-24 -24)" opacity="0.45"/>
<use href="#i-bicycle" transform="translate(3240.0 853.2) rotate(-10.0) scale(3.2500) translate(-24 -24)"/>
<use href="#i-smile" transform="translate(3375.0 969.3) rotate(5.0) scale(3.2500) translate(-24 -24)"/>
<use href="#i-heart" transform="translate(3375.0 853.2) rotate(10.0) scale(0.8333) translate(-24 -24)" opacity="0.45"/>
<use href="#i-heart" transform="translate(3240.0 969.3) rotate(-5.0) scale(0.8333) translate(-24 -24)" opacity="0.45"/>
<use href="#i-bicycle" transform="translate(3510.0 853.2) rotate(0.0) scale(3.2500) translate(-24 -24)"/>
<use href="#i-smile" transform="translate(3645.0 969.3) rotate(-5.0) scale(3.2500) translate(-24 -24)"/>
<use href="#i-heart" transform="translate(3645.0 853.2) rotate(0.0) scale(0.8333) translate(-24 -24)" opacity="0.45"/>
<use href="#i-heart" transform="translate(3510.0 969.3) rotate(5.0) scale(0.8333) translate(-24 -24)" opacity="0.45"/>
<use href="#i-bicycle" transform="translate(-405.0 1085.4) rotate(-5.0) scale(3.2500) translate(-24 -24)"/>
<use href="#i-smile" transform="translate(-270.0 1201.5) rotate(0.0) scale(3.2500) translate(-24 -24)"/>
<use href="#i-heart" transform="translate(-270.0 1085.4) rotate(-25.0) scale(0.8333) translate(-24 -24)" opacity="0.45"/>
<use href="#i-heart" transform="translate(-405.0 1201.5) rotate(0.0) scale(0.8333) translate(-24 -24)" opacity="0.45"/>
<use href="#i-bicycle" transform="translate(-135.0 1085.4) rotate(-10.0) scale(3.2500) translate(-24 -24)"/>
<use href="#i-smile" transform="translate(0.0 1201.5) rotate(5.0) scale(3.2500) translate(-24 -24)"/>
<use href="#i-heart" transform="translate(0.0 1085.4) rotate(25.0) scale(0.8333) translate(-24 -24)" opacity="0.45"/>
<use href="#i-heart" transform="translate(-135.0 1201.5) rotate(10.0) scale(0.8333) translate(-24 -24)" opacity="0.45"/>
<use href="#i-bicycle" transform="translate(135.0 1085.4) rotate(-5.0) scale(3.2500) translate(-24 -24)"/>
<use href="#i-smile" transform="translate(270.0 1201.5) rotate(-10.0) scale(3.2500) translate(-24 -24)"/>
<use href="#i-heart" transform="translate(270.0 1085.4) rotate(0.0) scale(0.8333) translate(-24 -24)" opacity="0.45"/>
<use href="#i-heart" transform="translate(135.0 1201.5) rotate(15.0) scale(0.8333) translate(-24 -24)" opacity="0.45"/>
<use href="#i-bicycle" transform="translate(405.0 1085.4) rotate(0.0) scale(3.2500) translate(-24 -24)"/>
<use href="#i-smile" transform="translate(540.0 1201.5) rotate(0.0) scale(3.2500) translate(-24 -24)"/>
<use href="#i-heart" transform="translate(540.0 1085.4) rotate(5.0) scale(0.8333) translate(-24 -24)" opacity="0.45"/>
<use href="#i-heart" transform="translate(405.0 1201.5) rotate(-5.0) scale(0.8333) translate(-24 -24)" opacity="0.45"/>
<use href="#i-bicycle" transform="translate(675.0 1085.4) rotate(-5.0) scale(3.2500) translate(-24 -24)"/>
<use href="#i-smile" transform="translate(810.0 1201.5) rotate(-5.0) scale(3.2500) translate(-24 -24)"/>
<use href="#i-heart" transform="translate(810.0 1085.4) rotate(-10.0) scale(0.8333) translate(-24 -24)" opacity="0.45"/>
<use href="#i-heart" transform="translate(675.0 1201.5) rotate(15.0) scale(0.8333) translate(-24 -24)" opacity="0.45"/>
<use href="#i-bicycle" transform="translate(945.0 1085.4) rotate(-5.0) scale(3.2500) translate(-24 -24)"/>
<use href="#i-smile" transform="translate(1080.0 1201.5) rotate(0.0) scale(3.2500) translate(-24 -24)"/>
<use href="#i-heart" transform="translate(1080.0 1085.4) rotate(15.0) scale(0.8333) translate(-24 -24)" opacity="0.45"/>
<use href="#i-heart" transform="translate(945.0 1201.5) rotate(-15.0) scale(0.8333) translate(-24 -24)" opacity="0.45"/>
<use href="#i-bicycle" transform="translate(1215.0 1085.4) rotate(5.0) scale(3.2500) translate(-24 -24)"/>
<use href="#i-smile" transform="translate(1350.0 1201.5) rotate(0.0) scale(3.2500) translate(-24 -24)"/>
<use href="#i-heart" transform="translate(1350.0 1085.4) rotate(-5.0) scale(0.8333) translate(-24 -24)" opacity="0.45"/>
<use href="#i-heart" transform="translate(1215.0 1201.5) rotate(15.0) scale(0.8333) translate(-24 -24)" opacity="0.45"/>
<use href="#i-bicycle" transform="translate(1485.0 1085.4) rotate(0.0) scale(3.2500) translate(-24 -24)"/>
<use href="#i-smile" transform="translate(1620.0 1201.5) rotate(-10.0) scale(3.2500) translate(-24 -24)"/>
<use href="#i-heart" transform="translate(1620.0 1085.4) rotate(-20.0) scale(0.8333) translate(-24 -24)" opacity="0.45"/>
<use href="#i-heart" transform="translate(1485.0 1201.5) rotate(-15.0) scale(0.8333) translate(-24 -24)" opacity="0.45"/>
<use href="#i-bicycle" transform="translate(1755.0 1085.4) rotate(0.0) scale(3.2500) translate(-24 -24)"/>
<use href="#i-smile" transform="translate(1890.0 1201.5) rotate(-10.0) scale(3.2500) translate(-24 -24)"/>
<use href="#i-heart" transform="translate(1890.0 1085.4) rotate(15.0) scale(0.8333) translate(-24 -24)" opacity="0.45"/>
<use href="#i-heart" transform="translate(1755.0 1201.5) rotate(5.0) scale(0.8333) translate(-24 -24)" opacity="0.45"/>
<use href="#i-bicycle" transform="translate(2025.0 1085.4) rotate(-10.0) scale(3.2500) translate(-24 -24)"/>
<use href="#i-smile" transform="translate(2160.0 1201.5) rotate(-5.0) scale(3.2500) translate(-24 -24)"/>
<use href="#i-heart" transform="translate(2160.0 1085.4) rotate(-15.0) scale(0.8333) translate(-24 -24)" opacity="0.45"/>
<use href="#i-heart" transform="translate(2025.0 1201.5) rotate(-5.0) scale(0.8333) translate(-24 -24)" opacity="0.45"/>
<use href="#i-bicycle" transform="translate(2295.0 1085.4) rotate(-5.0) scale(3.2500) translate(-24 -24)"/>
<use href="#i-smile" transform="translate(2430.0 1201.5) rotate(10.0) scale(3.2500) translate(-24 -24)"/>
<use href="#i-heart" transform="translate(2430.0 1085.4) rotate(-25.0) scale(0.8333) translate(-24 -24)" opacity="0.45"/>
<use href="#i-heart" transform="translate(2295.0 1201.5) rotate(25.0) scale(0.8333) translate(-24 -24)" opacity="0.45"/>
<use href="#i-bicycle" transform="translate(2565.0 1085.4) rotate(-5.0) scale(3.2500) translate(-24 -24)"/>
<use href="#i-smile" transform="translate(2700.0 1201.5) rotate(-5.0) scale(3.2500) translate(-24 -24)"/>
<use href="#i-heart" transform="translate(2700.0 1085.4) rotate(5.0) scale(0.8333) translate(-24 -24)" opacity="0.45"/>
<use href="#i-heart" transform="translate(2565.0 1201.5) rotate(5.0) scale(0.8333) translate(-24 -24)" opacity="0.45"/>
<use href="#i-bicycle" transform="translate(2835.0 1085.4) rotate(0.0) scale(3.2500) translate(-24 -24)"/>
<use href="#i-smile" transform="translate(2970.0 1201.5) rotate(0.0) scale(3.2500) translate(-24 -24)"/>
<use href="#i-heart" transform="translate(2970.0 1085.4) rotate(15.0) scale(0.8333) translate(-24 -24)" opacity="0.45"/>
<use href="#i-heart" transform="translate(2835.0 1201.5) rotate(0.0) scale(0.8333) translate(-24 -24)" opacity="0.45"/>
<use href="#i-bicycle" transform="translate(3105.0 1085.4) rotate(0.0) scale(3.2500) translate(-24 -24)"/>
<use href="#i-smile" transform="translate(3240.0 1201.5) rotate(-10.0) scale(3.2500) translate(-24 -24)"/>
<use href="#i-heart" transform="translate(3240.0 1085.4) rotate(15.0) scale(0.8333) translate(-24 -24)" opacity="0.45"/>
<use href="#i-heart" transform="translate(3105.0 1201.5) rotate(-5.0) scale(0.8333) translate(-24 -24)" opacity="0.45"/>
<use href="#i-bicycle" transform="translate(3375.0 1085.4) rotate(-5.0) scale(3.2500) translate(-24 -24)"/>
<use href="#i-smile" transform="translate(3510.0 1201.5) rotate(5.0) scale(3.2500) translate(-24 -24)"/>
<use href="#i-heart" transform="translate(3510.0 1085.4) rotate(10.0) scale(0.8333) translate(-24 -24)" opacity="0.45"/>
<use href="#i-heart" transform="translate(3375.0 1201.5) rotate(-5.0) scale(0.8333) translate(-24 -24)" opacity="0.45"/>
<use href="#i-bicycle" transform="translate(3645.0 1085.4) rotate(0.0) scale(3.2500) translate(-24 -24)"/>
<use href="#i-smile" transform="translate(3780.0 1201.5) rotate(0.0) scale(3.2500) translate(-24 -24)"/>
<use href="#i-heart" transform="translate(3780.0 1085.4) rotate(-5.0) scale(0.8333) translate(-24 -24)" opacity="0.45"/>
<use href="#i-heart" transform="translate(3645.0 1201.5) rotate(5.0) scale(0.8333) translate(-24 -24)" opacity="0.45"/>
<use href="#i-bicycle" transform="translate(-540.0 1317.6) rotate(0.0) scale(3.2500) translate(-24 -24)"/>
<use href="#i-smile" transform="translate(-405.0 1433.7) rotate(10.0) scale(3.2500) translate(-24 -24)"/>
<use href="#i-heart" transform="translate(-405.0 1317.6) rotate(20.0) scale(0.8333) translate(-24 -24)" opacity="0.45"/>
<use href="#i-heart" transform="translate(-540.0 1433.7) rotate(0.0) scale(0.8333) translate(-24 -24)" opacity="0.45"/>
<use href="#i-bicycle" transform="translate(-270.0 1317.6) rotate(5.0) scale(3.2500) translate(-24 -24)"/>
<use href="#i-smile" transform="translate(-135.0 1433.7) rotate(-5.0) scale(3.2500) translate(-24 -24)"/>
<use href="#i-heart" transform="translate(-135.0 1317.6) rotate(5.0) scale(0.8333) translate(-24 -24)" opacity="0.45"/>
<use href="#i-heart" transform="translate(-270.0 1433.7) rotate(-15.0) scale(0.8333) translate(-24 -24)" opacity="0.45"/>
<use href="#i-bicycle" transform="translate(0.0 1317.6) rotate(-10.0) scale(3.2500) translate(-24 -24)"/>
<use href="#i-smile" transform="translate(135.0 1433.7) rotate(0.0) scale(3.2500) translate(-24 -24)"/>
<use href="#i-heart" transform="translate(135.0 1317.6) rotate(-10.0) scale(0.8333) translate(-24 -24)" opacity="0.45"/>
<use href="#i-heart" transform="translate(0.0 1433.7) rotate(-5.0) scale(0.8333) translate(-24 -24)" opacity="0.45"/>
<use href="#i-bicycle" transform="translate(270.0 1317.6) rotate(-5.0) scale(3.2500) translate(-24 -24)"/>
<use href="#i-smile" transform="translate(405.0 1433.7) rotate(5.0) scale(3.2500) translate(-24 -24)"/>
<use href="#i-heart" transform="translate(405.0 1317.6) rotate(-25.0) scale(0.8333) translate(-24 -24)" opacity="0.45"/>
<use href="#i-heart" transform="translate(270.0 1433.7) rotate(20.0) scale(0.8333) translate(-24 -24)" opacity="0.45"/>
<use href="#i-bicycle" transform="translate(540.0 1317.6) rotate(5.0) scale(3.2500) translate(-24 -24)"/>
<use href="#i-smile" transform="translate(675.0 1433.7) rotate(5.0) scale(3.2500) translate(-24 -24)"/>
<use href="#i-heart" transform="translate(675.0 1317.6) rotate(15.0) scale(0.8333) translate(-24 -24)" opacity="0.45"/>
<use href="#i-heart" transform="translate(540.0 1433.7) rotate(-20.0) scale(0.8333) translate(-24 -24)" opacity="0.45"/>
<use href="#i-bicycle" transform="translate(810.0 1317.6) rotate(5.0) scale(3.2500) translate(-24 -24)"/>
<use href="#i-smile" transform="translate(945.0 1433.7) rotate(5.0) scale(3.2500) translate(-24 -24)"/>
<use href="#i-heart" transform="translate(945.0 1317.6) rotate(-10.0) scale(0.8333) translate(-24 -24)" opacity="0.45"/>
<use href="#i-heart" transform="translate(810.0 1433.7) rotate(-20.0) scale(0.8333) translate(-24 -24)" opacity="0.45"/>
<use href="#i-bicycle" transform="translate(1080.0 1317.6) rotate(0.0) scale(3.2500) translate(-24 -24)"/>
<use href="#i-smile" transform="translate(1215.0 1433.7) rotate(5.0) scale(3.2500) translate(-24 -24)"/>
<use href="#i-heart" transform="translate(1215.0 1317.6) rotate(15.0) scale(0.8333) translate(-24 -24)" opacity="0.45"/>
<use href="#i-heart" transform="translate(1080.0 1433.7) rotate(-5.0) scale(0.8333) translate(-24 -24)" opacity="0.45"/>
<use href="#i-bicycle" transform="translate(1350.0 1317.6) rotate(-5.0) scale(3.2500) translate(-24 -24)"/>
<use href="#i-smile" transform="translate(1485.0 1433.7) rotate(-5.0) scale(3.2500) translate(-24 -24)"/>
<use href="#i-heart" transform="translate(1485.0 1317.6) rotate(-10.0) scale(0.8333) translate(-24 -24)" opacity="0.45"/>
<use href="#i-heart" transform="translate(1350.0 1433.7) rotate(10.0) scale(0.8333) translate(-24 -24)" opacity="0.45"/>
<use href="#i-bicycle" transform="translate(1620.0 1317.6) rotate(-10.0) scale(3.2500) translate(-24 -24)"/>
<use href="#i-smile" transform="translate(1755.0 1433.7) rotate(5.0) scale(3.2500) translate(-24 -24)"/>
<use href="#i-heart" transform="translate(1755.0 1317.6) rotate(15.0) scale(0.8333) translate(-24 -24)" opacity="0.45"/>
<use href="#i-heart" transform="translate(1620.0 1433.7) rotate(-15.0) scale(0.8333) translate(-24 -24)" opacity="0.45"/>
<use href="#i-bicycle" transform="translate(1890.0 1317.6) rotate(5.0) scale(3.2500) translate(-24 -24)"/>
<use href="#i-smile" transform="translate(2025.0 1433.7) rotate(10.0) scale(3.2500) translate(-24 -24)"/>
<use href="#i-heart" transform="translate(2025.0 1317.6) rotate(-10.0) scale(0.8333) translate(-24 -24)" opacity="0.45"/>
<use href="#i-heart" transform="translate(1890.0 1433.7) rotate(15.0) scale(0.8333) translate(-24 -24)" opacity="0.45"/>
<use href="#i-bicycle" transform="translate(2160.0 1317.6) rotate(5.0) scale(3.2500) translate(-24 -24)"/>
<use href="#i-smile" transform="translate(2295.0 1433.7) rotate(-10.0) scale(3.2500) translate(-24 -24)"/>
<use href="#i-heart" transform="translate(2295.0 1317.6) rotate(15.0) scale(0.8333) translate(-24 -24)" opacity="0.45"/>
<use href="#i-heart" transform="translate(2160.0 1433.7) rotate(5.0) scale(0.8333) translate(-24 -24)" opacity="0.45"/>
<use href="#i-bicycle" transform="translate(2430.0 1317.6) rotate(-5.0) scale(3.2500) translate(-24 -24)"/>
<use href="#i-smile" transform="translate(2565.0 1433.7) rotate(-5.0) scale(3.2500) translate(-24 -24)"/>
<use href="#i-heart" transform="translate(2565.0 1317.6) rotate(5.0) scale(0.8333) translate(-24 -24)" opacity="0.45"/>
<use href="#i-heart" transform="translate(2430.0 1433.7) rotate(10.0) scale(0.8333) translate(-24 -24)" opacity="0.45"/>
<use href="#i-bicycle" transform="translate(2700.0 1317.6) rotate(5.0) scale(3.2500) translate(-24 -24)"/>
<use href="#i-smile" transform="translate(2835.0 1433.7) rotate(5.0) scale(3.2500) translate(-24 -24)"/>
<use href="#i-heart" transform="translate(2835.0 1317.6) rotate(-5.0) scale(0.8333) translate(-24 -24)" opacity="0.45"/>
<use href="#i-heart" transform="translate(2700.0 1433.7) rotate(0.0) scale(0.8333) translate(-24 -24)" opacity="0.45"/>
<use href="#i-bicycle" transform="translate(2970.0 1317.6) rotate(0.0) scale(3.2500) translate(-24 -24)"/>
<use href="#i-smile" transform="translate(3105.0 1433.7) rotate(0.0) scale(3.2500) translate(-24 -24)"/>
<use href="#i-heart" transform="translate(3105.0 1317.6) rotate(0.0) scale(0.8333) translate(-24 -24)" opacity="0.45"/>
<use href="#i-heart" transform="translate(2970.0 1433.7) rotate(-15.0) scale(0.8333) translate(-24 -24)" opacity="0.45"/>
<use href="#i-bicycle" transform="translate(3240.0 1317.6) rotate(-5.0) scale(3.2500) translate(-24 -24)"/>
<use href="#i-smile" transform="translate(3375.0 1433.7) rotate(-5.0) scale(3.2500) translate(-24 -24)"/>
<use href="#i-heart" transform="translate(3375.0 1317.6) rotate(-10.0) scale(0.8333) translate(-24 -24)" opacity="0.45"/>
<use href="#i-heart" transform="translate(3240.0 1433.7) rotate(20.0) scale(0.8333) translate(-24 -24)" opacity="0.45"/>
<use href="#i-bicycle" transform="translate(3510.0 1317.6) rotate(-10.0) scale(3.2500) translate(-24 -24)"/>
<use href="#i-smile" transform="translate(3645.0 1433.7) rotate(0.0) scale(3.2500) translate(-24 -24)"/>
<use href="#i-heart" transform="translate(3645.0 1317.6) rotate(10.0) scale(0.8333) translate(-24 -24)" opacity="0.45"/>
<use href="#i-heart" transform="translate(3510.0 1433.7) rotate(-5.0) scale(0.8333) translate(-24 -24)" opacity="0.45"/>
<use href="#i-bicycle" transform="translate(-405.0 1549.8) rotate(5.0) scale(3.2500) translate(-24 -24)"/>
<use href="#i-smile" transform="translate(-270.0 1665.9) rotate(0.0) scale(3.2500) translate(-24 -24)"/>
<use href="#i-heart" transform="translate(-270.0 1549.8) rotate(15.0) scale(0.8333) translate(-24 -24)" opacity="0.45"/>
<use href="#i-heart" transform="translate(-405.0 1665.9) rotate(-10.0) scale(0.8333) translate(-24 -24)" opacity="0.45"/>
<use href="#i-bicycle" transform="translate(-135.0 1549.8) rotate(10.0) scale(3.2500) translate(-24 -24)"/>
<use href="#i-smile" transform="translate(0.0 1665.9) rotate(5.0) scale(3.2500) translate(-24 -24)"/>
<use href="#i-heart" transform="translate(0.0 1549.8) rotate(0.0) scale(0.8333) translate(-24 -24)" opacity="0.45"/>
<use href="#i-heart" transform="translate(-135.0 1665.9) rotate(-15.0) scale(0.8333) translate(-24 -24)" opacity="0.45"/>
<use href="#i-bicycle" transform="translate(135.0 1549.8) rotate(5.0) scale(3.2500) translate(-24 -24)"/>
<use href="#i-smile" transform="translate(270.0 1665.9) rotate(-5.0) scale(3.2500) translate(-24 -24)"/>
<use href="#i-heart" transform="translate(270.0 1549.8) rotate(5.0) scale(0.8333) translate(-24 -24)" opacity="0.45"/>
<use href="#i-heart" transform="translate(135.0 1665.9) rotate(0.0) scale(0.8333) translate(-24 -24)" opacity="0.45"/>
<use href="#i-bicycle" transform="translate(405.0 1549.8) rotate(0.0) scale(3.2500) translate(-24 -24)"/>
<use href="#i-smile" transform="translate(540.0 1665.9) rotate(-10.0) scale(3.2500) translate(-24 -24)"/>
<use href="#i-heart" transform="translate(540.0 1549.8) rotate(-5.0) scale(0.8333) translate(-24 -24)" opacity="0.45"/>
<use href="#i-heart" transform="translate(405.0 1665.9) rotate(20.0) scale(0.8333) translate(-24 -24)" opacity="0.45"/>
<use href="#i-bicycle" transform="translate(675.0 1549.8) rotate(5.0) scale(3.2500) translate(-24 -24)"/>
<use href="#i-smile" transform="translate(810.0 1665.9) rotate(10.0) scale(3.2500) translate(-24 -24)"/>
<use href="#i-heart" transform="translate(810.0 1549.8) rotate(10.0) scale(0.8333) translate(-24 -24)" opacity="0.45"/>
<use href="#i-heart" transform="translate(675.0 1665.9) rotate(0.0) scale(0.8333) translate(-24 -24)" opacity="0.45"/>
<use href="#i-bicycle" transform="translate(945.0 1549.8) rotate(0.0) scale(3.2500) translate(-24 -24)"/>
<use href="#i-smile" transform="translate(1080.0 1665.9) rotate(5.0) scale(3.2500) translate(-24 -24)"/>
<use href="#i-heart" transform="translate(1080.0 1549.8) rotate(10.0) scale(0.8333) translate(-24 -24)" opacity="0.45"/>
<use href="#i-heart" transform="translate(945.0 1665.9) rotate(-20.0) scale(0.8333) translate(-24 -24)" opacity="0.45"/>
<use href="#i-bicycle" transform="translate(1215.0 1549.8) rotate(-10.0) scale(3.2500) translate(-24 -24)"/>
<use href="#i-smile" transform="translate(1350.0 1665.9) rotate(-5.0) scale(3.2500) translate(-24 -24)"/>
<use href="#i-heart" transform="translate(1350.0 1549.8) rotate(-15.0) scale(0.8333) translate(-24 -24)" opacity="0.45"/>
<use href="#i-heart" transform="translate(1215.0 1665.9) rotate(-5.0) scale(0.8333) translate(-24 -24)" opacity="0.45"/>
<use href="#i-bicycle" transform="translate(1485.0 1549.8) rotate(-10.0) scale(3.2500) translate(-24 -24)"/>
<use href="#i-smile" transform="translate(1620.0 1665.9) rotate(-10.0) scale(3.2500) translate(-24 -24)"/>
<use href="#i-heart" transform="translate(1620.0 1549.8) rotate(-15.0) scale(0.8333) translate(-24 -24)" opacity="0.45"/>
<use href="#i-heart" transform="translate(1485.0 1665.9) rotate(-10.0) scale(0.8333) translate(-24 -24)" opacity="0.45"/>
<use href="#i-bicycle" transform="translate(1755.0 1549.8) rotate(-5.0) scale(3.2500) translate(-24 -24)"/>
<use href="#i-smile" transform="translate(1890.0 1665.9) rotate(5.0) scale(3.2500) translate(-24 -24)"/>
<use href="#i-heart" transform="translate(1890.0 1549.8) rotate(-20.0) scale(0.8333) translate(-24 -24)" opacity="0.45"/>
<use href="#i-heart" transform="translate(1755.0 1665.9) rotate(20.0) scale(0.8333) translate(-24 -24)" opacity="0.45"/>
<use href="#i-bicycle" transform="translate(2025.0 1549.8) rotate(-5.0) scale(3.2500) translate(-24 -24)"/>
<use href="#i-smile" transform="translate(2160.0 1665.9) rotate(5.0) scale(3.2500) translate(-24 -24)"/>
<use href="#i-heart" transform="translate(2160.0 1549.8) rotate(-20.0) scale(0.8333) translate(-24 -24)" opacity="0.45"/>
<use href="#i-heart" transform="translate(2025.0 1665.9) rotate(5.0) scale(0.8333) translate(-24 -24)" opacity="0.45"/>
<use href="#i-bicycle" transform="translate(2295.0 1549.8) rotate(5.0) scale(3.2500) translate(-24 -24)"/>
<use href="#i-smile" transform="translate(2430.0 1665.9) rotate(0.0) scale(3.2500) translate(-24 -24)"/>
<use href="#i-heart" transform="translate(2430.0 1549.8) rotate(-15.0) scale(0.8333) translate(-24 -24)" opacity="0.45"/>
<use href="#i-heart" transform="translate(2295.0 1665.9) rotate(0.0) scale(0.8333) translate(-24 -24)" opacity="0.45"/>
<use href="#i-bicycle" transform="translate(2565.0 1549.8) rotate(-5.0) scale(3.2500) translate(-24 -24)"/>
<use href="#i-smile" transform="translate(2700.0 1665.9) rotate(0.0) scale(3.2500) translate(-24 -24)"/>
<use href="#i-heart" transform="translate(2700.0 1549.8) rotate(10.0) scale(0.8333) translate(-24 -24)" opacity="0.45"/>
<use href="#i-heart" transform="translate(2565.0 1665.9) rotate(10.0) scale(0.8333) translate(-24 -24)" opacity="0.45"/>
<use href="#i-bicycle" transform="translate(2835.0 1549.8) rotate(-5.0) scale(3.2500) translate(-24 -24)"/>
<use href="#i-smile" transform="translate(2970.0 1665.9) rotate(5.0) scale(3.2500) translate(-24 -24)"/>
<use href="#i-heart" transform="translate(2970.0 1549.8) rotate(0.0) scale(0.8333) translate(-24 -24)" opacity="0.45"/>
<use href="#i-heart" transform="translate(2835.0 1665.9) rotate(-5.0) scale(0.8333) translate(-24 -24)" opacity="0.45"/>
<use href="#i-bicycle" transform="translate(3105.0 1549.8) rotate(0.0) scale(3.2500) translate(-24 -24)"/>
<use href="#i-smile" transform="translate(3240.0 1665.9) rotate(-10.0) scale(3.2500) translate(-24 -24)"/>
<use href="#i-heart" transform="translate(3240.0 1549.8) rotate(15.0) scale(0.8333) translate(-24 -24)" opacity="0.45"/>
<use href="#i-heart" transform="translate(3105.0 1665.9) rotate(10.0) scale(0.8333) translate(-24 -24)" opacity="0.45"/>
<use href="#i-bicycle" transform="translate(3375.0 1549.8) rotate(0.0) scale(3.2500) translate(-24 -24)"/>
<use href="#i-smile" transform="translate(3510.0 1665.9) rotate(5.0) scale(3.2500) translate(-24 -24)"/>
<use href="#i-heart" transform="translate(3510.0 1549.8) rotate(20.0) scale(0.8333) translate(-24 -24)" opacity="0.45"/>
<use href="#i-heart" transform="translate(3375.0 1665.9) rotate(-10.0) scale(0.8333) translate(-24 -24)" opacity="0.45"/>
<use href="#i-bicycle" transform="translate(3645.0 1549.8) rotate(10.0) scale(3.2500) translate(-24 -24)"/>
<use href="#i-smile" transform="translate(3780.0 1665.9) rotate(5.0) scale(3.2500) translate(-24 -24)"/>
<use href="#i-heart" transform="translate(3780.0 1549.8) rotate(10.0) scale(0.8333) translate(-24 -24)" opacity="0.45"/>
<use href="#i-heart" transform="translate(3645.0 1665.9) rotate(-25.0) scale(0.8333) translate(-24 -24)" opacity="0.45"/>
<use href="#i-bicycle" transform="translate(-540.0 1782.0) rotate(-5.0) scale(3.2500) translate(-24 -24)"/>
<use href="#i-smile" transform="translate(-405.0 1898.1) rotate(5.0) scale(3.2500) translate(-24 -24)"/>
<use href="#i-heart" transform="translate(-405.0 1782.0) rotate(-5.0) scale(0.8333) translate(-24 -24)" opacity="0.45"/>
<use href="#i-heart" transform="translate(-540.0 1898.1) rotate(5.0) scale(0.8333) translate(-24 -24)" opacity="0.45"/>
<use href="#i-bicycle" transform="translate(-270.0 1782.0) rotate(5.0) scale(3.2500) translate(-24 -24)"/>
<use href="#i-smile" transform="translate(-135.0 1898.1) rotate(5.0) scale(3.2500) translate(-24 -24)"/>
<use href="#i-heart" transform="translate(-135.0 1782.0) rotate(-10.0) scale(0.8333) translate(-24 -24)" opacity="0.45"/>
<use href="#i-heart" transform="translate(-270.0 1898.1) rotate(20.0) scale(0.8333) translate(-24 -24)" opacity="0.45"/>
<use href="#i-bicycle" transform="translate(0.0 1782.0) rotate(-5.0) scale(3.2500) translate(-24 -24)"/>
<use href="#i-smile" transform="translate(135.0 1898.1) rotate(-5.0) scale(3.2500) translate(-24 -24)"/>
<use href="#i-heart" transform="translate(135.0 1782.0) rotate(15.0) scale(0.8333) translate(-24 -24)" opacity="0.45"/>
<use href="#i-heart" transform="translate(0.0 1898.1) rotate(25.0) scale(0.8333) translate(-24 -24)" opacity="0.45"/>
<use href="#i-bicycle" transform="translate(270.0 1782.0) rotate(0.0) scale(3.2500) translate(-24 -24)"/>
<use href="#i-smile" transform="translate(405.0 1898.1) rotate(5.0) scale(3.2500) translate(-24 -24)"/>
<use href="#i-heart" transform="translate(405.0 1782.0) rotate(10.0) scale(0.8333) translate(-24 -24)" opacity="0.45"/>
<use href="#i-heart" transform="translate(270.0 1898.1) rotate(10.0) scale(0.8333) translate(-24 -24)" opacity="0.45"/>
<use href="#i-bicycle" transform="translate(540.0 1782.0) rotate(5.0) scale(3.2500) translate(-24 -24)"/>
<use href="#i-smile" transform="translate(675.0 1898.1) rotate(0.0) scale(3.2500) translate(-24 -24)"/>
<use href="#i-heart" transform="translate(675.0 1782.0) rotate(-15.0) scale(0.8333) translate(-24 -24)" opacity="0.45"/>
<use href="#i-heart" transform="translate(540.0 1898.1) rotate(10.0) scale(0.8333) translate(-24 -24)" opacity="0.45"/>
<use href="#i-bicycle" transform="translate(810.0 1782.0) rotate(-10.0) scale(3.2500) translate(-24 -24)"/>
<use href="#i-smile" transform="translate(945.0 1898.1) rotate(10.0) scale(3.2500) translate(-24 -24)"/>
<use href="#i-heart" transform="translate(945.0 1782.0) rotate(-20.0) scale(0.8333) translate(-24 -24)" opacity="0.45"/>
<use href="#i-heart" transform="translate(810.0 1898.1) rotate(20.0) scale(0.8333) translate(-24 -24)" opacity="0.45"/>
<use href="#i-bicycle" transform="translate(1080.0 1782.0) rotate(-5.0) scale(3.2500) translate(-24 -24)"/>
<use href="#i-smile" transform="translate(1215.0 1898.1) rotate(5.0) scale(3.2500) translate(-24 -24)"/>
<use href="#i-heart" transform="translate(1215.0 1782.0) rotate(25.0) scale(0.8333) translate(-24 -24)" opacity="0.45"/>
<use href="#i-heart" transform="translate(1080.0 1898.1) rotate(-5.0) scale(0.8333) translate(-24 -24)" opacity="0.45"/>
<use href="#i-bicycle" transform="translate(1350.0 1782.0) rotate(-5.0) scale(3.2500) translate(-24 -24)"/>
<use href="#i-smile" transform="translate(1485.0 1898.1) rotate(10.0) scale(3.2500) translate(-24 -24)"/>
<use href="#i-heart" transform="translate(1485.0 1782.0) rotate(20.0) scale(0.8333) translate(-24 -24)" opacity="0.45"/>
<use href="#i-heart" transform="translate(1350.0 1898.1) rotate(-5.0) scale(0.8333) translate(-24 -24)" opacity="0.45"/>
<use href="#i-bicycle" transform="translate(1620.0 1782.0) rotate(-10.0) scale(3.2500) translate(-24 -24)"/>
<use href="#i-smile" transform="translate(1755.0 1898.1) rotate(0.0) scale(3.2500) translate(-24 -24)"/>
<use href="#i-heart" transform="translate(1755.0 1782.0) rotate(-25.0) scale(0.8333) translate(-24 -24)" opacity="0.45"/>
<use href="#i-heart" transform="translate(1620.0 1898.1) rotate(0.0) scale(0.8333) translate(-24 -24)" opacity="0.45"/>
<use href="#i-bicycle" transform="translate(1890.0 1782.0) rotate(0.0) scale(3.2500) translate(-24 -24)"/>
<use href="#i-smile" transform="translate(2025.0 1898.1) rotate(-5.0) scale(3.2500) translate(-24 -24)"/>
<use href="#i-heart" transform="translate(2025.0 1782.0) rotate(0.0) scale(0.8333) translate(-24 -24)" opacity="0.45"/>
<use href="#i-heart" transform="translate(1890.0 1898.1) rotate(-15.0) scale(0.8333) translate(-24 -24)" opacity="0.45"/>
<use href="#i-bicycle" transform="translate(2160.0 1782.0) rotate(-10.0) scale(3.2500) translate(-24 -24)"/>
<use href="#i-smile" transform="translate(2295.0 1898.1) rotate(-10.0) scale(3.2500) translate(-24 -24)"/>
<use href="#i-heart" transform="translate(2295.0 1782.0) rotate(-10.0) scale(0.8333) translate(-24 -24)" opacity="0.45"/>
<use href="#i-heart" transform="translate(2160.0 1898.1) rotate(0.0) scale(0.8333) translate(-24 -24)" opacity="0.45"/>
<use href="#i-bicycle" transform="translate(2430.0 1782.0) rotate(0.0) scale(3.2500) translate(-24 -24)"/>
<use href="#i-smile" transform="translate(2565.0 1898.1) rotate(-5.0) scale(3.2500) translate(-24 -24)"/>
<use href="#i-heart" transform="translate(2565.0 1782.0) rotate(15.0) scale(0.8333) translate(-24 -24)" opacity="0.45"/>
<use href="#i-heart" transform="translate(2430.0 1898.1) rotate(-15.0) scale(0.8333) translate(-24 -24)" opacity="0.45"/>
<use href="#i-bicycle" transform="translate(2700.0 1782.0) rotate(-5.0) scale(3.2500) translate(-24 -24)"/>
<use href="#i-smile" transform="translate(2835.0 1898.1) rotate(-5.0) scale(3.2500) translate(-24 -24)"/>
<use href="#i-heart" transform="translate(2835.0 1782.0) rotate(-10.0) scale(0.8333) translate(-24 -24)" opacity="0.45"/>
<use href="#i-heart" transform="translate(2700.0 1898.1) rotate(-20.0) scale(0.8333) translate(-24 -24)" opacity="0.45"/>
<use href="#i-bicycle" transform="translate(2970.0 1782.0) rotate(-5.0) scale(3.2500) translate(-24 -24)"/>
<use href="#i-smile" transform="translate(3105.0 1898.1) rotate(-10.0) scale(3.2500) translate(-24 -24)"/>
<use href="#i-heart" transform="translate(3105.0 1782.0) rotate(0.0) scale(0.8333) translate(-24 -24)" opacity="0.45"/>
<use href="#i-heart" transform="translate(2970.0 1898.1) rotate(20.0) scale(0.8333) translate(-24 -24)" opacity="0.45"/>
<use href="#i-bicycle" transform="translate(3240.0 1782.0) rotate(5.0) scale(3.2500) translate(-24 -24)"/>
<use href="#i-smile" transform="translate(3375.0 1898.1) rotate(0.0) scale(3.2500) translate(-24 -24)"/>
<use href="#i-heart" transform="translate(3375.0 1782.0) rotate(-10.0) scale(0.8333) translate(-24 -24)" opacity="0.45"/>
<use href="#i-heart" transform="translate(3240.0 1898.1) rotate(20.0) scale(0.8333) translate(-24 -24)" opacity="0.45"/>
<use href="#i-bicycle" transform="translate(3510.0 1782.0) rotate(10.0) scale(3.2500) translate(-24 -24)"/>
<use href="#i-smile" transform="translate(3645.0 1898.1) rotate(-5.0) scale(3.2500) translate(-24 -24)"/>
<use href="#i-heart" transform="translate(3645.0 1782.0) rotate(-10.0) scale(0.8333) translate(-24 -24)" opacity="0.45"/>
<use href="#i-heart" transform="translate(3510.0 1898.1) rotate(-20.0) scale(0.8333) translate(-24 -24)" opacity="0.45"/>
<use href="#i-bicycle" transform="translate(-405.0 2014.2) rotate(-10.0) scale(3.2500) translate(-24 -24)"/>
<use href="#i-smile" transform="translate(-270.0 2130.3) rotate(0.0) scale(3.2500) translate(-24 -24)"/>
<use href="#i-heart" transform="translate(-270.0 2014.2) rotate(-10.0) scale(0.8333) translate(-24 -24)" opacity="0.45"/>
<use href="#i-heart" transform="translate(-405.0 2130.3) rotate(15.0) scale(0.8333) translate(-24 -24)" opacity="0.45"/>
<use href="#i-bicycle" transform="translate(-135.0 2014.2) rotate(0.0) scale(3.2500) translate(-24 -24)"/>
<use href="#i-smile" transform="translate(0.0 2130.3) rotate(5.0) scale(3.2500) translate(-24 -24)"/>
<use href="#i-heart" transform="translate(0.0 2014.2) rotate(0.0) scale(0.8333) translate(-24 -24)" opacity="0.45"/>
<use href="#i-heart" transform="translate(-135.0 2130.3) rotate(10.0) scale(0.8333) translate(-24 -24)" opacity="0.45"/>
<use href="#i-bicycle" transform="translate(135.0 2014.2) rotate(-10.0) scale(3.2500) translate(-24 -24)"/>
<use href="#i-smile" transform="translate(270.0 2130.3) rotate(0.0) scale(3.2500) translate(-24 -24)"/>
<use href="#i-heart" transform="translate(270.0 2014.2) rotate(5.0) scale(0.8333) translate(-24 -24)" opacity="0.45"/>
<use href="#i-heart" transform="translate(135.0 2130.3) rotate(20.0) scale(0.8333) translate(-24 -24)" opacity="0.45"/>
<use href="#i-bicycle" transform="translate(405.0 2014.2) rotate(5.0) scale(3.2500) translate(-24 -24)"/>
<use href="#i-smile" transform="translate(540.0 2130.3) rotate(5.0) scale(3.2500) translate(-24 -24)"/>
<use href="#i-heart" transform="translate(540.0 2014.2) rotate(-15.0) scale(0.8333) translate(-24 -24)" opacity="0.45"/>
<use href="#i-heart" transform="translate(405.0 2130.3) rotate(0.0) scale(0.8333) translate(-24 -24)" opacity="0.45"/>
<use href="#i-bicycle" transform="translate(675.0 2014.2) rotate(-5.0) scale(3.2500) translate(-24 -24)"/>
<use href="#i-smile" transform="translate(810.0 2130.3) rotate(5.0) scale(3.2500) translate(-24 -24)"/>
<use href="#i-heart" transform="translate(810.0 2014.2) rotate(-5.0) scale(0.8333) translate(-24 -24)" opacity="0.45"/>
<use href="#i-heart" transform="translate(675.0 2130.3) rotate(0.0) scale(0.8333) translate(-24 -24)" opacity="0.45"/>
<use href="#i-bicycle" transform="translate(945.0 2014.2) rotate(-10.0) scale(3.2500) translate(-24 -24)"/>
<use href="#i-smile" transform="translate(1080.0 2130.3) rotate(5.0) scale(3.2500) translate(-24 -24)"/>
<use href="#i-heart" transform="translate(1080.0 2014.2) rotate(-15.0) scale(0.8333) translate(-24 -24)" opacity="0.45"/>
<use href="#i-heart" transform="translate(945.0 2130.3) rotate(20.0) scale(0.8333) translate(-24 -24)" opacity="0.45"/>
<use href="#i-bicycle" transform="translate(1215.0 2014.2) rotate(0.0) scale(3.2500) translate(-24 -24)"/>
<use href="#i-smile" transform="translate(1350.0 2130.3) rotate(-5.0) scale(3.2500) translate(-24 -24)"/>
<use href="#i-heart" transform="translate(1350.0 2014.2) rotate(-10.0) scale(0.8333) translate(-24 -24)" opacity="0.45"/>
<use href="#i-heart" transform="translate(1215.0 2130.3) rotate(20.0) scale(0.8333) translate(-24 -24)" opacity="0.45"/>
<use href="#i-bicycle" transform="translate(1485.0 2014.2) rotate(10.0) scale(3.2500) translate(-24 -24)"/>
<use href="#i-smile" transform="translate(1620.0 2130.3) rotate(-5.0) scale(3.2500) translate(-24 -24)"/>
<use href="#i-heart" transform="translate(1620.0 2014.2) rotate(0.0) scale(0.8333) translate(-24 -24)" opacity="0.45"/>
<use href="#i-heart" transform="translate(1485.0 2130.3) rotate(20.0) scale(0.8333) translate(-24 -24)" opacity="0.45"/>
<use href="#i-bicycle" transform="translate(1755.0 2014.2) rotate(10.0) scale(3.2500) translate(-24 -24)"/>
<use href="#i-smile" transform="translate(1890.0 2130.3) rotate(0.0) scale(3.2500) translate(-24 -24)"/>
<use href="#i-heart" transform="translate(1890.0 2014.2) rotate(-5.0) scale(0.8333) translate(-24 -24)" opacity="0.45"/>
<use href="#i-heart" transform="translate(1755.0 2130.3) rotate(10.0) scale(0.8333) translate(-24 -24)" opacity="0.45"/>
<use href="#i-bicycle" transform="translate(2025.0 2014.2) rotate(10.0) scale(3.2500) translate(-24 -24)"/>
<use href="#i-smile" transform="translate(2160.0 2130.3) rotate(0.0) scale(3.2500) translate(-24 -24)"/>
<use href="#i-heart" transform="translate(2160.0 2014.2) rotate(5.0) scale(0.8333) translate(-24 -24)" opacity="0.45"/>
<use href="#i-heart" transform="translate(2025.0 2130.3) rotate(15.0) scale(0.8333) translate(-24 -24)" opacity="0.45"/>
<use href="#i-bicycle" transform="translate(2295.0 2014.2) rotate(5.0) scale(3.2500) translate(-24 -24)"/>
<use href="#i-smile" transform="translate(2430.0 2130.3) rotate(0.0) scale(3.2500) translate(-24 -24)"/>
<use href="#i-heart" transform="translate(2430.0 2014.2) rotate(5.0) scale(0.8333) translate(-24 -24)" opacity="0.45"/>
<use href="#i-heart" transform="translate(2295.0 2130.3) rotate(5.0) scale(0.8333) translate(-24 -24)" opacity="0.45"/>
<use href="#i-bicycle" transform="translate(2565.0 2014.2) rotate(5.0) scale(3.2500) translate(-24 -24)"/>
<use href="#i-smile" transform="translate(2700.0 2130.3) rotate(0.0) scale(3.2500) translate(-24 -24)"/>
<use href="#i-heart" transform="translate(2700.0 2014.2) rotate(-20.0) scale(0.8333) translate(-24 -24)" opacity="0.45"/>
<use href="#i-heart" transform="translate(2565.0 2130.3) rotate(-15.0) scale(0.8333) translate(-24 -24)" opacity="0.45"/>
<use href="#i-bicycle" transform="translate(2835.0 2014.2) rotate(5.0) scale(3.2500) translate(-24 -24)"/>
<use href="#i-smile" transform="translate(2970.0 2130.3) rotate(5.0) scale(3.2500) translate(-24 -24)"/>
<use href="#i-heart" transform="translate(2970.0 2014.2) rotate(0.0) scale(0.8333) translate(-24 -24)" opacity="0.45"/>
<use href="#i-heart" transform="translate(2835.0 2130.3) rotate(-10.0) scale(0.8333) translate(-24 -24)" opacity="0.45"/>
<use href="#i-bicycle" transform="translate(3105.0 2014.2) rotate(0.0) scale(3.2500) translate(-24 -24)"/>
<use href="#i-smile" transform="translate(3240.0 2130.3) rotate(0.0) scale(3.2500) translate(-24 -24)"/>
<use href="#i-heart" transform="translate(3240.0 2014.2) rotate(15.0) scale(0.8333) translate(-24 -24)" opacity="0.45"/>
<use href="#i-heart" transform="translate(3105.0 2130.3) rotate(20.0) scale(0.8333) translate(-24 -24)" opacity="0.45"/>
<use href="#i-bicycle" transform="translate(3375.0 2014.2) rotate(-5.0) scale(3.2500) translate(-24 -24)"/>
<use href="#i-smile" transform="translate(3510.0 2130.3) rotate(-5.0) scale(3.2500) translate(-24 -24)"/>
<use href="#i-heart" transform="translate(3510.0 2014.2) rotate(0.0) scale(0.8333) translate(-24 -24)" opacity="0.45"/>
<use href="#i-heart" transform="translate(3375.0 2130.3) rotate(20.0) scale(0.8333) translate(-24 -24)" opacity="0.45"/>
<use href="#i-bicycle" transform="translate(3645.0 2014.2) rotate(-5.0) scale(3.2500) translate(-24 -24)"/>
<use href="#i-smile" transform="translate(3780.0 2130.3) rotate(-5.0) scale(3.2500) translate(-24 -24)"/>
<use href="#i-heart" transform="translate(3780.0 2014.2) rotate(15.0) scale(0.8333) translate(-24 -24)" opacity="0.45"/>
<use href="#i-heart" transform="translate(3645.0 2130.3) rotate(0.0) scale(0.8333) translate(-24 -24)" opacity="0.45"/>
<use href="#i-bicycle" transform="translate(-540.0 2246.4) rotate(0.0) scale(3.2500) translate(-24 -24)"/>
<use href="#i-smile" transform="translate(-405.0 2362.5) rotate(10.0) scale(3.2500) translate(-24 -24)"/>
<use href="#i-heart" transform="translate(-405.0 2246.4) rotate(10.0) scale(0.8333) translate(-24 -24)" opacity="0.45"/>
<use href="#i-heart" transform="translate(-540.0 2362.5) rotate(-10.0) scale(0.8333) translate(-24 -24)" opacity="0.45"/>
<use href="#i-bicycle" transform="translate(-270.0 2246.4) rotate(10.0) scale(3.2500) translate(-24 -24)"/>
<use href="#i-smile" transform="translate(-135.0 2362.5) rotate(5.0) scale(3.2500) translate(-24 -24)"/>
<use href="#i-heart" transform="translate(-135.0 2246.4) rotate(0.0) scale(0.8333) translate(-24 -24)" opacity="0.45"/>
<use href="#i-heart" transform="translate(-270.0 2362.5) rotate(-25.0) scale(0.8333) translate(-24 -24)" opacity="0.45"/>
<use href="#i-bicycle" transform="translate(0.0 2246.4) rotate(5.0) scale(3.2500) translate(-24 -24)"/>
<use href="#i-smile" transform="translate(135.0 2362.5) rotate(0.0) scale(3.2500) translate(-24 -24)"/>
<use href="#i-heart" transform="translate(135.0 2246.4) rotate(-10.0) scale(0.8333) translate(-24 -24)" opacity="0.45"/>
<use href="#i-heart" transform="translate(0.0 2362.5) rotate(-15.0) scale(0.8333) translate(-24 -24)" opacity="0.45"/>
<use href="#i-bicycle" transform="translate(270.0 2246.4) rotate(0.0) scale(3.2500) translate(-24 -24)"/>
<use href="#i-smile" transform="translate(405.0 2362.5) rotate(-5.0) scale(3.2500) translate(-24 -24)"/>
<use href="#i-heart" transform="translate(405.0 2246.4) rotate(5.0) scale(0.8333) translate(-24 -24)" opacity="0.45"/>
<use href="#i-heart" transform="translate(270.0 2362.5) rotate(20.0) scale(0.8333) translate(-24 -24)" opacity="0.45"/>
<use href="#i-bicycle" transform="translate(540.0 2246.4) rotate(10.0) scale(3.2500) translate(-24 -24)"/>
<use href="#i-smile" transform="translate(675.0 2362.5) rotate(10.0) scale(3.2500) translate(-24 -24)"/>
<use href="#i-heart" transform="translate(675.0 2246.4) rotate(15.0) scale(0.8333) translate(-24 -24)" opacity="0.45"/>
<use href="#i-heart" transform="translate(540.0 2362.5) rotate(5.0) scale(0.8333) translate(-24 -24)" opacity="0.45"/>
<use href="#i-bicycle" transform="translate(810.0 2246.4) rotate(0.0) scale(3.2500) translate(-24 -24)"/>
<use href="#i-smile" transform="translate(945.0 2362.5) rotate(5.0) scale(3.2500) translate(-24 -24)"/>
<use href="#i-heart" transform="translate(945.0 2246.4) rotate(-20.0) scale(0.8333) translate(-24 -24)" opacity="0.45"/>
<use href="#i-heart" transform="translate(810.0 2362.5) rotate(-15.0) scale(0.8333) translate(-24 -24)" opacity="0.45"/>
<use href="#i-bicycle" transform="translate(1080.0 2246.4) rotate(0.0) scale(3.2500) translate(-24 -24)"/>
<use href="#i-smile" transform="translate(1215.0 2362.5) rotate(0.0) scale(3.2500) translate(-24 -24)"/>
<use href="#i-heart" transform="translate(1215.0 2246.4) rotate(-20.0) scale(0.8333) translate(-24 -24)" opacity="0.45"/>
<use href="#i-heart" transform="translate(1080.0 2362.5) rotate(15.0) scale(0.8333) translate(-24 -24)" opacity="0.45"/>
<use href="#i-bicycle" transform="translate(1350.0 2246.4) rotate(0.0) scale(3.2500) translate(-24 -24)"/>
<use href="#i-smile" transform="translate(1485.0 2362.5) rotate(0.0) scale(3.2500) translate(-24 -24)"/>
<use href="#i-heart" transform="translate(1485.0 2246.4) rotate(-15.0) scale(0.8333) translate(-24 -24)" opacity="0.45"/>
<use href="#i-heart" transform="translate(1350.0 2362.5) rotate(0.0) scale(0.8333) translate(-24 -24)" opacity="0.45"/>
<use href="#i-bicycle" transform="translate(1620.0 2246.4) rotate(5.0) scale(3.2500) translate(-24 -24)"/>
<use href="#i-smile" transform="translate(1755.0 2362.5) rotate(5.0) scale(3.2500) translate(-24 -24)"/>
<use href="#i-heart" transform="translate(1755.0 2246.4) rotate(15.0) scale(0.8333) translate(-24 -24)" opacity="0.45"/>
<use href="#i-heart" transform="translate(1620.0 2362.5) rotate(-10.0) scale(0.8333) translate(-24 -24)" opacity="0.45"/>
<use href="#i-bicycle" transform="translate(1890.0 2246.4) rotate(0.0) scale(3.2500) translate(-24 -24)"/>
<use href="#i-smile" transform="translate(2025.0 2362.5) rotate(-5.0) scale(3.2500) translate(-24 -24)"/>
<use href="#i-heart" transform="translate(2025.0 2246.4) rotate(-15.0) scale(0.8333) translate(-24 -24)" opacity="0.45"/>
<use href="#i-heart" transform="translate(1890.0 2362.5) rotate(15.0) scale(0.8333) translate(-24 -24)" opacity="0.45"/>
<use href="#i-bicycle" transform="translate(2160.0 2246.4) rotate(10.0) scale(3.2500) translate(-24 -24)"/>
<use href="#i-smile" transform="translate(2295.0 2362.5) rotate(0.0) scale(3.2500) translate(-24 -24)"/>
<use href="#i-heart" transform="translate(2295.0 2246.4) rotate(-5.0) scale(0.8333) translate(-24 -24)" opacity="0.45"/>
<use href="#i-heart" transform="translate(2160.0 2362.5) rotate(0.0) scale(0.8333) translate(-24 -24)" opacity="0.45"/>
<use href="#i-bicycle" transform="translate(2430.0 2246.4) rotate(-5.0) scale(3.2500) translate(-24 -24)"/>
<use href="#i-smile" transform="translate(2565.0 2362.5) rotate(5.0) scale(3.2500) translate(-24 -24)"/>
<use href="#i-heart" transform="translate(2565.0 2246.4) rotate(-15.0) scale(0.8333) translate(-24 -24)" opacity="0.45"/>
<use href="#i-heart" transform="translate(2430.0 2362.5) rotate(-5.0) scale(0.8333) translate(-24 -24)" opacity="0.45"/>
<use href="#i-bicycle" transform="translate(2700.0 2246.4) rotate(-5.0) scale(3.2500) translate(-24 -24)"/>
<use href="#i-smile" transform="translate(2835.0 2362.5) rotate(5.0) scale(3.2500) translate(-24 -24)"/>
<use href="#i-heart" transform="translate(2835.0 2246.4) rotate(20.0) scale(0.8333) translate(-24 -24)" opacity="0.45"/>
<use href="#i-heart" transform="translate(2700.0 2362.5) rotate(-20.0) scale(0.8333) translate(-24 -24)" opacity="0.45"/>
<use href="#i-bicycle" transform="translate(2970.0 2246.4) rotate(5.0) scale(3.2500) translate(-24 -24)"/>
<use href="#i-smile" transform="translate(3105.0 2362.5) rotate(-5.0) scale(3.2500) translate(-24 -24)"/>
<use href="#i-heart" transform="translate(3105.0 2246.4) rotate(0.0) scale(0.8333) translate(-24 -24)" opacity="0.45"/>
<use href="#i-heart" transform="translate(2970.0 2362.5) rotate(10.0) scale(0.8333) translate(-24 -24)" opacity="0.45"/>
<use href="#i-bicycle" transform="translate(3240.0 2246.4) rotate(0.0) scale(3.2500) translate(-24 -24)"/>
<use href="#i-smile" transform="translate(3375.0 2362.5) rotate(0.0) scale(3.2500) translate(-24 -24)"/>
<use href="#i-heart" transform="translate(3375.0 2246.4) rotate(-20.0) scale(0.8333) translate(-24 -24)" opacity="0.45"/>
<use href="#i-heart" transform="translate(3240.0 2362.5) rotate(-25.0) scale(0.8333) translate(-24 -24)" opacity="0.45"/>
<use href="#i-bicycle" transform="translate(3510.0 2246.4) rotate(0.0) scale(3.2500) translate(-24 -24)"/>
<use href="#i-smile" transform="translate(3645.0 2362.5) rotate(0.0) scale(3.2500) translate(-24 -24)"/>
<use href="#i-heart" transform="translate(3645.0 2246.4) rotate(20.0) scale(0.8333) translate(-24 -24)" opacity="0.45"/>
<use href="#i-heart" transform="translate(3510.0 2362.5) rotate(20.0) scale(0.8333) translate(-24 -24)" opacity="0.45"/>
</g>
</svg>